G75*
G70*
%OFA0B0*%
%FSLAX24Y24*%
%IPPOS*%
%LPD*%
%AMOC8*
5,1,8,0,0,1.08239X$1,22.5*
%
%ADD10C,0.0080*%
%ADD11C,0.0100*%
%ADD12C,0.0220*%
%ADD13R,0.0180X0.0300*%
%ADD14C,0.0050*%
%ADD15R,0.0300X0.0180*%
%ADD16C,0.0060*%
%ADD17R,0.0200X0.0200*%
%ADD18R,0.0160X0.0280*%
%ADD19C,0.0040*%
D10*
X002413Y001238D02*
X002413Y001631D01*
X002413Y001238D02*
X002806Y001238D01*
X002413Y003679D02*
X002413Y004348D01*
X001717Y005020D02*
X001535Y005020D01*
X001443Y005142D01*
X001354Y005020D02*
X001535Y005020D01*
X001545Y005026D02*
X001621Y005142D01*
X001110Y005031D02*
X000929Y005031D01*
X000836Y005153D01*
X000747Y005031D02*
X000929Y005031D01*
X000939Y005037D02*
X001014Y005153D01*
X007216Y001238D02*
X007610Y001238D01*
X007610Y001631D01*
X008984Y002172D02*
X008984Y002408D01*
X008836Y003211D02*
X008521Y003211D01*
X009388Y003211D02*
X009703Y003211D01*
X009732Y002920D02*
X010204Y002920D01*
X010952Y002408D02*
X010952Y002172D01*
X010204Y001660D02*
X009732Y001660D01*
X011891Y003229D02*
X011891Y005648D01*
X014311Y005648D01*
X014311Y003229D01*
X011891Y003229D01*
X009703Y005179D02*
X009388Y005179D01*
X008836Y005179D02*
X008521Y005179D01*
X009073Y004589D02*
X009075Y004601D01*
X009080Y004612D01*
X009089Y004621D01*
X009100Y004626D01*
X009112Y004628D01*
X009124Y004626D01*
X009135Y004621D01*
X009144Y004612D01*
X009149Y004601D01*
X009151Y004589D01*
X009149Y004577D01*
X009144Y004566D01*
X009135Y004557D01*
X009124Y004552D01*
X009112Y004550D01*
X009100Y004552D01*
X009089Y004557D01*
X009080Y004566D01*
X009075Y004577D01*
X009073Y004589D01*
X007610Y004348D02*
X007610Y003679D01*
X008579Y007872D02*
X008579Y009053D01*
X009406Y009033D02*
X009406Y007872D01*
X009407Y009033D02*
X009411Y009016D01*
X009419Y009000D01*
X009430Y008987D01*
X009444Y008976D01*
X009459Y008968D01*
X009477Y008964D01*
X009494Y008965D01*
X009511Y008969D01*
X009527Y008976D01*
X009541Y008987D01*
X009552Y009001D01*
X009560Y009017D01*
X009564Y009034D01*
X009564Y009052D01*
X009560Y009069D01*
X009552Y009085D01*
X009541Y009099D01*
X009527Y009110D01*
X009511Y009117D01*
X009494Y009121D01*
X009477Y009122D01*
X009459Y009118D01*
X009444Y009110D01*
X009430Y009099D01*
X009419Y009086D01*
X009411Y009070D01*
X009407Y009053D01*
X011458Y008777D02*
X011458Y008147D01*
X011615Y007989D01*
X012048Y007989D01*
X012836Y007989D02*
X013426Y007989D01*
X013426Y008934D01*
X012836Y008934D01*
X012470Y009039D02*
X012132Y009039D01*
X012048Y008934D02*
X011615Y008934D01*
X011458Y008777D01*
X011982Y009494D02*
X011982Y009705D01*
X012132Y010159D02*
X012470Y010159D01*
X010311Y011297D02*
X009811Y011297D01*
X009323Y011891D02*
X009323Y012151D01*
X009263Y013072D02*
X009362Y013170D01*
X008023Y013061D02*
X008023Y012801D01*
X008023Y012151D02*
X008023Y011891D01*
X007610Y011395D02*
X007610Y011002D01*
X007610Y011395D02*
X007216Y011395D01*
X007412Y013400D02*
X006940Y013400D01*
X006704Y013636D01*
X006704Y014345D02*
X006909Y014531D01*
X006909Y014532D02*
X006939Y014557D01*
X006971Y014579D01*
X007006Y014597D01*
X007042Y014612D01*
X007079Y014624D01*
X007117Y014632D01*
X007156Y014636D01*
X007196Y014636D01*
X007235Y014632D01*
X007273Y014624D01*
X007310Y014612D01*
X007346Y014597D01*
X007381Y014579D01*
X007413Y014557D01*
X007443Y014532D01*
X007443Y014531D02*
X007649Y014345D01*
X007649Y013636D02*
X007412Y013400D01*
X002806Y011395D02*
X002413Y011395D01*
X002413Y011002D01*
X001899Y011411D02*
X001899Y011749D01*
X001444Y011261D02*
X001233Y011261D01*
X000779Y011411D02*
X000779Y011749D01*
X015730Y009811D02*
X015911Y009811D01*
X016003Y009689D01*
X016092Y009811D02*
X015911Y009811D01*
X015901Y009805D02*
X015825Y009689D01*
X016961Y009594D02*
X016961Y009094D01*
X017211Y008844D01*
X016961Y008594D01*
X016961Y008094D01*
X017211Y007844D01*
X016961Y007594D01*
X016961Y007094D01*
X017211Y006844D01*
X016961Y006594D01*
X016961Y006094D01*
X017211Y005844D01*
X016961Y005594D01*
X016961Y005094D01*
X017211Y004844D01*
X016961Y004594D01*
X016961Y004094D01*
X017211Y003844D01*
X017711Y003844D01*
X017961Y004094D01*
X017961Y004594D01*
X017711Y004844D01*
X017961Y005094D01*
X017961Y005594D01*
X017711Y005844D01*
X017961Y006094D01*
X017961Y006594D01*
X017711Y006844D01*
X017961Y007094D01*
X017961Y007594D01*
X017711Y007844D01*
X017961Y008094D01*
X017961Y008594D01*
X017711Y008844D01*
X017961Y009094D01*
X017961Y009594D01*
X017711Y009844D01*
X017961Y010094D01*
X017961Y010594D01*
X017711Y010844D01*
X017211Y010844D01*
X016961Y010594D01*
X016961Y010094D01*
X017211Y009844D01*
X016961Y009594D01*
X019961Y009594D02*
X019961Y009094D01*
X020211Y008844D01*
X019961Y008594D01*
X019961Y008094D01*
X020211Y007844D01*
X019961Y007594D01*
X019961Y007094D01*
X020211Y006844D01*
X019961Y006594D01*
X019961Y006094D01*
X020211Y005844D01*
X019961Y005594D01*
X019961Y005094D01*
X020211Y004844D01*
X019961Y004594D01*
X019961Y004094D01*
X020211Y003844D01*
X020711Y003844D01*
X020961Y004094D01*
X020961Y004594D01*
X020711Y004844D01*
X020961Y005094D01*
X020961Y005594D01*
X020711Y005844D01*
X020961Y006094D01*
X020961Y006594D01*
X020711Y006844D01*
X020961Y007094D01*
X020961Y007594D01*
X020711Y007844D01*
X020961Y008094D01*
X020961Y008594D01*
X020711Y008844D01*
X020961Y009094D01*
X020961Y009594D01*
X020711Y009844D01*
X020961Y010094D01*
X020961Y010594D01*
X020711Y010844D01*
X020211Y010844D01*
X019961Y010594D01*
X019961Y010094D01*
X020211Y009844D01*
X019961Y009594D01*
X022465Y006904D02*
X022924Y007364D01*
X023481Y007364D01*
X024873Y005972D01*
X024873Y005415D01*
X023398Y003939D01*
X022841Y003939D01*
X021449Y005331D01*
X021449Y005888D01*
X021908Y006347D01*
X022465Y006904D01*
X022465Y006347D01*
X021908Y006347D01*
X022103Y005819D02*
X021936Y005652D01*
X022103Y005484D01*
X021936Y005652D02*
X022437Y005652D01*
X022771Y005844D02*
X022771Y005459D01*
X022773Y005433D01*
X022778Y005408D01*
X022786Y005384D01*
X022797Y005361D01*
X022812Y005339D01*
X022829Y005320D01*
X022848Y005303D01*
X022869Y005288D01*
X022893Y005277D01*
X022917Y005269D01*
X022942Y005264D01*
X022968Y005262D01*
X023354Y005262D01*
X023380Y005264D01*
X023405Y005269D01*
X023429Y005277D01*
X023452Y005288D01*
X023474Y005303D01*
X023493Y005320D01*
X023510Y005339D01*
X023525Y005360D01*
X023536Y005384D01*
X023544Y005408D01*
X023549Y005433D01*
X023551Y005459D01*
X023551Y005844D01*
X023549Y005870D01*
X023544Y005895D01*
X023536Y005919D01*
X023525Y005942D01*
X023510Y005964D01*
X023493Y005983D01*
X023474Y006000D01*
X023453Y006015D01*
X023429Y006026D01*
X023405Y006034D01*
X023380Y006039D01*
X023354Y006041D01*
X022968Y006041D01*
X022942Y006039D01*
X022917Y006034D01*
X022893Y006026D01*
X022869Y006015D01*
X022848Y006000D01*
X022829Y005983D01*
X022812Y005964D01*
X022797Y005943D01*
X022786Y005919D01*
X022778Y005895D01*
X022773Y005870D01*
X022771Y005844D01*
X022570Y005652D02*
X022572Y005700D01*
X022578Y005748D01*
X022588Y005795D01*
X022601Y005841D01*
X022619Y005886D01*
X022639Y005930D01*
X022664Y005972D01*
X022692Y006011D01*
X022722Y006048D01*
X022756Y006082D01*
X022793Y006114D01*
X022831Y006143D01*
X022872Y006168D01*
X022915Y006190D01*
X022960Y006208D01*
X023006Y006222D01*
X023053Y006233D01*
X023101Y006240D01*
X023149Y006243D01*
X023197Y006242D01*
X023245Y006237D01*
X023293Y006228D01*
X023339Y006216D01*
X023384Y006199D01*
X023428Y006179D01*
X023470Y006156D01*
X023510Y006129D01*
X023548Y006099D01*
X023583Y006066D01*
X023615Y006030D01*
X023645Y005992D01*
X023671Y005951D01*
X023693Y005908D01*
X023713Y005864D01*
X023728Y005819D01*
X023740Y005772D01*
X023748Y005724D01*
X023752Y005676D01*
X023752Y005628D01*
X023748Y005580D01*
X023740Y005532D01*
X023728Y005485D01*
X023713Y005440D01*
X023693Y005396D01*
X023671Y005353D01*
X023645Y005312D01*
X023615Y005274D01*
X023583Y005238D01*
X023548Y005205D01*
X023510Y005175D01*
X023470Y005148D01*
X023428Y005125D01*
X023384Y005105D01*
X023339Y005088D01*
X023293Y005076D01*
X023245Y005067D01*
X023197Y005062D01*
X023149Y005061D01*
X023101Y005064D01*
X023053Y005071D01*
X023006Y005082D01*
X022960Y005096D01*
X022915Y005114D01*
X022872Y005136D01*
X022831Y005161D01*
X022793Y005190D01*
X022756Y005222D01*
X022722Y005256D01*
X022692Y005293D01*
X022664Y005332D01*
X022639Y005374D01*
X022619Y005418D01*
X022601Y005463D01*
X022588Y005509D01*
X022578Y005556D01*
X022572Y005604D01*
X022570Y005652D01*
X016575Y004059D02*
X016394Y004059D01*
X016301Y004181D01*
X016212Y004059D02*
X016394Y004059D01*
X016404Y004065D02*
X016480Y004181D01*
X015975Y003854D02*
X015899Y003738D01*
X015889Y003732D02*
X015797Y003854D01*
X015708Y003732D02*
X015889Y003732D01*
X016070Y003732D01*
D11*
X012018Y005324D02*
X012020Y005351D01*
X012026Y005378D01*
X012035Y005404D01*
X012048Y005428D01*
X012064Y005451D01*
X012083Y005470D01*
X012105Y005487D01*
X012129Y005501D01*
X012154Y005511D01*
X012181Y005518D01*
X012208Y005521D01*
X012236Y005520D01*
X012263Y005515D01*
X012289Y005507D01*
X012313Y005495D01*
X012336Y005479D01*
X012357Y005461D01*
X012374Y005440D01*
X012389Y005416D01*
X012400Y005391D01*
X012408Y005365D01*
X012412Y005338D01*
X012412Y005310D01*
X012408Y005283D01*
X012400Y005257D01*
X012389Y005232D01*
X012374Y005208D01*
X012357Y005187D01*
X012336Y005169D01*
X012314Y005153D01*
X012289Y005141D01*
X012263Y005133D01*
X012236Y005128D01*
X012208Y005127D01*
X012181Y005130D01*
X012154Y005137D01*
X012129Y005147D01*
X012105Y005161D01*
X012083Y005178D01*
X012064Y005197D01*
X012048Y005220D01*
X012035Y005244D01*
X012026Y005270D01*
X012020Y005297D01*
X012018Y005324D01*
D12*
X010751Y003654D02*
X010727Y003654D01*
X011342Y002650D02*
X011366Y002650D01*
X008438Y002393D02*
X008414Y002393D01*
X012526Y007522D02*
X012526Y007546D01*
X014446Y008108D02*
X014446Y008132D01*
X014019Y009756D02*
X014019Y009780D01*
X014037Y010505D02*
X014037Y010529D01*
X013668Y011107D02*
X013668Y011131D01*
X012930Y013890D02*
X012930Y013915D01*
X009694Y013941D02*
X009694Y013917D01*
X009518Y011209D02*
X009518Y011185D01*
X009228Y009930D02*
X009228Y009906D01*
X010035Y008493D02*
X010059Y008493D01*
X000978Y010387D02*
X000978Y010411D01*
D13*
X001439Y009941D03*
X006151Y011990D03*
X006121Y012568D03*
X006349Y013107D03*
X009498Y010678D03*
X010523Y009886D03*
X012266Y010687D03*
X012254Y011194D03*
X011639Y013893D03*
X015861Y010694D03*
X019261Y009344D03*
X019261Y007344D03*
X019261Y006344D03*
X019261Y005344D03*
X019261Y004344D03*
X017192Y003403D03*
X015632Y002743D03*
D14*
X016388Y002325D02*
X012388Y002325D01*
X012388Y000125D01*
X012888Y000125D01*
X012888Y000625D01*
X015888Y000625D01*
X015888Y000125D01*
X012888Y000125D01*
X015888Y000125D02*
X016388Y000125D01*
X016388Y002325D01*
X012292Y008062D02*
X012292Y008862D01*
X009406Y009033D02*
X009406Y009053D01*
X006961Y008394D02*
X002961Y008394D01*
X002961Y010594D01*
X003461Y010594D01*
X003461Y010094D01*
X006461Y010094D01*
X006461Y010594D01*
X006961Y010594D01*
X006961Y008394D01*
X006461Y010594D02*
X003461Y010594D01*
D15*
X008739Y007103D03*
X002079Y003703D03*
X001520Y003660D03*
X000932Y003655D03*
D16*
X009561Y011797D02*
X009811Y011547D01*
X010311Y011547D01*
X010561Y011797D01*
X010561Y013297D01*
X010811Y013547D01*
X011311Y013547D01*
X011561Y013297D01*
X011561Y011797D01*
X011811Y011547D01*
X012311Y011547D01*
X012561Y011797D01*
X012561Y013297D01*
X012811Y013547D01*
X013311Y013547D01*
X013561Y013297D01*
X013811Y013547D01*
X014311Y013547D01*
X014561Y013297D01*
X014561Y011797D01*
X014311Y011547D01*
X013811Y011547D01*
X013561Y011797D01*
X013561Y013297D01*
X012561Y013297D02*
X012311Y013547D01*
X011811Y013547D01*
X011561Y013297D01*
X010561Y013297D02*
X010311Y013547D01*
X009811Y013547D01*
X009561Y013297D01*
X009561Y011797D01*
X010561Y011797D02*
X010811Y011547D01*
X011311Y011547D01*
X011561Y011797D01*
X012561Y011797D02*
X012811Y011547D01*
X013311Y011547D01*
X013561Y011797D01*
X021535Y005828D02*
X021535Y005698D01*
X021795Y005698D01*
X021708Y005698D02*
X021708Y005828D01*
X021665Y005871D01*
X021578Y005871D01*
X021535Y005828D01*
X021535Y005577D02*
X021751Y005577D01*
X021795Y005533D01*
X021795Y005447D01*
X021751Y005403D01*
X021535Y005403D01*
D17*
X012061Y012047D03*
D18*
X009792Y006224D03*
X008849Y006234D03*
D19*
X014844Y007482D02*
X015151Y007482D01*
X015824Y006336D02*
X015824Y006029D01*
X015670Y006183D02*
X015977Y006183D01*
M02*
