%
M48
M72
T01C0.0200
T02C0.0236
T03C0.0276
T04C0.0295
T05C0.0315
T06C0.0350
T07C0.0400
T08C0.0413
T09C0.0580
T10C0.1260
%
T01
X1070Y7590
X952Y8101
X1070Y8613
X1680Y8357
X1680Y7845
T02
X1720Y9246
X4261Y6644
X3111Y5144
X6411Y6694
X6981Y6614
X6707Y7711
X8183Y6274
X8780Y6714
X8884Y5635
X9859Y5635
X10452Y4916
X12230Y5110
X13790Y5375
X13952Y3605
X15630Y2232
X12050Y1177
X11384Y1901
X11830Y2576
X10730Y3232
X10030Y2932
X9962Y1804
X8699Y1166
X8171Y1516
X8323Y2980
X7908Y3291
X10710Y7566
X10859Y8096
X11063Y8703
X10569Y9387
X8991Y8424
X8458Y9478
X8441Y10524
X10330Y11043
X7641Y12724
X5650Y12932
X10519Y14002
X15525Y12875
X13975Y8864
X14009Y7199
X11975Y7648
X23811Y5744
T03
X2869Y12688
X2869Y13475
T04
X22632Y6180
T05
X15532Y6484
X15001Y7019
T06
X7161Y1394
X6161Y1394
T07
X12888Y1125
X13888Y1125
X14888Y1125
X15888Y1125
X17461Y4344
X17461Y5344
X17461Y6344
X17461Y7344
X17461Y8344
X17461Y9344
X17461Y10344
X20461Y10344
X20461Y9344
X20461Y8344
X20461Y7344
X20461Y6344
X20461Y5344
X20461Y4344
X14061Y12047
X13061Y12047
X12061Y12047
X11061Y12047
X10061Y12047
X10061Y13047
X11061Y13047
X12061Y13047
X13061Y13047
X14061Y13047
X6461Y9594
X5461Y9594
X4461Y9594
X3461Y9594
T08
X23690Y5123
T09
X7161Y1394
X6161Y1394
T10
X1404Y2268
X1404Y13094
X16955Y13094
X16955Y2268
M30
