G75*
G70*
%OFA0B0*%
%FSLAX24Y24*%
%IPPOS*%
%LPD*%
%AMOC8*
5,1,8,0,0,1.08239X$1,22.5*
%
%ADD10C,0.1320*%
%ADD11R,0.0690X0.0178*%
%ADD12R,0.0178X0.0690*%
%ADD13C,0.0420*%
%ADD14R,0.0277X0.0532*%
%ADD15C,0.0630*%
%ADD16R,0.0493X0.0454*%
%ADD17R,0.0177X0.0395*%
%ADD18R,0.1005X0.0710*%
%ADD19R,0.0336X0.0170*%
%ADD20R,0.0572X0.0572*%
%ADD21R,0.0118X0.0315*%
%ADD22R,0.0740X0.0681*%
%ADD23R,0.0454X0.0493*%
%ADD24R,0.0532X0.0277*%
%ADD25R,0.0611X0.0690*%
%ADD26OC8,0.0800*%
%ADD27R,0.0532X0.0257*%
%ADD28R,0.0257X0.0532*%
%ADD29R,0.0800X0.0800*%
%ADD30C,0.0800*%
%ADD31R,0.0336X0.0414*%
%ADD32R,0.0808X0.0493*%
%ADD33R,0.0690X0.0375*%
%ADD34R,0.0375X0.0690*%
%ADD35R,0.0375X0.0375*%
%ADD36C,0.0720*%
%ADD37R,0.0788X0.0493*%
%ADD38R,0.0808X0.0847*%
%ADD39C,0.0355*%
%ADD40C,0.0473*%
%ADD41C,0.0585*%
%ADD42C,0.0640*%
%ADD43C,0.0456*%
%ADD44R,0.0456X0.0456*%
D10*
X001404Y002268D03*
X001404Y013094D03*
X016955Y013094D03*
X016955Y002268D03*
D11*
X014715Y003356D03*
X014715Y003553D03*
X014715Y003749D03*
X014715Y003946D03*
X014715Y004143D03*
X014715Y004340D03*
X014715Y004537D03*
X014715Y004734D03*
X014715Y004931D03*
X014715Y005127D03*
X014715Y005324D03*
X014715Y005521D03*
X011487Y005521D03*
X011487Y005324D03*
X011487Y005127D03*
X011487Y004931D03*
X011487Y004734D03*
X011487Y004537D03*
X011487Y004340D03*
X011487Y004143D03*
X011487Y003946D03*
X011487Y003749D03*
X011487Y003553D03*
X011487Y003356D03*
D12*
X012018Y002824D03*
X012215Y002824D03*
X012412Y002824D03*
X012609Y002824D03*
X012806Y002824D03*
X013003Y002824D03*
X013199Y002824D03*
X013396Y002824D03*
X013593Y002824D03*
X013790Y002824D03*
X013987Y002824D03*
X014184Y002824D03*
X014184Y006053D03*
X013987Y006053D03*
X013790Y006053D03*
X013593Y006053D03*
X013396Y006053D03*
X013199Y006053D03*
X013003Y006053D03*
X012806Y006053D03*
X012609Y006053D03*
X012412Y006053D03*
X012215Y006053D03*
X012018Y006053D03*
D13*
X001680Y007845D03*
X001680Y008357D03*
X001070Y008613D03*
X000952Y008101D03*
X001070Y007590D03*
D14*
X000965Y011068D03*
X001713Y011068D03*
X001713Y012092D03*
X001339Y012092D03*
X000965Y012092D03*
D15*
X002869Y012688D03*
X002869Y013475D03*
D16*
X005787Y012568D03*
X006014Y013107D03*
X006683Y013107D03*
X006456Y012568D03*
X006486Y011990D03*
X005817Y011990D03*
X008893Y009918D03*
X009562Y009918D03*
X010188Y009886D03*
X010857Y009886D03*
X009833Y010678D03*
X009852Y011197D03*
X009183Y011197D03*
X009163Y010678D03*
X011931Y010687D03*
X011919Y011194D03*
X012589Y011194D03*
X012600Y010687D03*
X013334Y011119D03*
X014003Y011119D03*
X013702Y010517D03*
X014371Y010517D03*
X014354Y009768D03*
X013685Y009768D03*
X014112Y008120D03*
X014781Y008120D03*
X012861Y007534D03*
X012192Y007534D03*
X015526Y010694D03*
X016196Y010694D03*
X018926Y009344D03*
X019596Y009344D03*
X019596Y007344D03*
X018926Y007344D03*
X018926Y006344D03*
X019596Y006344D03*
X019596Y005344D03*
X018926Y005344D03*
X018926Y004344D03*
X019596Y004344D03*
X017527Y003403D03*
X016857Y003403D03*
X015967Y002743D03*
X015298Y002743D03*
X001774Y009941D03*
X001313Y010399D03*
X001104Y009941D03*
X000643Y010399D03*
X009359Y013929D03*
X010028Y013929D03*
X011305Y013893D03*
X011974Y013893D03*
X012595Y013903D03*
X013265Y013903D03*
D17*
X009066Y013062D03*
X008869Y013062D03*
X008673Y013062D03*
X008476Y013062D03*
X008279Y013062D03*
X008279Y011901D03*
X008476Y011901D03*
X008673Y011901D03*
X008869Y011901D03*
X009066Y011901D03*
D18*
X008673Y012481D03*
D19*
X008082Y012383D03*
X008082Y012580D03*
X009263Y012580D03*
X009263Y012383D03*
D20*
X007767Y013990D03*
X006586Y013990D03*
D21*
X008697Y009014D03*
X008894Y009014D03*
X009091Y009014D03*
X009288Y009014D03*
X009288Y009014D03*
X009288Y007911D03*
X009091Y007911D03*
X008894Y007911D03*
X008697Y007911D03*
D22*
X008993Y008462D03*
D23*
X008739Y007437D03*
X008739Y006768D03*
X010047Y008158D03*
X010047Y008827D03*
X010739Y003988D03*
X010739Y003319D03*
X011354Y002984D03*
X011354Y002315D03*
X008426Y002059D03*
X008426Y002728D03*
X002079Y003369D03*
X001520Y003325D03*
X000932Y003320D03*
X000932Y003990D03*
X001520Y003994D03*
X002079Y004038D03*
D24*
X011789Y009225D03*
X011789Y009973D03*
X012813Y009973D03*
X012813Y009599D03*
X012813Y009225D03*
D25*
X012993Y008462D03*
X011891Y008462D03*
D26*
X012061Y012047D03*
X013061Y012047D03*
X013061Y013047D03*
X012061Y013047D03*
X011061Y013047D03*
X010061Y013047D03*
X010061Y012047D03*
X011061Y012047D03*
X014061Y012047D03*
X014061Y013047D03*
D27*
X009545Y004982D03*
X009545Y004667D03*
X009545Y004352D03*
X009545Y004037D03*
X009545Y003723D03*
X009545Y003408D03*
X008679Y003408D03*
X008679Y003723D03*
X008679Y004037D03*
X008679Y004352D03*
X008679Y004667D03*
X008679Y004982D03*
D28*
X009112Y005022D03*
X009112Y003368D03*
D29*
X012888Y001125D03*
X006461Y009594D03*
D30*
X005461Y009594D03*
X004461Y009594D03*
X003461Y009594D03*
X013888Y001125D03*
X014888Y001125D03*
X015888Y001125D03*
X017461Y004344D03*
X017461Y005344D03*
X017461Y006344D03*
X017461Y007344D03*
X017461Y008344D03*
X017461Y009344D03*
X017461Y010344D03*
X020461Y010344D03*
X020461Y009344D03*
X020461Y008344D03*
X020461Y007344D03*
X020461Y006344D03*
X020461Y005344D03*
X020461Y004344D03*
D31*
X010048Y006224D03*
X009536Y006224D03*
X009105Y006234D03*
X008593Y006234D03*
D32*
X009240Y002743D03*
X009240Y001838D03*
X010696Y001838D03*
X010696Y002743D03*
D33*
X007610Y005096D03*
X007610Y005568D03*
X007610Y006041D03*
X007610Y006513D03*
X007610Y006986D03*
X007610Y007458D03*
X007610Y007931D03*
X007610Y008403D03*
X007610Y008876D03*
X007610Y009348D03*
X007610Y009820D03*
X007610Y010293D03*
X002413Y010293D03*
X002413Y009820D03*
X002413Y009348D03*
X002413Y008876D03*
X002413Y008403D03*
X002413Y007931D03*
X002413Y007458D03*
X002413Y006986D03*
X002413Y006513D03*
X002413Y006041D03*
X002413Y005568D03*
X002413Y005096D03*
D34*
X003121Y003994D03*
X003751Y003994D03*
X004381Y003994D03*
X004263Y011395D03*
X003791Y011395D03*
X003388Y011395D03*
X004736Y011395D03*
X005287Y011395D03*
X005759Y011395D03*
X006232Y011395D03*
X006634Y011395D03*
D35*
X001535Y005382D03*
X000929Y005393D03*
X000929Y004803D03*
X001535Y004791D03*
X015889Y004095D03*
X016394Y003831D03*
X015889Y003504D03*
X016394Y004421D03*
X015911Y009449D03*
X015911Y010040D03*
D36*
X015001Y007019D03*
X015532Y006484D03*
D37*
G36*
X022298Y005220D02*
X021742Y004664D01*
X021394Y005012D01*
X021950Y005568D01*
X022298Y005220D01*
G37*
G36*
X022687Y004830D02*
X022131Y004274D01*
X021783Y004622D01*
X022339Y005178D01*
X022687Y004830D01*
G37*
G36*
X023077Y004440D02*
X022521Y003884D01*
X022173Y004232D01*
X022729Y004788D01*
X023077Y004440D01*
G37*
G36*
X024928Y006291D02*
X024372Y005735D01*
X024024Y006083D01*
X024580Y006639D01*
X024928Y006291D01*
G37*
G36*
X024539Y006681D02*
X023983Y006125D01*
X023635Y006473D01*
X024191Y007029D01*
X024539Y006681D01*
G37*
G36*
X024149Y007071D02*
X023593Y006515D01*
X023245Y006863D01*
X023801Y007419D01*
X024149Y007071D01*
G37*
D38*
G36*
X022595Y006788D02*
X022024Y006217D01*
X021427Y006814D01*
X021998Y007385D01*
X022595Y006788D01*
G37*
G36*
X024895Y004489D02*
X024324Y003918D01*
X023727Y004515D01*
X024298Y005086D01*
X024895Y004489D01*
G37*
D39*
X022632Y006180D03*
D40*
X023690Y005123D03*
D41*
X007161Y001394D03*
X006161Y001394D03*
D42*
X006161Y001394D03*
X007161Y001394D03*
D43*
X008171Y001516D03*
X008699Y001166D03*
X009962Y001804D03*
X011384Y001901D03*
X012050Y001177D03*
X011830Y002576D03*
X010730Y003232D03*
X010030Y002932D03*
X008323Y002980D03*
X007908Y003291D03*
X008884Y005635D03*
X008183Y006274D03*
X008780Y006714D03*
X009859Y005635D03*
X010452Y004916D03*
X012230Y005110D03*
X013790Y005375D03*
X013952Y003605D03*
X015630Y002232D03*
X014009Y007199D03*
X013975Y008864D03*
X011975Y007648D03*
X010859Y008096D03*
X010710Y007566D03*
X011063Y008703D03*
X010569Y009387D03*
X008991Y008424D03*
X008458Y009478D03*
X008441Y010524D03*
X010330Y011043D03*
X007641Y012724D03*
X005650Y012932D03*
X010519Y014002D03*
X015525Y012875D03*
X006981Y006614D03*
X006411Y006694D03*
X006707Y007711D03*
X004261Y006644D03*
X003111Y005144D03*
X001720Y009246D03*
D44*
X023811Y005744D03*
M02*
