  0
SECTION
  2
HEADER
  9
$ACADVER
  1
AC1009
  9
$FILLMODE
 70
0
  9
$EXTMIN
 10
-0.6985
 20
-1.0795
 30
0.0000
  9
$EXTMAX
 10
65.0334
 20
36.2006
 30
0.0000
  0
ENDSEC
  0
SECTION
  2
TABLES
  0
TABLE
  2
LTYPE
 70
1
  0
LTYPE
  2
CONTINUOUS
 70
64
  3
Solid line
 72
65
 73
0
 40
0
  0
ENDTAB
  0
TABLE
  2
LAYER
 70
255
  0
LAYER
  2
20
 70
64
 62
7
  6
CONTINUOUS
  0
LAYER
  2
31
 70
64
 62
253
  6
CONTINUOUS
  0
ENDTAB
  0
ENDSEC
  0
SECTION
  2
BLOCKS
  0
BLOCK
  8
0
  2
RECT
 70
64
 10
0.0000
 20
0.0000
 30
0.0000
  3
RECT
  0
SOLID
  8
0
 10
-0.5000
 20
-0.5000
 30
0.0000
 11
0.5000
 21
-0.5000
 31
0.0000
 12
-0.5000
 22
0.5000
 32
0.0000
 13
0.5000
 23
0.5000
 33
0.0000
  0
ENDBLK
  8
0
  0
BLOCK
  8
0
  2
PIE
 70
64
 10
0.0000
 20
0.0000
 30
0.0000
  3
PIE
  0
CIRCLE
  8
0
 10
0.0000
 20
0.0000
 30
0.0000
 40
0.5000
  0
ENDBLK
  8
0
  0
BLOCK
  8
0
  2
OCTAGONP
 70
64
 10
0.0000
 20
0.0000
 30
0.0000
  3
OCTAGONP
  0
POLYLINE
  8
0
 66
1
 10
0.0000
 20
0.0000
 30
0.0000
 40
0.0000
 41
0.0000
 70
1
  0
VERTEX
  8
0
 10
-0.5000
 20
-0.2071
 30
0.0000
  0
VERTEX
  8
0
 10
-0.5000
 20
0.2071
 30
0.0000
  0
VERTEX
  8
0
 10
-0.2071
 20
0.5000
 30
0.0000
  0
VERTEX
  8
0
 10
0.2071
 20
0.5000
 30
0.0000
  0
VERTEX
  8
0
 10
0.5000
 20
0.2071
 30
0.0000
  0
VERTEX
  8
0
 10
0.5000
 20
-0.2071
 30
0.0000
  0
VERTEX
  8
0
 10
0.2071
 20
-0.5000
 30
0.0000
  0
VERTEX
  8
0
 10
-0.2071
 20
-0.5000
 30
0.0000
  0
SEQEND
  8
0
  0
ENDBLK
  8
0
  0
BLOCK
  8
0
  2
SQUAREP
 70
64
 10
0.0000
 20
0.0000
 30
0.0000
  3
SQUAREP
  0
SOLID
  8
0
 10
-0.5000
 20
-0.5000
 30
0.0000
 11
0.5000
 21
-0.5000
 31
0.0000
 12
-0.5000
 22
0.5000
 32
0.0000
 13
0.5000
 23
0.5000
 33
0.0000
  0
ENDBLK
  8
0
  0
BLOCK
  8
0
  2
ROUNDP
 70
64
 10
0.0000
 20
0.0000
 30
0.0000
  3
ROUNDP
  0
CIRCLE
  8
0
 10
0.0000
 20
0.0000
 30
0.0000
 40
0.5000
  0
ENDBLK
  8
0
  0
BLOCK
  8
0
  2
ANNULUSP
 70
64
 10
0.0000
 20
0.0000
 30
0.0000
  3
ANNULUSP
  0
CIRCLE
  8
0
 10
0.0000
 20
0.0000
 30
0.0000
 40
0.5000
  0
ENDBLK
  8
0
  0
BLOCK
  8
0
  2
THERMALP
 70
64
 10
0.0000
 20
0.0000
 30
0.0000
  3
THERMALP
  0
LINE
  8
0
 10
-0.2379
 20
0.4500
 30
0.0000
 11
0.2379
 21
0.4500
 31
0.0000
  0
LINE
  8
0
 10
0.4500
 20
0.2379
 30
0.0000
 11
0.4500
 21
-0.2379
 31
0.0000
  0
LINE
  8
0
 10
0.2379
 20
-0.4500
 30
0.0000
 11
-0.2379
 21
-0.4500
 31
0.0000
  0
LINE
  8
0
 10
-0.4500
 20
-0.2379
 30
0.0000
 11
-0.4500
 21
0.2379
 31
0.0000
  0
ENDBLK
  8
0
  0
BLOCK
  8
0
  2
OCTAGONV
 70
64
 10
0.0000
 20
0.0000
 30
0.0000
  3
OCTAGONV
  0
POLYLINE
  8
0
 66
1
 10
0.0000
 20
0.0000
 30
0.0000
 40
0.0000
 41
0.0000
 70
1
  0
VERTEX
  8
0
 10
-0.5000
 20
-0.2071
 30
0.0000
  0
VERTEX
  8
0
 10
-0.5000
 20
0.2071
 30
0.0000
  0
VERTEX
  8
0
 10
-0.2071
 20
0.5000
 30
0.0000
  0
VERTEX
  8
0
 10
0.2071
 20
0.5000
 30
0.0000
  0
VERTEX
  8
0
 10
0.5000
 20
0.2071
 30
0.0000
  0
VERTEX
  8
0
 10
0.5000
 20
-0.2071
 30
0.0000
  0
VERTEX
  8
0
 10
0.2071
 20
-0.5000
 30
0.0000
  0
VERTEX
  8
0
 10
-0.2071
 20
-0.5000
 30
0.0000
  0
SEQEND
  8
0
  0
ENDBLK
  8
0
  0
BLOCK
  8
0
  2
SQUAREV
 70
64
 10
0.0000
 20
0.0000
 30
0.0000
  3
SQUAREV
  0
SOLID
  8
0
 10
-0.5000
 20
-0.5000
 30
0.0000
 11
0.5000
 21
-0.5000
 31
0.0000
 12
-0.5000
 22
0.5000
 32
0.0000
 13
0.5000
 23
0.5000
 33
0.0000
  0
ENDBLK
  8
0
  0
BLOCK
  8
0
  2
ROUNDV
 70
64
 10
0.0000
 20
0.0000
 30
0.0000
  3
ROUNDV
  0
CIRCLE
  8
0
 10
0.0000
 20
0.0000
 30
0.0000
 40
0.5000
  0
ENDBLK
  8
0
  0
BLOCK
  8
0
  2
ANNULUSV
 70
64
 10
0.0000
 20
0.0000
 30
0.0000
  3
ANNULUSV
  0
CIRCLE
  8
0
 10
0.0000
 20
0.0000
 30
0.0000
 40
0.5000
  0
ENDBLK
  8
0
  0
BLOCK
  8
0
  2
THERMALV
 70
64
 10
0.0000
 20
0.0000
 30
0.0000
  3
THERMALV
  0
LINE
  8
0
 10
-0.2379
 20
0.4500
 30
0.0000
 11
0.2379
 21
0.4500
 31
0.0000
  0
LINE
  8
0
 10
0.4500
 20
0.2379
 30
0.0000
 11
0.4500
 21
-0.2379
 31
0.0000
  0
LINE
  8
0
 10
0.2379
 20
-0.4500
 30
0.0000
 11
-0.2379
 21
-0.4500
 31
0.0000
  0
LINE
  8
0
 10
-0.4500
 20
-0.2379
 30
0.0000
 11
-0.4500
 21
0.2379
 31
0.0000
  0
ENDBLK
  8
0
  0
ENDSEC
  0
SECTION
  2
ENTITIES
  0
LINE
  8
20
 10
63.4670
 20
0.0000
 30
0.0000
 11
63.5000
 21
0.0000
 31
0.0000
  0
LINE
  8
20
 10
0.0000
 20
0.0000
 30
0.0000
 11
0.0000
 21
36.0736
 31
0.0000
  0
LINE
  8
20
 10
0.0000
 20
0.0000
 30
0.0000
 11
63.4670
 21
0.0000
 31
0.0000
  0
LINE
  8
20
 10
0.0000
 20
36.0736
 30
0.0000
 11
63.4670
 21
36.0736
 31
0.0000
  0
LINE
  8
20
 10
63.5000
 20
0.0000
 30
0.0000
 11
63.6270
 21
0.0000
 31
0.0000
  0
LINE
  8
20
 10
63.6270
 20
0.0000
 30
0.0000
 11
63.6270
 21
36.0680
 31
0.0000
  0
CIRCLE
  8
20
 10
42.5300
 20
31.7500
 30
0.0000
 40
1.6000
  0
CIRCLE
  8
20
 10
3.0300
 20
31.7500
 30
0.0000
 40
1.6000
  0
CIRCLE
  8
20
 10
3.0300
 20
4.2500
 30
0.0000
 40
1.6000
  0
CIRCLE
  8
20
 10
42.5300
 20
4.2500
 30
0.0000
 40
1.6000
  0
INSERT
  8
31
  2
RECT
 10
21.5084
 20
11.1454
 30
0.0000
 41
0.3476
 42
1.0476
 43
1.0000
 50
90.0000
  0
INSERT
  8
31
  2
RECT
 10
21.5084
 20
10.3454
 30
0.0000
 41
0.3476
 42
1.0476
 43
1.0000
 50
270.0000
  0
INSERT
  8
31
  2
RECT
 10
21.5084
 20
9.5454
 30
0.0000
 41
0.3476
 42
1.0476
 43
1.0000
 50
270.0000
  0
INSERT
  8
31
  2
RECT
 10
21.5084
 20
8.7454
 30
0.0000
 41
0.3476
 42
1.0476
 43
1.0000
 50
270.0000
  0
INSERT
  8
31
  2
RECT
 10
21.5084
 20
7.9454
 30
0.0000
 41
0.3476
 42
1.0476
 43
1.0000
 50
270.0000
  0
INSERT
  8
31
  2
RECT
 10
21.5084
 20
7.1454
 30
0.0000
 41
0.3476
 42
1.0476
 43
1.0000
 50
270.0000
  0
INSERT
  8
31
  2
RECT
 10
22.6084
 20
7.0454
 30
0.0000
 41
0.3476
 42
1.0476
 43
1.0000
 50
0.0000
  0
INSERT
  8
31
  2
RECT
 10
23.7084
 20
7.1454
 30
0.0000
 41
0.3476
 42
1.0476
 43
1.0000
 50
270.0000
  0
INSERT
  8
31
  2
RECT
 10
23.7084
 20
7.9454
 30
0.0000
 41
0.3476
 42
1.0476
 43
1.0000
 50
270.0000
  0
INSERT
  8
31
  2
RECT
 10
23.7084
 20
8.7454
 30
0.0000
 41
0.3476
 42
1.0476
 43
1.0000
 50
90.0000
  0
INSERT
  8
31
  2
RECT
 10
23.7084
 20
9.5454
 30
0.0000
 41
0.3476
 42
1.0476
 43
1.0000
 50
90.0000
  0
INSERT
  8
31
  2
RECT
 10
23.7084
 20
10.3454
 30
0.0000
 41
0.3476
 42
1.0476
 43
1.0000
 50
90.0000
  0
INSERT
  8
31
  2
RECT
 10
23.7084
 20
11.1454
 30
0.0000
 41
0.3476
 42
1.0476
 43
1.0000
 50
90.0000
  0
INSERT
  8
31
  2
RECT
 10
22.6084
 20
11.2454
 30
0.0000
 41
0.3476
 42
1.0476
 43
1.0000
 50
180.0000
  0
INSERT
  8
31
  2
RECT
 10
1.0978
 20
24.9041
 30
0.0000
 41
0.9476
 42
0.8476
 43
1.0000
 50
0.0000
  0
INSERT
  8
31
  2
RECT
 10
2.7978
 20
24.9041
 30
0.0000
 41
0.9476
 42
0.8476
 43
1.0000
 50
0.0000
  0
INSERT
  8
31
  2
RECT
 10
34.2231
 20
23.3018
 30
0.0000
 41
0.9476
 42
0.8476
 43
1.0000
 50
0.0000
  0
INSERT
  8
31
  2
RECT
 10
35.9231
 20
23.3018
 30
0.0000
 41
0.9476
 42
0.8476
 43
1.0000
 50
0.0000
  0
INSERT
  8
31
  2
RECT
 10
24.4890
 20
26.9295
 30
0.0000
 41
0.9476
 42
0.8476
 43
1.0000
 50
180.0000
  0
INSERT
  8
31
  2
RECT
 10
22.7890
 20
26.9295
 30
0.0000
 41
0.9476
 42
0.8476
 43
1.0000
 50
180.0000
  0
INSERT
  8
31
  2
RECT
 10
33.3314
 20
26.7319
 30
0.0000
 41
0.9476
 42
0.8476
 43
1.0000
 50
0.0000
  0
INSERT
  8
31
  2
RECT
 10
35.0314
 20
26.7319
 30
0.0000
 41
0.9476
 42
0.8476
 43
1.0000
 50
0.0000
  0
INSERT
  8
31
  2
RECT
 10
31.4561
 20
33.8025
 30
0.0000
 41
0.9476
 42
0.8476
 43
1.0000
 50
0.0000
  0
INSERT
  8
31
  2
RECT
 10
33.1561
 20
33.8025
 30
0.0000
 41
0.9476
 42
0.8476
 43
1.0000
 50
0.0000
  0
INSERT
  8
31
  2
RECT
 10
23.2356
 20
33.8709
 30
0.0000
 41
0.9476
 42
0.8476
 43
1.0000
 50
0.0000
  0
INSERT
  8
31
  2
RECT
 10
24.9356
 20
33.8709
 30
0.0000
 41
0.9476
 42
0.8476
 43
1.0000
 50
0.0000
  0
INSERT
  8
31
  2
RECT
 10
24.9830
 20
20.9112
 30
0.0000
 41
0.9476
 42
0.8476
 43
1.0000
 50
270.0000
  0
INSERT
  8
31
  2
RECT
 10
24.9830
 20
19.2112
 30
0.0000
 41
0.9476
 42
0.8476
 43
1.0000
 50
270.0000
  0
INSERT
  8
31
  2
RECT
 10
22.0519
 20
23.6816
 30
0.0000
 41
0.9476
 42
0.8476
 43
1.0000
 50
0.0000
  0
INSERT
  8
31
  2
RECT
 10
23.7519
 20
23.6816
 30
0.0000
 41
0.9476
 42
0.8476
 43
1.0000
 50
0.0000
  0
INSERT
  8
31
  2
RECT
 10
29.6661
 20
19.9828
 30
0.0000
 41
1.4476
 42
1.2476
 43
1.0000
 50
270.0000
  0
INSERT
  8
31
  2
RECT
 10
32.4661
 20
19.9828
 30
0.0000
 41
1.4476
 42
1.2476
 43
1.0000
 50
270.0000
  0
INSERT
  8
31
  2
RECT
 10
32.1306
 20
17.6259
 30
0.0000
 41
0.9476
 42
0.8476
 43
1.0000
 50
180.0000
  0
INSERT
  8
31
  2
RECT
 10
30.4306
 20
17.6259
 30
0.0000
 41
0.9476
 42
0.8476
 43
1.0000
 50
180.0000
  0
INSERT
  8
31
  2
RECT
 10
26.7402
 20
8.6204
 30
0.0000
 41
0.9476
 42
0.8476
 43
1.0000
 50
270.0000
  0
INSERT
  8
31
  2
RECT
 10
26.7402
 20
6.9204
 30
0.0000
 41
0.9476
 42
0.8476
 43
1.0000
 50
270.0000
  0
INSERT
  8
31
  2
RECT
 10
28.3018
 20
4.3701
 30
0.0000
 41
0.9476
 42
0.8476
 43
1.0000
 50
90.0000
  0
INSERT
  8
31
  2
RECT
 10
28.3018
 20
6.0701
 30
0.0000
 41
0.9476
 42
0.8476
 43
1.0000
 50
90.0000
  0
INSERT
  8
31
  2
RECT
 10
20.8669
 20
5.4190
 30
0.0000
 41
0.9476
 42
0.8476
 43
1.0000
 50
270.0000
  0
INSERT
  8
31
  2
RECT
 10
20.8669
 20
3.7190
 30
0.0000
 41
0.9476
 42
0.8476
 43
1.0000
 50
270.0000
  0
INSERT
  8
31
  2
RECT
 10
35.3078
 20
19.1139
 30
0.0000
 41
0.9476
 42
0.8476
 43
1.0000
 50
0.0000
  0
INSERT
  8
31
  2
RECT
 10
37.0078
 20
19.1139
 30
0.0000
 41
0.9476
 42
0.8476
 43
1.0000
 50
0.0000
  0
INSERT
  8
31
  2
RECT
 10
34.2673
 20
25.2030
 30
0.0000
 41
0.9476
 42
0.8476
 43
1.0000
 50
0.0000
  0
INSERT
  8
31
  2
RECT
 10
35.9673
 20
25.2030
 30
0.0000
 41
0.9476
 42
0.8476
 43
1.0000
 50
0.0000
  0
INSERT
  8
31
  2
RECT
 10
19.1914
 20
34.0255
 30
0.0000
 41
1.1476
 42
1.1476
 43
1.0000
 50
270.0000
  0
INSERT
  8
31
  2
RECT
 10
16.1914
 20
34.0255
 30
0.0000
 41
1.1476
 42
1.1476
 43
1.0000
 50
270.0000
  0
INSERT
  8
31
  2
RECT
 10
3.3639
 20
12.1603
 30
0.0000
 41
0.6476
 42
0.6476
 43
1.0000
 50
180.0000
  0
INSERT
  8
31
  2
RECT
 10
3.3639
 20
10.6603
 30
0.0000
 41
0.6476
 42
0.6476
 43
1.0000
 50
180.0000
  0
INSERT
  8
31
  2
RECT
 10
1.8222
 20
12.1892
 30
0.0000
 41
0.6476
 42
0.6476
 43
1.0000
 50
180.0000
  0
INSERT
  8
31
  2
RECT
 10
1.8222
 20
10.6892
 30
0.0000
 41
0.6476
 42
0.6476
 43
1.0000
 50
180.0000
  0
INSERT
  8
31
  2
RECT
 10
41.1034
 20
9.7205
 30
0.0000
 41
0.6476
 42
0.6476
 43
1.0000
 50
180.0000
  0
INSERT
  8
31
  2
RECT
 10
41.1034
 20
8.2205
 30
0.0000
 41
0.6476
 42
0.6476
 43
1.0000
 50
180.0000
  0
INSERT
  8
31
  2
RECT
 10
39.8211
 20
8.8903
 30
0.0000
 41
0.6476
 42
0.6476
 43
1.0000
 50
180.0000
  0
INSERT
  8
31
  2
RECT
 10
39.8211
 20
7.3903
 30
0.0000
 41
0.6476
 42
0.6476
 43
1.0000
 50
180.0000
  0
INSERT
  8
31
  2
RECT
 10
39.8780
 20
22.4910
 30
0.0000
 41
0.6476
 42
0.6476
 43
1.0000
 50
0.0000
  0
INSERT
  8
31
  2
RECT
 10
39.8780
 20
23.9910
 30
0.0000
 41
0.6476
 42
0.6476
 43
1.0000
 50
0.0000
  0
INSERT
  8
31
  2
RECT
 10
47.5370
 20
17.1450
 30
0.0000
 41
0.9476
 42
0.8476
 43
1.0000
 50
0.0000
  0
INSERT
  8
31
  2
RECT
 10
49.2370
 20
17.1450
 30
0.0000
 41
0.9476
 42
0.8476
 43
1.0000
 50
0.0000
  0
INSERT
  8
31
  2
RECT
 10
2.2691
 20
23.7396
 30
0.0000
 41
0.9476
 42
0.8476
 43
1.0000
 50
0.0000
  0
INSERT
  8
31
  2
RECT
 10
3.9691
 20
23.7396
 30
0.0000
 41
0.9476
 42
0.8476
 43
1.0000
 50
0.0000
  0
INSERT
  8
31
  2
RECT
 10
22.7387
 20
25.6124
 30
0.0000
 41
0.9476
 42
0.8476
 43
1.0000
 50
0.0000
  0
INSERT
  8
31
  2
RECT
 10
24.4387
 20
25.6124
 30
0.0000
 41
0.9476
 42
0.8476
 43
1.0000
 50
0.0000
  0
INSERT
  8
31
  2
RECT
 10
16.4392
 20
31.7810
 30
0.0000
 41
0.9476
 42
0.8476
 43
1.0000
 50
180.0000
  0
INSERT
  8
31
  2
RECT
 10
14.7392
 20
31.7810
 30
0.0000
 41
0.9476
 42
0.8476
 43
1.0000
 50
180.0000
  0
INSERT
  8
31
  2
RECT
 10
29.7691
 20
25.6344
 30
0.0000
 41
0.9476
 42
0.8476
 43
1.0000
 50
0.0000
  0
INSERT
  8
31
  2
RECT
 10
31.4691
 20
25.6344
 30
0.0000
 41
0.9476
 42
0.8476
 43
1.0000
 50
0.0000
  0
INSERT
  8
31
  2
RECT
 10
15.8617
 20
30.4140
 30
0.0000
 41
0.9476
 42
0.8476
 43
1.0000
 50
180.0000
  0
INSERT
  8
31
  2
RECT
 10
14.1617
 20
30.4140
 30
0.0000
 41
0.9476
 42
0.8476
 43
1.0000
 50
180.0000
  0
INSERT
  8
31
  2
RECT
 10
14.2378
 20
28.9447
 30
0.0000
 41
0.9476
 42
0.8476
 43
1.0000
 50
0.0000
  0
INSERT
  8
31
  2
RECT
 10
15.9378
 20
28.9447
 30
0.0000
 41
0.9476
 42
0.8476
 43
1.0000
 50
0.0000
  0
INSERT
  8
31
  2
RECT
 10
29.8778
 20
33.7776
 30
0.0000
 41
0.9476
 42
0.8476
 43
1.0000
 50
180.0000
  0
INSERT
  8
31
  2
RECT
 10
28.1778
 20
33.7776
 30
0.0000
 41
0.9476
 42
0.8476
 43
1.0000
 50
180.0000
  0
INSERT
  8
31
  2
RECT
 10
31.4389
 20
26.9230
 30
0.0000
 41
0.9476
 42
0.8476
 43
1.0000
 50
180.0000
  0
INSERT
  8
31
  2
RECT
 10
29.7389
 20
26.9230
 30
0.0000
 41
0.9476
 42
0.8476
 43
1.0000
 50
180.0000
  0
INSERT
  8
31
  2
RECT
 10
25.3411
 20
23.6007
 30
0.0000
 41
0.9476
 42
0.8476
 43
1.0000
 50
0.0000
  0
INSERT
  8
31
  2
RECT
 10
27.0411
 20
23.6007
 30
0.0000
 41
0.9476
 42
0.8476
 43
1.0000
 50
0.0000
  0
INSERT
  8
31
  2
RECT
 10
21.6606
 20
17.3809
 30
0.0000
 41
0.9476
 42
0.8476
 43
1.0000
 50
270.0000
  0
INSERT
  8
31
  2
RECT
 10
21.6606
 20
15.6809
 30
0.0000
 41
0.9476
 42
0.8476
 43
1.0000
 50
270.0000
  0
INSERT
  8
31
  2
RECT
 10
25.7067
 20
14.2145
 30
0.0000
 41
0.9476
 42
0.8476
 43
1.0000
 50
90.0000
  0
INSERT
  8
31
  2
RECT
 10
25.7067
 20
15.9145
 30
0.0000
 41
0.9476
 42
0.8476
 43
1.0000
 50
90.0000
  0
INSERT
  8
31
  2
RECT
 10
23.2974
 20
14.3236
 30
0.0000
 41
0.9476
 42
0.8476
 43
1.0000
 50
180.0000
  0
INSERT
  8
31
  2
RECT
 10
21.5974
 20
14.3236
 30
0.0000
 41
0.9476
 42
0.8476
 43
1.0000
 50
180.0000
  0
INSERT
  8
31
  2
RECT
 10
3.3257
 20
6.9356
 30
0.0000
 41
0.9476
 42
0.8476
 43
1.0000
 50
90.0000
  0
INSERT
  8
31
  2
RECT
 10
3.3257
 20
8.6356
 30
0.0000
 41
0.9476
 42
0.8476
 43
1.0000
 50
90.0000
  0
INSERT
  8
31
  2
RECT
 10
4.7433
 20
7.0468
 30
0.0000
 41
0.9476
 42
0.8476
 43
1.0000
 50
90.0000
  0
INSERT
  8
31
  2
RECT
 10
4.7433
 20
8.7468
 30
0.0000
 41
0.9476
 42
0.8476
 43
1.0000
 50
90.0000
  0
INSERT
  8
31
  2
RECT
 10
1.8302
 20
6.9241
 30
0.0000
 41
0.9476
 42
0.8476
 43
1.0000
 50
90.0000
  0
INSERT
  8
31
  2
RECT
 10
1.8302
 20
8.6241
 30
0.0000
 41
0.9476
 42
0.8476
 43
1.0000
 50
90.0000
  0
INSERT
  8
31
  2
RECT
 10
43.9818
 20
7.1330
 30
0.0000
 41
0.9476
 42
0.8476
 43
1.0000
 50
180.0000
  0
INSERT
  8
31
  2
RECT
 10
42.2818
 20
7.1330
 30
0.0000
 41
0.9476
 42
0.8476
 43
1.0000
 50
180.0000
  0
INSERT
  8
31
  2
RECT
 10
40.0199
 20
5.4577
 30
0.0000
 41
0.9476
 42
0.8476
 43
1.0000
 50
180.0000
  0
INSERT
  8
31
  2
RECT
 10
38.3199
 20
5.4577
 30
0.0000
 41
0.9476
 42
0.8476
 43
1.0000
 50
180.0000
  0
INSERT
  8
31
  2
RECT
 10
47.5370
 20
14.6050
 30
0.0000
 41
0.9476
 42
0.8476
 43
1.0000
 50
0.0000
  0
INSERT
  8
31
  2
RECT
 10
49.2370
 20
14.6050
 30
0.0000
 41
0.9476
 42
0.8476
 43
1.0000
 50
0.0000
  0
INSERT
  8
31
  2
RECT
 10
47.5370
 20
9.5250
 30
0.0000
 41
0.9476
 42
0.8476
 43
1.0000
 50
0.0000
  0
INSERT
  8
31
  2
RECT
 10
49.2370
 20
9.5250
 30
0.0000
 41
0.9476
 42
0.8476
 43
1.0000
 50
0.0000
  0
INSERT
  8
31
  2
RECT
 10
47.5370
 20
22.2250
 30
0.0000
 41
0.9476
 42
0.8476
 43
1.0000
 50
0.0000
  0
INSERT
  8
31
  2
RECT
 10
49.2370
 20
22.2250
 30
0.0000
 41
0.9476
 42
0.8476
 43
1.0000
 50
0.0000
  0
INSERT
  8
31
  2
RECT
 10
47.5370
 20
12.0650
 30
0.0000
 41
0.9476
 42
0.8476
 43
1.0000
 50
0.0000
  0
INSERT
  8
31
  2
RECT
 10
49.2370
 20
12.0650
 30
0.0000
 41
0.9476
 42
0.8476
 43
1.0000
 50
0.0000
  0
INSERT
  8
31
  2
RECT
 10
40.6010
 20
25.6540
 30
0.0000
 41
0.9476
 42
0.8476
 43
1.0000
 50
180.0000
  0
INSERT
  8
31
  2
RECT
 10
38.9010
 20
25.6540
 30
0.0000
 41
0.9476
 42
0.8476
 43
1.0000
 50
180.0000
  0
CIRCLE
  8
20
 10
56.9495
 20
14.1886
 30
0.0000
 40
0.3750
  0
CIRCLE
  8
20
 10
59.6365
 20
11.5015
 30
0.0000
 40
0.5250
  0
INSERT
  8
31
  2
RECT
 10
54.9519
 20
11.4839
 30
0.0000
 41
1.6976
 42
0.9476
 43
1.0000
 50
45.0000
  0
INSERT
  8
31
  2
RECT
 10
59.6542
 20
16.1861
 30
0.0000
 41
1.6976
 42
0.9476
 43
1.0000
 50
45.0000
  0
INSERT
  8
31
  2
RECT
 10
56.9318
 20
9.5040
 30
0.0000
 41
1.6976
 42
0.9476
 43
1.0000
 50
45.0000
  0
INSERT
  8
31
  2
RECT
 10
55.9419
 20
10.4939
 30
0.0000
 41
1.6976
 42
0.9476
 43
1.0000
 50
45.0000
  0
INSERT
  8
31
  2
RECT
 10
61.6341
 20
14.2062
 30
0.0000
 41
1.6976
 42
0.9476
 43
1.0000
 50
45.0000
  0
INSERT
  8
31
  2
RECT
 10
60.6441
 20
15.1962
 30
0.0000
 41
1.6976
 42
0.9476
 43
1.0000
 50
45.0000
  0
INSERT
  8
31
  2
RECT
 10
55.3726
 20
15.7654
 30
0.0000
 41
1.7476
 42
1.8476
 43
1.0000
 50
45.0000
  0
INSERT
  8
31
  2
RECT
 10
61.2134
 20
9.9247
 30
0.0000
 41
1.7476
 42
1.8476
 43
1.0000
 50
45.0000
  0
INSERT
  8
31
  2
RECT
 10
28.6403
 20
12.5138
 30
0.0000
 41
0.1476
 42
1.4476
 43
1.0000
 50
270.0000
  0
INSERT
  8
31
  2
RECT
 10
28.6403
 20
12.0138
 30
0.0000
 41
0.1476
 42
1.4476
 43
1.0000
 50
270.0000
  0
INSERT
  8
31
  2
RECT
 10
28.6403
 20
11.5138
 30
0.0000
 41
0.1476
 42
1.4476
 43
1.0000
 50
270.0000
  0
INSERT
  8
31
  2
RECT
 10
28.6403
 20
11.0138
 30
0.0000
 41
0.1476
 42
1.4476
 43
1.0000
 50
270.0000
  0
INSERT
  8
31
  2
RECT
 10
28.6403
 20
10.5138
 30
0.0000
 41
0.1476
 42
1.4476
 43
1.0000
 50
270.0000
  0
INSERT
  8
31
  2
RECT
 10
28.6403
 20
10.0138
 30
0.0000
 41
0.1476
 42
1.4476
 43
1.0000
 50
270.0000
  0
INSERT
  8
31
  2
RECT
 10
28.6403
 20
9.5138
 30
0.0000
 41
0.1476
 42
1.4476
 43
1.0000
 50
270.0000
  0
INSERT
  8
31
  2
RECT
 10
28.6403
 20
9.0138
 30
0.0000
 41
0.1476
 42
1.4476
 43
1.0000
 50
270.0000
  0
INSERT
  8
31
  2
RECT
 10
28.6403
 20
8.5138
 30
0.0000
 41
0.1476
 42
1.4476
 43
1.0000
 50
270.0000
  0
INSERT
  8
31
  2
RECT
 10
28.6403
 20
8.0138
 30
0.0000
 41
0.1476
 42
1.4476
 43
1.0000
 50
270.0000
  0
INSERT
  8
31
  2
RECT
 10
28.6403
 20
7.5138
 30
0.0000
 41
0.1476
 42
1.4476
 43
1.0000
 50
270.0000
  0
INSERT
  8
31
  2
RECT
 10
28.6403
 20
7.0138
 30
0.0000
 41
0.1476
 42
1.4476
 43
1.0000
 50
270.0000
  0
INSERT
  8
31
  2
RECT
 10
29.9903
 20
5.6638
 30
0.0000
 41
1.4476
 42
0.1476
 43
1.0000
 50
270.0000
  0
INSERT
  8
31
  2
RECT
 10
30.4903
 20
5.6638
 30
0.0000
 41
1.4476
 42
0.1476
 43
1.0000
 50
270.0000
  0
INSERT
  8
31
  2
RECT
 10
30.9903
 20
5.6638
 30
0.0000
 41
1.4476
 42
0.1476
 43
1.0000
 50
270.0000
  0
INSERT
  8
31
  2
RECT
 10
31.4903
 20
5.6638
 30
0.0000
 41
1.4476
 42
0.1476
 43
1.0000
 50
270.0000
  0
INSERT
  8
31
  2
RECT
 10
31.9903
 20
5.6638
 30
0.0000
 41
1.4476
 42
0.1476
 43
1.0000
 50
270.0000
  0
INSERT
  8
31
  2
RECT
 10
32.4903
 20
5.6638
 30
0.0000
 41
1.4476
 42
0.1476
 43
1.0000
 50
270.0000
  0
INSERT
  8
31
  2
RECT
 10
32.9903
 20
5.6638
 30
0.0000
 41
1.4476
 42
0.1476
 43
1.0000
 50
270.0000
  0
INSERT
  8
31
  2
RECT
 10
33.4903
 20
5.6638
 30
0.0000
 41
1.4476
 42
0.1476
 43
1.0000
 50
270.0000
  0
INSERT
  8
31
  2
RECT
 10
33.9903
 20
5.6638
 30
0.0000
 41
1.4476
 42
0.1476
 43
1.0000
 50
270.0000
  0
INSERT
  8
31
  2
RECT
 10
34.4903
 20
5.6638
 30
0.0000
 41
1.4476
 42
0.1476
 43
1.0000
 50
270.0000
  0
INSERT
  8
31
  2
RECT
 10
34.9903
 20
5.6638
 30
0.0000
 41
1.4476
 42
0.1476
 43
1.0000
 50
270.0000
  0
INSERT
  8
31
  2
RECT
 10
35.4903
 20
5.6638
 30
0.0000
 41
1.4476
 42
0.1476
 43
1.0000
 50
270.0000
  0
INSERT
  8
31
  2
RECT
 10
36.8403
 20
7.0138
 30
0.0000
 41
0.1476
 42
1.4476
 43
1.0000
 50
270.0000
  0
INSERT
  8
31
  2
RECT
 10
36.8403
 20
7.5138
 30
0.0000
 41
0.1476
 42
1.4476
 43
1.0000
 50
270.0000
  0
INSERT
  8
31
  2
RECT
 10
36.8403
 20
8.0138
 30
0.0000
 41
0.1476
 42
1.4476
 43
1.0000
 50
270.0000
  0
INSERT
  8
31
  2
RECT
 10
36.8403
 20
8.5138
 30
0.0000
 41
0.1476
 42
1.4476
 43
1.0000
 50
270.0000
  0
INSERT
  8
31
  2
RECT
 10
36.8403
 20
9.0138
 30
0.0000
 41
0.1476
 42
1.4476
 43
1.0000
 50
270.0000
  0
INSERT
  8
31
  2
RECT
 10
36.8403
 20
9.5138
 30
0.0000
 41
0.1476
 42
1.4476
 43
1.0000
 50
270.0000
  0
INSERT
  8
31
  2
RECT
 10
36.8403
 20
10.0138
 30
0.0000
 41
0.1476
 42
1.4476
 43
1.0000
 50
270.0000
  0
INSERT
  8
31
  2
RECT
 10
36.8403
 20
10.5138
 30
0.0000
 41
0.1476
 42
1.4476
 43
1.0000
 50
270.0000
  0
INSERT
  8
31
  2
RECT
 10
36.8403
 20
11.0138
 30
0.0000
 41
0.1476
 42
1.4476
 43
1.0000
 50
270.0000
  0
INSERT
  8
31
  2
RECT
 10
36.8403
 20
11.5138
 30
0.0000
 41
0.1476
 42
1.4476
 43
1.0000
 50
270.0000
  0
INSERT
  8
31
  2
RECT
 10
36.8403
 20
12.0138
 30
0.0000
 41
0.1476
 42
1.4476
 43
1.0000
 50
270.0000
  0
INSERT
  8
31
  2
RECT
 10
36.8403
 20
12.5138
 30
0.0000
 41
0.1476
 42
1.4476
 43
1.0000
 50
270.0000
  0
INSERT
  8
31
  2
RECT
 10
35.4903
 20
13.8638
 30
0.0000
 41
1.4476
 42
0.1476
 43
1.0000
 50
270.0000
  0
INSERT
  8
31
  2
RECT
 10
34.9903
 20
13.8638
 30
0.0000
 41
1.4476
 42
0.1476
 43
1.0000
 50
270.0000
  0
INSERT
  8
31
  2
RECT
 10
34.4903
 20
13.8638
 30
0.0000
 41
1.4476
 42
0.1476
 43
1.0000
 50
270.0000
  0
INSERT
  8
31
  2
RECT
 10
33.9903
 20
13.8638
 30
0.0000
 41
1.4476
 42
0.1476
 43
1.0000
 50
270.0000
  0
INSERT
  8
31
  2
RECT
 10
33.4903
 20
13.8638
 30
0.0000
 41
1.4476
 42
0.1476
 43
1.0000
 50
270.0000
  0
INSERT
  8
31
  2
RECT
 10
32.9903
 20
13.8638
 30
0.0000
 41
1.4476
 42
0.1476
 43
1.0000
 50
270.0000
  0
INSERT
  8
31
  2
RECT
 10
32.4903
 20
13.8638
 30
0.0000
 41
1.4476
 42
0.1476
 43
1.0000
 50
270.0000
  0
INSERT
  8
31
  2
RECT
 10
31.9903
 20
13.8638
 30
0.0000
 41
1.4476
 42
0.1476
 43
1.0000
 50
270.0000
  0
INSERT
  8
31
  2
RECT
 10
31.4903
 20
13.8638
 30
0.0000
 41
1.4476
 42
0.1476
 43
1.0000
 50
270.0000
  0
INSERT
  8
31
  2
RECT
 10
30.9903
 20
13.8638
 30
0.0000
 41
1.4476
 42
0.1476
 43
1.0000
 50
270.0000
  0
INSERT
  8
31
  2
RECT
 10
30.4903
 20
13.8638
 30
0.0000
 41
1.4476
 42
0.1476
 43
1.0000
 50
270.0000
  0
INSERT
  8
31
  2
RECT
 10
29.9903
 20
13.8638
 30
0.0000
 41
1.4476
 42
0.1476
 43
1.0000
 50
270.0000
  0
INSERT
  8
31
  2
RECT
 10
18.7920
 20
11.4340
 30
0.0000
 41
0.6476
 42
1.4476
 43
1.0000
 50
270.0000
  0
INSERT
  8
31
  2
RECT
 10
18.7920
 20
12.6340
 30
0.0000
 41
0.6476
 42
1.4476
 43
1.0000
 50
270.0000
  0
INSERT
  8
31
  2
RECT
 10
18.7920
 20
13.8340
 30
0.0000
 41
0.6476
 42
1.4476
 43
1.0000
 50
270.0000
  0
INSERT
  8
31
  2
RECT
 10
18.7920
 20
15.0340
 30
0.0000
 41
0.6476
 42
1.4476
 43
1.0000
 50
270.0000
  0
INSERT
  8
31
  2
RECT
 10
18.7920
 20
16.2340
 30
0.0000
 41
0.6476
 42
1.4476
 43
1.0000
 50
270.0000
  0
INSERT
  8
31
  2
RECT
 10
18.7920
 20
17.4340
 30
0.0000
 41
0.6476
 42
1.4476
 43
1.0000
 50
270.0000
  0
INSERT
  8
31
  2
RECT
 10
18.7920
 20
18.6340
 30
0.0000
 41
0.6476
 42
1.4476
 43
1.0000
 50
270.0000
  0
INSERT
  8
31
  2
RECT
 10
18.7920
 20
19.8340
 30
0.0000
 41
0.6476
 42
1.4476
 43
1.0000
 50
270.0000
  0
INSERT
  8
31
  2
RECT
 10
18.7920
 20
21.0340
 30
0.0000
 41
0.6476
 42
1.4476
 43
1.0000
 50
270.0000
  0
INSERT
  8
31
  2
RECT
 10
18.7920
 20
22.2340
 30
0.0000
 41
0.6476
 42
1.4476
 43
1.0000
 50
270.0000
  0
INSERT
  8
31
  2
RECT
 10
18.7920
 20
23.4340
 30
0.0000
 41
0.6476
 42
1.4476
 43
1.0000
 50
270.0000
  0
INSERT
  8
31
  2
RECT
 10
18.7920
 20
24.6340
 30
0.0000
 41
0.6476
 42
1.4476
 43
1.0000
 50
270.0000
  0
INSERT
  8
31
  2
RECT
 10
5.5920
 20
24.6340
 30
0.0000
 41
0.6476
 42
1.4476
 43
1.0000
 50
90.0000
  0
INSERT
  8
31
  2
RECT
 10
5.5920
 20
23.4340
 30
0.0000
 41
0.6476
 42
1.4476
 43
1.0000
 50
90.0000
  0
INSERT
  8
31
  2
RECT
 10
5.5920
 20
22.2340
 30
0.0000
 41
0.6476
 42
1.4476
 43
1.0000
 50
90.0000
  0
INSERT
  8
31
  2
RECT
 10
5.5920
 20
21.0340
 30
0.0000
 41
0.6476
 42
1.4476
 43
1.0000
 50
90.0000
  0
INSERT
  8
31
  2
RECT
 10
5.5920
 20
19.8340
 30
0.0000
 41
0.6476
 42
1.4476
 43
1.0000
 50
90.0000
  0
INSERT
  8
31
  2
RECT
 10
5.5920
 20
18.6340
 30
0.0000
 41
0.6476
 42
1.4476
 43
1.0000
 50
90.0000
  0
INSERT
  8
31
  2
RECT
 10
5.5920
 20
17.4340
 30
0.0000
 41
0.6476
 42
1.4476
 43
1.0000
 50
90.0000
  0
INSERT
  8
31
  2
RECT
 10
5.5920
 20
16.2340
 30
0.0000
 41
0.6476
 42
1.4476
 43
1.0000
 50
90.0000
  0
INSERT
  8
31
  2
RECT
 10
5.5920
 20
15.0340
 30
0.0000
 41
0.6476
 42
1.4476
 43
1.0000
 50
90.0000
  0
INSERT
  8
31
  2
RECT
 10
5.5920
 20
13.8340
 30
0.0000
 41
0.6476
 42
1.4476
 43
1.0000
 50
90.0000
  0
INSERT
  8
31
  2
RECT
 10
5.5920
 20
12.6340
 30
0.0000
 41
0.6476
 42
1.4476
 43
1.0000
 50
90.0000
  0
INSERT
  8
31
  2
RECT
 10
5.5920
 20
11.4340
 30
0.0000
 41
0.6476
 42
1.4476
 43
1.0000
 50
90.0000
  0
INSERT
  8
31
  2
RECT
 10
7.3920
 20
8.6340
 30
0.0000
 41
0.6476
 42
1.4476
 43
1.0000
 50
180.0000
  0
INSERT
  8
31
  2
RECT
 10
8.9920
 20
8.6340
 30
0.0000
 41
0.6476
 42
1.4476
 43
1.0000
 50
180.0000
  0
INSERT
  8
31
  2
RECT
 10
10.5920
 20
8.6340
 30
0.0000
 41
0.6476
 42
1.4476
 43
1.0000
 50
180.0000
  0
INSERT
  8
31
  2
RECT
 10
9.0920
 20
27.4340
 30
0.0000
 41
0.6476
 42
1.4476
 43
1.0000
 50
180.0000
  0
INSERT
  8
31
  2
RECT
 10
15.2920
 20
27.4340
 30
0.0000
 41
0.6476
 42
1.4476
 43
1.0000
 50
180.0000
  0
INSERT
  8
31
  2
RECT
 10
16.3142
 20
27.4340
 30
0.0000
 41
0.6476
 42
1.4476
 43
1.0000
 50
180.0000
  0
INSERT
  8
31
  2
RECT
 10
14.0920
 20
27.4340
 30
0.0000
 41
0.6476
 42
1.4476
 43
1.0000
 50
180.0000
  0
INSERT
  8
31
  2
RECT
 10
12.8920
 20
27.4340
 30
0.0000
 41
0.6476
 42
1.4476
 43
1.0000
 50
180.0000
  0
INSERT
  8
31
  2
RECT
 10
11.4920
 20
27.4340
 30
0.0000
 41
0.6476
 42
1.4476
 43
1.0000
 50
180.0000
  0
INSERT
  8
31
  2
RECT
 10
10.2920
 20
27.4340
 30
0.0000
 41
0.6476
 42
1.4476
 43
1.0000
 50
180.0000
  0
INSERT
  8
31
  2
RECT
 10
8.0698
 20
27.4340
 30
0.0000
 41
0.6476
 42
1.4476
 43
1.0000
 50
180.0000
  0
INSERT
  8
31
  2
RECT
 10
3.8140
 20
29.2027
 30
0.0000
 41
0.3976
 42
1.0476
 43
1.0000
 50
180.0000
  0
INSERT
  8
31
  2
RECT
 10
2.8640
 20
29.2027
 30
0.0000
 41
0.3976
 42
1.0476
 43
1.0000
 50
180.0000
  0
INSERT
  8
31
  2
RECT
 10
1.9140
 20
29.2027
 30
0.0000
 41
0.3976
 42
1.0476
 43
1.0000
 50
180.0000
  0
INSERT
  8
31
  2
RECT
 10
1.9140
 20
26.6025
 30
0.0000
 41
0.3976
 42
1.0476
 43
1.0000
 50
180.0000
  0
INSERT
  8
31
  2
RECT
 10
3.8140
 20
26.6025
 30
0.0000
 41
0.3976
 42
1.0476
 43
1.0000
 50
180.0000
  0
INSERT
  8
31
  2
RECT
 10
21.4923
 20
30.1930
 30
0.0000
 41
2.3876
 42
0.8636
 43
1.0000
 50
180.0000
  0
INSERT
  8
31
  2
RECT
 10
22.4923
 20
31.6680
 30
0.0000
 41
0.6976
 42
0.1444
 43
1.0000
 50
270.0000
  0
INSERT
  8
31
  2
RECT
 10
21.9923
 20
31.6680
 30
0.0000
 41
0.6976
 42
0.1444
 43
1.0000
 50
270.0000
  0
INSERT
  8
31
  2
RECT
 10
21.4923
 20
31.6680
 30
0.0000
 41
0.6976
 42
0.1444
 43
1.0000
 50
270.0000
  0
INSERT
  8
31
  2
RECT
 10
20.9923
 20
31.6680
 30
0.0000
 41
0.6976
 42
0.1444
 43
1.0000
 50
270.0000
  0
INSERT
  8
31
  2
RECT
 10
20.4923
 20
31.6680
 30
0.0000
 41
0.6976
 42
0.1444
 43
1.0000
 50
270.0000
  0
INSERT
  8
31
  2
RECT
 10
20.4923
 20
28.7180
 30
0.0000
 41
0.6976
 42
0.1444
 43
1.0000
 50
270.0000
  0
INSERT
  8
31
  2
RECT
 10
20.9923
 20
28.7180
 30
0.0000
 41
0.6976
 42
0.1444
 43
1.0000
 50
270.0000
  0
INSERT
  8
31
  2
RECT
 10
21.4923
 20
28.7180
 30
0.0000
 41
0.6976
 42
0.1444
 43
1.0000
 50
270.0000
  0
INSERT
  8
31
  2
RECT
 10
21.9923
 20
28.7180
 30
0.0000
 41
0.6976
 42
0.1444
 43
1.0000
 50
270.0000
  0
INSERT
  8
31
  2
RECT
 10
22.4923
 20
28.7180
 30
0.0000
 41
0.6976
 42
0.1444
 43
1.0000
 50
270.0000
  0
INSERT
  8
31
  2
RECT
 10
22.9923
 20
29.9430
 30
0.0000
 41
0.5476
 42
0.1276
 43
1.0000
 50
0.0000
  0
INSERT
  8
31
  2
RECT
 10
22.9923
 20
30.4430
 30
0.0000
 41
0.5476
 42
0.1276
 43
1.0000
 50
0.0000
  0
INSERT
  8
31
  2
RECT
 10
19.9923
 20
29.9430
 30
0.0000
 41
0.5476
 42
0.1276
 43
1.0000
 50
0.0000
  0
INSERT
  8
31
  2
RECT
 10
19.9923
 20
30.4430
 30
0.0000
 41
0.5476
 42
0.1276
 43
1.0000
 50
0.0000
  0
INSERT
  8
31
  2
RECT
 10
22.3053
 20
19.9849
 30
0.0000
 41
0.6604
 42
0.6604
 43
1.0000
 50
270.0000
  0
INSERT
  8
31
  2
RECT
 10
23.0553
 20
21.3849
 30
0.0000
 41
0.6476
 42
0.1476
 43
1.0000
 50
270.0000
  0
INSERT
  8
31
  2
RECT
 10
22.5553
 20
21.3849
 30
0.0000
 41
0.6476
 42
0.1476
 43
1.0000
 50
270.0000
  0
INSERT
  8
31
  2
RECT
 10
22.0553
 20
21.3849
 30
0.0000
 41
0.6476
 42
0.1476
 43
1.0000
 50
270.0000
  0
INSERT
  8
31
  2
RECT
 10
21.5553
 20
21.3849
 30
0.0000
 41
0.6476
 42
0.1476
 43
1.0000
 50
270.0000
  0
INSERT
  8
31
  2
RECT
 10
21.5553
 20
18.5849
 30
0.0000
 41
0.6476
 42
0.1476
 43
1.0000
 50
270.0000
  0
INSERT
  8
31
  2
RECT
 10
22.0553
 20
18.5849
 30
0.0000
 41
0.6476
 42
0.1476
 43
1.0000
 50
270.0000
  0
INSERT
  8
31
  2
RECT
 10
22.5553
 20
18.5849
 30
0.0000
 41
0.6476
 42
0.1476
 43
1.0000
 50
270.0000
  0
INSERT
  8
31
  2
RECT
 10
23.0553
 20
18.5849
 30
0.0000
 41
0.6476
 42
0.1476
 43
1.0000
 50
270.0000
  0
INSERT
  8
31
  2
RECT
 10
32.0088
 20
21.9225
 30
0.0000
 41
0.3976
 42
1.0476
 43
1.0000
 50
90.0000
  0
INSERT
  8
31
  2
RECT
 10
32.0088
 20
22.8725
 30
0.0000
 41
0.3976
 42
1.0476
 43
1.0000
 50
90.0000
  0
INSERT
  8
31
  2
RECT
 10
32.0088
 20
23.8225
 30
0.0000
 41
0.3976
 42
1.0476
 43
1.0000
 50
90.0000
  0
INSERT
  8
31
  2
RECT
 10
29.4086
 20
23.8225
 30
0.0000
 41
0.3976
 42
1.0476
 43
1.0000
 50
90.0000
  0
INSERT
  8
31
  2
RECT
 10
29.4086
 20
21.9225
 30
0.0000
 41
0.3976
 42
1.0476
 43
1.0000
 50
90.0000
  0
INSERT
  8
31
  2
RECT
 10
26.6322
 20
5.4576
 30
0.0000
 41
1.7476
 42
0.9476
 43
1.0000
 50
180.0000
  0
INSERT
  8
31
  2
RECT
 10
22.9322
 20
5.4576
 30
0.0000
 41
1.7476
 42
0.9476
 43
1.0000
 50
180.0000
  0
INSERT
  8
31
  2
RECT
 10
22.9322
 20
3.1576
 30
0.0000
 41
1.7476
 42
0.9476
 43
1.0000
 50
180.0000
  0
INSERT
  8
31
  2
RECT
 10
26.6322
 20
3.1576
 30
0.0000
 41
1.7476
 42
0.9476
 43
1.0000
 50
180.0000
  0
ENDSEC
  0
EOF
