G75*
G70*
%OFA0B0*%
%FSLAX24Y24*%
%IPPOS*%
%LPD*%
%AMOC8*
5,1,8,0,0,1.08239X$1,22.5*
%
%ADD10C,0.0570*%
%ADD11OC8,0.0740*%
%ADD12R,0.0740X0.0740*%
%ADD13C,0.0740*%
%ADD14C,0.0660*%
%ADD15C,0.0525*%
%ADD16C,0.0160*%
%ADD17C,0.0396*%
%ADD18C,0.0100*%
%ADD19R,0.0396X0.0396*%
D10*
X002808Y012688D03*
X002808Y013475D03*
D11*
X010000Y013047D03*
X011000Y013047D03*
X011000Y012047D03*
X010000Y012047D03*
X012000Y012047D03*
X013000Y012047D03*
X013000Y013047D03*
X012000Y013047D03*
X014000Y013047D03*
X014000Y012047D03*
D12*
X006400Y009594D03*
X012826Y001125D03*
D13*
X013826Y001125D03*
X014826Y001125D03*
X015826Y001125D03*
X017400Y004344D03*
X017400Y005344D03*
X017400Y006344D03*
X017400Y007344D03*
X017400Y008344D03*
X017400Y009344D03*
X017400Y010344D03*
X020400Y010344D03*
X020400Y009344D03*
X020400Y008344D03*
X020400Y007344D03*
X020400Y006344D03*
X020400Y005344D03*
X020400Y004344D03*
X005400Y009594D03*
X004400Y009594D03*
X003400Y009594D03*
D14*
X014940Y007019D03*
X015471Y006484D03*
D15*
X007100Y001394D03*
X006100Y001394D03*
X000900Y007844D03*
X000900Y008844D03*
D16*
X000480Y007458D02*
X000480Y002562D01*
X000572Y002783D01*
X000827Y003039D01*
X001162Y003178D01*
X001524Y003178D01*
X001854Y003041D01*
X002135Y012630D01*
X002114Y012579D01*
X001858Y012323D01*
X001524Y012184D01*
X001162Y012184D01*
X000827Y012323D01*
X000480Y012323D01*
X000480Y012165D02*
X002122Y012165D01*
X002093Y012165D02*
X005399Y012165D01*
X005399Y012323D02*
X003039Y012323D01*
X003049Y012328D02*
X003168Y012447D01*
X003233Y012603D01*
X003233Y012772D01*
X003168Y012929D01*
X003049Y013048D01*
X003019Y013061D01*
X003052Y013078D01*
X003111Y013121D01*
X003163Y013172D01*
X003206Y013232D01*
X003239Y013297D01*
X003262Y013366D01*
X003273Y013439D01*
X003273Y013475D01*
X002808Y013475D01*
X002343Y013475D01*
X002343Y013439D01*
X002355Y013366D01*
X002377Y013297D01*
X002410Y013232D01*
X002453Y013172D01*
X002505Y013121D01*
X002564Y013078D01*
X002598Y013061D01*
X002567Y013048D01*
X002448Y012929D01*
X002383Y012772D01*
X002383Y012603D01*
X002448Y012447D01*
X002567Y012328D01*
X002724Y012263D01*
X002893Y012263D01*
X003049Y012328D01*
X003183Y012482D02*
X005399Y012482D01*
X005399Y012640D02*
X003233Y012640D01*
X003222Y012799D02*
X005278Y012799D01*
X005302Y012741D02*
X005397Y012646D01*
X005399Y012645D01*
X005399Y011442D01*
X002093Y011442D01*
X002093Y012558D01*
X002114Y012579D01*
X002253Y012913D01*
X002253Y013275D01*
X002114Y013610D01*
X002093Y013631D01*
X002093Y014467D01*
X017885Y014467D01*
X017885Y011442D01*
X012193Y011442D01*
X012193Y011537D01*
X012212Y011537D01*
X012500Y011826D01*
X012789Y011537D01*
X013212Y011537D01*
X013472Y011798D01*
X013773Y011497D01*
X013980Y011497D01*
X013980Y012027D01*
X014020Y012027D01*
X014020Y011497D01*
X014228Y011497D01*
X014550Y011819D01*
X014550Y012027D01*
X014020Y012027D01*
X014020Y012067D01*
X014550Y012067D01*
X014550Y012275D01*
X014250Y012575D01*
X014510Y012836D01*
X014510Y013258D01*
X014212Y013557D01*
X013789Y013557D01*
X013529Y013297D01*
X013228Y013597D01*
X013020Y013597D01*
X013020Y013067D01*
X012980Y013067D01*
X012980Y013597D01*
X012773Y013597D01*
X012472Y013297D01*
X012212Y013557D01*
X011789Y013557D01*
X011500Y013268D01*
X011212Y013557D01*
X010789Y013557D01*
X010500Y013268D01*
X010212Y013557D01*
X009789Y013557D01*
X009490Y013258D01*
X009490Y012836D01*
X009779Y012547D01*
X009490Y012258D01*
X009490Y011836D01*
X009789Y011537D01*
X010212Y011537D01*
X010500Y011826D01*
X010789Y011537D01*
X010812Y011537D01*
X010812Y011442D01*
X005931Y011442D01*
X005779Y011594D01*
X005779Y012645D01*
X005780Y012646D01*
X005875Y012741D01*
X005927Y012865D01*
X005927Y013000D01*
X005875Y013124D01*
X005780Y013219D01*
X005656Y013271D01*
X005522Y013271D01*
X005397Y013219D01*
X005302Y013124D01*
X005251Y013000D01*
X005251Y012865D01*
X005302Y012741D01*
X005251Y012957D02*
X003140Y012957D01*
X003105Y013116D02*
X005299Y013116D01*
X005879Y013116D02*
X009490Y013116D01*
X009490Y012957D02*
X005927Y012957D01*
X005899Y012799D02*
X009527Y012799D01*
X009686Y012640D02*
X005779Y012640D01*
X005779Y012482D02*
X009714Y012482D01*
X009555Y012323D02*
X005779Y012323D01*
X005779Y012165D02*
X009490Y012165D01*
X009490Y012006D02*
X005779Y012006D01*
X005779Y011848D02*
X009490Y011848D01*
X009637Y011689D02*
X005779Y011689D01*
X005842Y011531D02*
X010812Y011531D01*
X010812Y011340D02*
X010812Y009537D01*
X010795Y009579D01*
X010700Y009674D01*
X010576Y009725D01*
X010441Y009725D01*
X010317Y009674D01*
X010222Y009579D01*
X010221Y009577D01*
X008722Y009577D01*
X008683Y009670D01*
X008588Y009765D01*
X008464Y009817D01*
X008330Y009817D01*
X008230Y009775D01*
X008230Y010824D01*
X010010Y010824D01*
X010078Y010756D01*
X010202Y010705D01*
X010336Y010705D01*
X010461Y010756D01*
X010556Y010852D01*
X010607Y010976D01*
X010607Y011110D01*
X010556Y011235D01*
X010461Y011330D01*
X010437Y011340D01*
X010812Y011340D01*
X010812Y011214D02*
X010564Y011214D01*
X010607Y011055D02*
X010812Y011055D01*
X010812Y010897D02*
X010574Y010897D01*
X010417Y010738D02*
X010812Y010738D01*
X010812Y010580D02*
X008230Y010580D01*
X008230Y010738D02*
X010121Y010738D01*
X010812Y010421D02*
X008230Y010421D01*
X008230Y010263D02*
X010812Y010263D01*
X010812Y010104D02*
X008230Y010104D01*
X008230Y009946D02*
X010812Y009946D01*
X010812Y009787D02*
X008534Y009787D01*
X008700Y009629D02*
X010272Y009629D01*
X010221Y009197D02*
X010222Y009196D01*
X010317Y009101D01*
X010441Y009049D01*
X010576Y009049D01*
X010700Y009101D01*
X010795Y009196D01*
X010812Y009237D01*
X010812Y008990D01*
X010811Y008990D01*
X010715Y008895D01*
X010664Y008770D01*
X010664Y008636D01*
X010715Y008512D01*
X010793Y008434D01*
X010731Y008434D01*
X010607Y008382D01*
X010511Y008287D01*
X010460Y008163D01*
X010460Y008028D01*
X010511Y007904D01*
X010532Y007883D01*
X010457Y007852D01*
X010362Y007757D01*
X010321Y007656D01*
X008318Y007656D01*
X008230Y007745D01*
X008230Y009182D01*
X008330Y009140D01*
X008464Y009140D01*
X008588Y009192D01*
X008594Y009197D01*
X010221Y009197D01*
X010264Y009153D02*
X008496Y009153D01*
X008298Y009153D02*
X008230Y009153D01*
X008230Y008995D02*
X010812Y008995D01*
X010812Y009153D02*
X010752Y009153D01*
X010691Y008836D02*
X008230Y008836D01*
X008230Y008678D02*
X010664Y008678D01*
X010712Y008519D02*
X008230Y008519D01*
X008230Y008361D02*
X010585Y008361D01*
X010476Y008202D02*
X008230Y008202D01*
X008230Y008044D02*
X010460Y008044D01*
X010530Y007885D02*
X008230Y007885D01*
X008248Y007727D02*
X010350Y007727D01*
X010915Y007778D02*
X010990Y007809D01*
X011085Y007904D01*
X011085Y007906D01*
X011999Y007906D01*
X012081Y007988D01*
X012193Y008100D01*
X012193Y011340D01*
X018008Y011340D01*
X018008Y010564D01*
X017861Y010564D01*
X017832Y010633D01*
X017689Y010777D01*
X017501Y010854D01*
X017299Y010854D01*
X017111Y010777D01*
X016968Y010633D01*
X016890Y010446D01*
X016890Y010243D01*
X016968Y010056D01*
X017111Y009912D01*
X017274Y009844D01*
X017111Y009777D01*
X016968Y009633D01*
X016890Y009446D01*
X016890Y009243D01*
X016968Y009056D01*
X017111Y008912D01*
X017224Y008865D01*
X017189Y008854D01*
X017112Y008815D01*
X017042Y008764D01*
X016980Y008703D01*
X016930Y008633D01*
X016890Y008556D01*
X016864Y008473D01*
X016850Y008388D01*
X016850Y008364D01*
X017380Y008364D01*
X017380Y008324D01*
X016850Y008324D01*
X016850Y008301D01*
X016864Y008216D01*
X016890Y008133D01*
X016930Y008056D01*
X016980Y007986D01*
X017042Y007925D01*
X017112Y007874D01*
X017189Y007835D01*
X017224Y007823D01*
X017111Y007777D01*
X016968Y007633D01*
X016890Y007446D01*
X016890Y007243D01*
X016968Y007056D01*
X017111Y006912D01*
X017274Y006844D01*
X017111Y006777D01*
X016968Y006633D01*
X016890Y006446D01*
X016890Y006243D01*
X016968Y006056D01*
X017111Y005912D01*
X017274Y005844D01*
X017111Y005777D01*
X016968Y005633D01*
X016890Y005446D01*
X016890Y005243D01*
X016968Y005056D01*
X017111Y004912D01*
X017274Y004844D01*
X017111Y004777D01*
X016968Y004633D01*
X016890Y004446D01*
X016890Y004243D01*
X016968Y004056D01*
X017111Y003912D01*
X017299Y003834D01*
X017501Y003834D01*
X017689Y003912D01*
X017832Y004056D01*
X017861Y004124D01*
X018008Y004124D01*
X018008Y000924D01*
X016295Y000924D01*
X016336Y001024D01*
X016336Y001226D01*
X016259Y001414D01*
X016115Y001557D01*
X015928Y001635D01*
X015725Y001635D01*
X015626Y001594D01*
X015053Y002167D01*
X014550Y002167D01*
X014550Y004822D01*
X014067Y005306D01*
X014067Y005307D01*
X014067Y005442D01*
X014016Y005566D01*
X013921Y005661D01*
X013796Y005713D01*
X013662Y005713D01*
X013538Y005661D01*
X013443Y005566D01*
X013391Y005442D01*
X013391Y005307D01*
X013443Y005183D01*
X013538Y005088D01*
X013662Y005037D01*
X013796Y005037D01*
X013798Y005037D01*
X014170Y004665D01*
X014170Y003803D01*
X014082Y003891D01*
X013958Y003943D01*
X013823Y003943D01*
X013699Y003891D01*
X013604Y003796D01*
X013552Y003672D01*
X013552Y003537D01*
X013555Y003532D01*
X012554Y002505D01*
X012554Y002513D01*
X012554Y004995D01*
X012507Y005042D01*
X012508Y005043D01*
X012508Y005178D01*
X012456Y005302D01*
X012361Y005397D01*
X012237Y005449D01*
X012102Y005449D01*
X011978Y005397D01*
X011883Y005302D01*
X011831Y005178D01*
X011831Y005043D01*
X011883Y004919D01*
X011978Y004824D01*
X012102Y004772D01*
X012174Y004772D01*
X012174Y002586D01*
X012107Y002515D01*
X012107Y002643D01*
X012055Y002767D01*
X011960Y002862D01*
X011836Y002914D01*
X011701Y002914D01*
X011577Y002862D01*
X011482Y002767D01*
X011481Y002766D01*
X008230Y002766D01*
X008230Y005075D01*
X008567Y005413D01*
X008631Y005349D01*
X008755Y005297D01*
X008890Y005297D01*
X009014Y005349D01*
X009109Y005444D01*
X009161Y005568D01*
X009161Y005703D01*
X009109Y005827D01*
X009014Y005922D01*
X008890Y005974D01*
X008755Y005974D01*
X008684Y005944D01*
X008776Y006037D01*
X008920Y006037D01*
X009510Y005447D01*
X009511Y005444D01*
X009606Y005349D01*
X009730Y005297D01*
X009865Y005297D01*
X009989Y005349D01*
X010084Y005444D01*
X010136Y005568D01*
X010136Y005703D01*
X010084Y005827D01*
X009989Y005922D01*
X009865Y005974D01*
X009730Y005974D01*
X009606Y005922D01*
X009589Y005905D01*
X009189Y006305D01*
X009077Y006417D01*
X008619Y006417D01*
X008230Y006028D01*
X008230Y007006D01*
X013663Y007006D01*
X013757Y006913D01*
X013881Y006861D01*
X014015Y006861D01*
X014140Y006913D01*
X014235Y007008D01*
X014286Y007132D01*
X014286Y007266D01*
X014235Y007391D01*
X014140Y007486D01*
X014015Y007537D01*
X013881Y007537D01*
X013757Y007486D01*
X013662Y007391D01*
X013660Y007386D01*
X010941Y007386D01*
X010987Y007499D01*
X010987Y007633D01*
X010936Y007757D01*
X010915Y007778D01*
X010948Y007727D02*
X017061Y007727D01*
X017096Y007885D02*
X011066Y007885D01*
X010987Y007568D02*
X016941Y007568D01*
X016890Y007410D02*
X015269Y007410D01*
X015272Y007408D02*
X015207Y007455D01*
X015135Y007492D01*
X015059Y007517D01*
X014980Y007529D01*
X014940Y007529D01*
X014940Y007019D01*
X014940Y007019D01*
X015450Y007019D01*
X015450Y006979D01*
X015446Y006954D01*
X015565Y006954D01*
X015737Y006882D01*
X015870Y006750D01*
X015941Y006577D01*
X015941Y006390D01*
X015870Y006217D01*
X015737Y006085D01*
X015565Y006014D01*
X015378Y006014D01*
X015205Y006085D01*
X015073Y006217D01*
X015001Y006390D01*
X015001Y006513D01*
X014980Y006509D01*
X014940Y006509D01*
X014940Y007019D01*
X014940Y007019D01*
X015450Y007019D01*
X015450Y007059D01*
X015437Y007139D01*
X015412Y007215D01*
X015376Y007286D01*
X015329Y007351D01*
X015272Y007408D01*
X015394Y007251D02*
X016890Y007251D01*
X016952Y007093D02*
X015444Y007093D01*
X015611Y006934D02*
X017089Y006934D01*
X017110Y006776D02*
X015844Y006776D01*
X015925Y006617D02*
X016961Y006617D01*
X016895Y006459D02*
X015941Y006459D01*
X015904Y006300D02*
X016890Y006300D01*
X016932Y006142D02*
X015794Y006142D01*
X015148Y006142D02*
X009352Y006142D01*
X009194Y006300D02*
X015038Y006300D01*
X015001Y006459D02*
X008230Y006459D01*
X008230Y006617D02*
X014625Y006617D01*
X014607Y006630D02*
X014672Y006583D01*
X014744Y006547D01*
X014820Y006522D01*
X014900Y006509D01*
X014940Y006509D01*
X014940Y007019D01*
X014940Y007019D01*
X014430Y007019D01*
X014430Y006979D01*
X014442Y006900D01*
X014467Y006823D01*
X014503Y006752D01*
X014551Y006687D01*
X014607Y006630D01*
X014491Y006776D02*
X008230Y006776D01*
X008230Y006934D02*
X013735Y006934D01*
X014162Y006934D02*
X014437Y006934D01*
X014430Y007019D02*
X014940Y007019D01*
X014940Y007019D01*
X014940Y007529D01*
X014900Y007529D01*
X014820Y007517D01*
X014744Y007492D01*
X014672Y007455D01*
X014607Y007408D01*
X014551Y007351D01*
X014503Y007286D01*
X014467Y007215D01*
X014442Y007139D01*
X014430Y007059D01*
X014430Y007019D01*
X014435Y007093D02*
X014270Y007093D01*
X014286Y007251D02*
X014486Y007251D01*
X014610Y007410D02*
X014216Y007410D01*
X013681Y007410D02*
X010950Y007410D01*
X010800Y006864D02*
X010800Y004294D01*
X011836Y005032D02*
X008230Y005032D01*
X008230Y004874D02*
X011928Y004874D01*
X012174Y004715D02*
X008230Y004715D01*
X008230Y004557D02*
X012174Y004557D01*
X012174Y004398D02*
X008230Y004398D01*
X008230Y004240D02*
X012174Y004240D01*
X012174Y004081D02*
X008230Y004081D01*
X008230Y003923D02*
X012174Y003923D01*
X012174Y003764D02*
X008230Y003764D01*
X008230Y003606D02*
X012174Y003606D01*
X012174Y003447D02*
X008230Y003447D01*
X008230Y003289D02*
X012174Y003289D01*
X012174Y003130D02*
X008230Y003130D01*
X008230Y002972D02*
X012174Y002972D01*
X012174Y002813D02*
X012009Y002813D01*
X012102Y002655D02*
X012174Y002655D01*
X012554Y002655D02*
X012700Y002655D01*
X012554Y002813D02*
X012854Y002813D01*
X013009Y002972D02*
X012554Y002972D01*
X012554Y003130D02*
X013163Y003130D01*
X013318Y003289D02*
X012554Y003289D01*
X012554Y003447D02*
X013472Y003447D01*
X013552Y003606D02*
X012554Y003606D01*
X012554Y003764D02*
X013591Y003764D01*
X013775Y003923D02*
X012554Y003923D01*
X012554Y004081D02*
X014170Y004081D01*
X014170Y003923D02*
X014006Y003923D01*
X014170Y004240D02*
X012554Y004240D01*
X012554Y004398D02*
X014170Y004398D01*
X014170Y004557D02*
X012554Y004557D01*
X012554Y004715D02*
X014120Y004715D01*
X013961Y004874D02*
X012554Y004874D01*
X012516Y005032D02*
X013803Y005032D01*
X013439Y005191D02*
X012502Y005191D01*
X012409Y005349D02*
X013391Y005349D01*
X013418Y005508D02*
X010111Y005508D01*
X010136Y005666D02*
X013550Y005666D01*
X013908Y005666D02*
X017001Y005666D01*
X016916Y005508D02*
X014040Y005508D01*
X014067Y005349D02*
X016890Y005349D01*
X016912Y005191D02*
X014182Y005191D01*
X014340Y005032D02*
X016991Y005032D01*
X017203Y004874D02*
X014499Y004874D01*
X014550Y004715D02*
X017050Y004715D01*
X016936Y004557D02*
X014550Y004557D01*
X014550Y004398D02*
X016890Y004398D01*
X016891Y004240D02*
X014550Y004240D01*
X014550Y004081D02*
X016957Y004081D01*
X017100Y003923D02*
X014550Y003923D01*
X014550Y003764D02*
X018008Y003764D01*
X018008Y003606D02*
X014550Y003606D01*
X014550Y003447D02*
X018008Y003447D01*
X018008Y003289D02*
X014550Y003289D01*
X014550Y003130D02*
X016599Y003130D01*
X016713Y003178D02*
X016379Y003039D01*
X016123Y002783D01*
X015984Y002449D01*
X015984Y002087D01*
X016123Y001752D01*
X016379Y001496D01*
X016713Y001358D01*
X017075Y001358D01*
X017410Y001496D01*
X017665Y001752D01*
X017804Y002087D01*
X017804Y002449D01*
X017665Y002783D01*
X017410Y003039D01*
X017075Y003178D01*
X016713Y003178D01*
X016312Y002972D02*
X014550Y002972D01*
X014550Y002813D02*
X016153Y002813D01*
X016070Y002655D02*
X014550Y002655D01*
X014550Y002496D02*
X016004Y002496D01*
X015984Y002338D02*
X014550Y002338D01*
X014550Y002179D02*
X015984Y002179D01*
X016011Y002021D02*
X015199Y002021D01*
X015358Y001862D02*
X016077Y001862D01*
X016171Y001704D02*
X015516Y001704D01*
X016127Y001545D02*
X016329Y001545D01*
X016270Y001387D02*
X016643Y001387D01*
X016336Y001228D02*
X018008Y001228D01*
X018008Y001070D02*
X016336Y001070D01*
X017146Y001387D02*
X018008Y001387D01*
X018008Y001545D02*
X017459Y001545D01*
X017617Y001704D02*
X018008Y001704D01*
X018008Y001862D02*
X017711Y001862D01*
X017777Y002021D02*
X018008Y002021D01*
X018008Y002179D02*
X017804Y002179D01*
X017804Y002338D02*
X018008Y002338D01*
X018008Y002496D02*
X017784Y002496D01*
X017719Y002655D02*
X018008Y002655D01*
X018008Y002813D02*
X017635Y002813D01*
X017477Y002972D02*
X018008Y002972D01*
X018008Y003130D02*
X017189Y003130D01*
X017700Y003923D02*
X018008Y003923D01*
X018008Y004081D02*
X017843Y004081D01*
X017400Y004344D02*
X020400Y004344D01*
X020400Y005344D02*
X017400Y005344D01*
X017227Y005825D02*
X010085Y005825D01*
X009511Y005983D02*
X017040Y005983D01*
X017400Y006344D02*
X020400Y006344D01*
X020400Y007344D02*
X017400Y007344D01*
X017576Y007823D02*
X017611Y007835D01*
X017688Y007874D01*
X017758Y007925D01*
X017820Y007986D01*
X017870Y008056D01*
X017910Y008133D01*
X017936Y008216D01*
X017950Y008301D01*
X017950Y008324D01*
X017420Y008324D01*
X017420Y008364D01*
X017950Y008364D01*
X017950Y008388D01*
X017936Y008473D01*
X017910Y008556D01*
X017870Y008633D01*
X017820Y008703D01*
X017758Y008764D01*
X017688Y008815D01*
X017611Y008854D01*
X017576Y008865D01*
X017689Y008912D01*
X017832Y009056D01*
X017861Y009124D01*
X018008Y009124D01*
X018008Y007564D01*
X017861Y007564D01*
X017832Y007633D01*
X017689Y007777D01*
X017576Y007823D01*
X017704Y007885D02*
X018008Y007885D01*
X018008Y007727D02*
X017739Y007727D01*
X017859Y007568D02*
X018008Y007568D01*
X018008Y008044D02*
X017862Y008044D01*
X017932Y008202D02*
X018008Y008202D01*
X018008Y008361D02*
X017420Y008361D01*
X017400Y008344D02*
X020400Y008344D01*
X020400Y007344D02*
X021950Y007544D01*
X023750Y005744D01*
X020400Y009344D02*
X017400Y009344D01*
X016927Y009153D02*
X012193Y009153D01*
X012193Y008995D02*
X017028Y008995D01*
X017154Y008836D02*
X012193Y008836D01*
X012193Y008678D02*
X016962Y008678D01*
X016879Y008519D02*
X012193Y008519D01*
X012193Y008361D02*
X017380Y008361D01*
X016868Y008202D02*
X012193Y008202D01*
X012137Y008044D02*
X016938Y008044D01*
X017646Y008836D02*
X018008Y008836D01*
X018008Y008678D02*
X017838Y008678D01*
X017921Y008519D02*
X018008Y008519D01*
X018008Y008995D02*
X017772Y008995D01*
X016890Y009312D02*
X012193Y009312D01*
X012193Y009470D02*
X016900Y009470D01*
X016966Y009629D02*
X012193Y009629D01*
X012193Y009787D02*
X017137Y009787D01*
X017077Y009946D02*
X012193Y009946D01*
X012193Y010104D02*
X016947Y010104D01*
X016890Y010263D02*
X012193Y010263D01*
X012193Y010421D02*
X016890Y010421D01*
X016946Y010580D02*
X012193Y010580D01*
X012193Y010738D02*
X017073Y010738D01*
X017400Y010344D02*
X020400Y010344D01*
X018008Y010580D02*
X017854Y010580D01*
X017727Y010738D02*
X018008Y010738D01*
X018008Y010897D02*
X012193Y010897D01*
X012193Y011055D02*
X018008Y011055D01*
X018008Y011214D02*
X012193Y011214D01*
X012193Y011531D02*
X013739Y011531D01*
X013580Y011689D02*
X013364Y011689D01*
X013980Y011689D02*
X014020Y011689D01*
X014020Y011531D02*
X013980Y011531D01*
X014262Y011531D02*
X017885Y011531D01*
X017885Y011689D02*
X014420Y011689D01*
X014550Y011848D02*
X017885Y011848D01*
X017885Y012006D02*
X014550Y012006D01*
X014550Y012165D02*
X017885Y012165D01*
X017885Y012323D02*
X017410Y012323D01*
X017665Y012579D01*
X017804Y012913D01*
X017804Y013275D01*
X017665Y013610D01*
X017410Y013866D01*
X017075Y014004D01*
X016713Y014004D01*
X016379Y013866D01*
X016123Y013610D01*
X015984Y013275D01*
X015984Y012913D01*
X016123Y012579D01*
X016379Y012323D01*
X016713Y012184D01*
X017075Y012184D01*
X017410Y012323D01*
X017568Y012482D02*
X017885Y012482D01*
X017885Y012640D02*
X017691Y012640D01*
X017757Y012799D02*
X017885Y012799D01*
X017885Y012957D02*
X017804Y012957D01*
X017804Y013116D02*
X017885Y013116D01*
X017885Y013274D02*
X017804Y013274D01*
X017739Y013433D02*
X017885Y013433D01*
X017885Y013591D02*
X017673Y013591D01*
X017525Y013750D02*
X017885Y013750D01*
X017885Y013908D02*
X017307Y013908D01*
X017885Y014067D02*
X002093Y014067D01*
X002093Y014225D02*
X017885Y014225D01*
X017885Y014384D02*
X002093Y014384D01*
X002093Y013908D02*
X002636Y013908D01*
X002630Y013906D02*
X002564Y013873D01*
X002505Y013830D01*
X002453Y013778D01*
X002410Y013719D01*
X002377Y013654D01*
X002355Y013584D01*
X002343Y013512D01*
X002343Y013475D01*
X002808Y013475D01*
X002808Y013475D01*
X002808Y013475D01*
X002808Y013940D01*
X002772Y013940D01*
X002699Y013929D01*
X002630Y013906D01*
X002808Y013908D02*
X002808Y013908D01*
X002808Y013940D02*
X002808Y013475D01*
X002808Y013475D01*
X003273Y013475D01*
X003273Y013512D01*
X003262Y013584D01*
X003239Y013654D01*
X003206Y013719D01*
X003163Y013778D01*
X003111Y013830D01*
X003052Y013873D01*
X002987Y013906D01*
X002917Y013929D01*
X002845Y013940D01*
X002808Y013940D01*
X002980Y013908D02*
X016482Y013908D01*
X016263Y013750D02*
X003183Y013750D01*
X003259Y013591D02*
X012767Y013591D01*
X012980Y013591D02*
X013020Y013591D01*
X013020Y013433D02*
X012980Y013433D01*
X012980Y013274D02*
X013020Y013274D01*
X013020Y013116D02*
X012980Y013116D01*
X012608Y013433D02*
X012336Y013433D01*
X011665Y013433D02*
X011336Y013433D01*
X011494Y013274D02*
X011506Y013274D01*
X010665Y013433D02*
X010336Y013433D01*
X010494Y013274D02*
X010506Y013274D01*
X009665Y013433D02*
X003272Y013433D01*
X003228Y013274D02*
X009506Y013274D01*
X010364Y011689D02*
X010637Y011689D01*
X012364Y011689D02*
X012637Y011689D01*
X013980Y011848D02*
X014020Y011848D01*
X014020Y012006D02*
X013980Y012006D01*
X014343Y012482D02*
X016220Y012482D01*
X016097Y012640D02*
X014315Y012640D01*
X014473Y012799D02*
X016032Y012799D01*
X015984Y012957D02*
X014510Y012957D01*
X014510Y013116D02*
X015984Y013116D01*
X015984Y013274D02*
X014494Y013274D01*
X014336Y013433D02*
X016049Y013433D01*
X016115Y013591D02*
X013234Y013591D01*
X013392Y013433D02*
X013665Y013433D01*
X014502Y012323D02*
X016378Y012323D01*
X010812Y009629D02*
X010745Y009629D01*
X008259Y009787D02*
X008230Y009787D01*
X005399Y011531D02*
X002093Y011531D01*
X002103Y011531D02*
X000480Y011531D01*
X000480Y011689D02*
X002108Y011689D01*
X002093Y011689D02*
X005399Y011689D01*
X005399Y011848D02*
X002093Y011848D01*
X002112Y011848D02*
X000480Y011848D01*
X000480Y012006D02*
X002117Y012006D01*
X002093Y012006D02*
X005399Y012006D01*
X002808Y013591D02*
X002808Y013591D01*
X002808Y013750D02*
X002808Y013750D01*
X002433Y013750D02*
X002093Y013750D01*
X002122Y013591D02*
X002357Y013591D01*
X002344Y013433D02*
X002188Y013433D01*
X002253Y013274D02*
X002389Y013274D01*
X002512Y013116D02*
X002253Y013116D01*
X002253Y012957D02*
X002477Y012957D01*
X002394Y012799D02*
X002205Y012799D01*
X002140Y012640D02*
X002383Y012640D01*
X002433Y012482D02*
X002093Y012482D01*
X002131Y012482D02*
X002017Y012482D01*
X002093Y012323D02*
X002577Y012323D01*
X002126Y012323D02*
X001859Y012323D01*
X000827Y012323D02*
X000572Y012579D01*
X000480Y012800D01*
X000480Y009231D01*
X000577Y009328D01*
X000787Y009414D01*
X001013Y009414D01*
X001223Y009328D01*
X001383Y009167D01*
X001470Y008958D01*
X001470Y008731D01*
X001383Y008522D01*
X001223Y008361D01*
X001182Y008344D01*
X001223Y008328D01*
X001383Y008167D01*
X001470Y007958D01*
X001470Y007731D01*
X001383Y007522D01*
X001223Y007361D01*
X001013Y007274D01*
X000787Y007274D01*
X000577Y007361D01*
X000480Y007458D01*
X000480Y007410D02*
X000528Y007410D01*
X000480Y007251D02*
X001978Y007251D01*
X001973Y007093D02*
X000480Y007093D01*
X000480Y006934D02*
X001969Y006934D01*
X001964Y006776D02*
X000480Y006776D01*
X000480Y006617D02*
X001959Y006617D01*
X001955Y006459D02*
X000480Y006459D01*
X000480Y006300D02*
X001950Y006300D01*
X001945Y006142D02*
X000480Y006142D01*
X000480Y005983D02*
X001941Y005983D01*
X001936Y005825D02*
X000480Y005825D01*
X000480Y005666D02*
X001931Y005666D01*
X001927Y005508D02*
X000480Y005508D01*
X000480Y005349D02*
X001922Y005349D01*
X001917Y005191D02*
X000480Y005191D01*
X000480Y005032D02*
X001913Y005032D01*
X001908Y004874D02*
X000480Y004874D01*
X000480Y004715D02*
X001904Y004715D01*
X001899Y004557D02*
X000480Y004557D01*
X000480Y004398D02*
X001894Y004398D01*
X001890Y004240D02*
X000480Y004240D01*
X000480Y004081D02*
X001885Y004081D01*
X001880Y003923D02*
X000480Y003923D01*
X000480Y003764D02*
X001876Y003764D01*
X001871Y003606D02*
X000480Y003606D01*
X000480Y003447D02*
X001866Y003447D01*
X001862Y003289D02*
X000480Y003289D01*
X000480Y003130D02*
X001048Y003130D01*
X000760Y002972D02*
X000480Y002972D01*
X000480Y002813D02*
X000602Y002813D01*
X000518Y002655D02*
X000480Y002655D01*
X001638Y003130D02*
X001857Y003130D01*
X001982Y007410D02*
X001272Y007410D01*
X001403Y007568D02*
X001987Y007568D01*
X001992Y007727D02*
X001468Y007727D01*
X001470Y007885D02*
X001996Y007885D01*
X002001Y008044D02*
X001434Y008044D01*
X001348Y008202D02*
X002006Y008202D01*
X002010Y008361D02*
X001222Y008361D01*
X001381Y008519D02*
X002015Y008519D01*
X002020Y008678D02*
X001448Y008678D01*
X001470Y008836D02*
X002024Y008836D01*
X002029Y008995D02*
X001455Y008995D01*
X001389Y009153D02*
X002033Y009153D01*
X002038Y009312D02*
X001239Y009312D01*
X001658Y009246D02*
X001658Y007844D01*
X000900Y007844D01*
X000561Y009312D02*
X000480Y009312D01*
X000480Y009470D02*
X002043Y009470D01*
X002047Y009629D02*
X000480Y009629D01*
X000480Y009787D02*
X002052Y009787D01*
X002057Y009946D02*
X000480Y009946D01*
X000480Y010104D02*
X002061Y010104D01*
X002066Y010263D02*
X000480Y010263D01*
X000480Y010421D02*
X002071Y010421D01*
X002075Y010580D02*
X000480Y010580D01*
X000480Y010738D02*
X002080Y010738D01*
X002085Y010897D02*
X000480Y010897D01*
X000480Y011055D02*
X002089Y011055D01*
X002094Y011214D02*
X000480Y011214D01*
X000480Y011372D02*
X002098Y011372D01*
X000669Y012482D02*
X000480Y012482D01*
X000480Y012640D02*
X000546Y012640D01*
X000480Y012799D02*
X000480Y012799D01*
X008230Y006300D02*
X008503Y006300D01*
X008344Y006142D02*
X008230Y006142D01*
X008723Y005983D02*
X008973Y005983D01*
X009110Y005825D02*
X009132Y005825D01*
X009161Y005666D02*
X009290Y005666D01*
X009136Y005508D02*
X009449Y005508D01*
X009605Y005349D02*
X009015Y005349D01*
X008630Y005349D02*
X008504Y005349D01*
X008346Y005191D02*
X011837Y005191D01*
X011930Y005349D02*
X009990Y005349D01*
X010800Y006864D02*
X008719Y006714D01*
X008230Y002813D02*
X011528Y002813D01*
X011481Y002386D02*
X011482Y002384D01*
X011577Y002289D01*
X011701Y002237D01*
X011836Y002237D01*
X011851Y002244D01*
X011411Y001777D01*
X011361Y001757D01*
X011320Y001757D01*
X011291Y001729D01*
X011254Y001713D01*
X011238Y001675D01*
X010950Y001387D01*
X008894Y001387D01*
X008924Y001357D02*
X008829Y001452D01*
X008705Y001504D01*
X008570Y001504D01*
X008449Y001453D01*
X008449Y001583D01*
X008397Y001707D01*
X008302Y001802D01*
X008230Y001832D01*
X008230Y002386D01*
X011481Y002386D01*
X011528Y002338D02*
X008230Y002338D01*
X008230Y002179D02*
X011790Y002179D01*
X011641Y002021D02*
X008230Y002021D01*
X008230Y001862D02*
X011491Y001862D01*
X011250Y001704D02*
X008398Y001704D01*
X008449Y001545D02*
X011108Y001545D01*
X010950Y001387D02*
X010950Y000975D01*
X010935Y000950D01*
X010943Y000924D01*
X008940Y000924D01*
X008940Y000964D01*
X008926Y000978D01*
X008976Y001098D01*
X008976Y001233D01*
X008924Y001357D01*
X008976Y001228D02*
X010950Y001228D01*
X010950Y001070D02*
X008964Y001070D01*
X014940Y006617D02*
X014940Y006617D01*
X014940Y006776D02*
X014940Y006776D01*
X014940Y006934D02*
X014940Y006934D01*
X014940Y007093D02*
X014940Y007093D01*
X014940Y007251D02*
X014940Y007251D01*
X014940Y007410D02*
X014940Y007410D01*
D17*
X013948Y007199D03*
X013914Y008864D03*
X011914Y007648D03*
X010798Y008096D03*
X010649Y007566D03*
X011002Y008703D03*
X010508Y009387D03*
X008930Y008424D03*
X008397Y009478D03*
X008380Y010524D03*
X010269Y011043D03*
X007580Y012724D03*
X005589Y012932D03*
X010458Y014002D03*
X015464Y012875D03*
X008719Y006714D03*
X008121Y006274D03*
X008822Y005635D03*
X009798Y005635D03*
X010391Y004916D03*
X012169Y005110D03*
X013729Y005375D03*
X013891Y003605D03*
X015569Y002232D03*
X011989Y001177D03*
X011323Y001901D03*
X011769Y002576D03*
X010669Y003232D03*
X009969Y002932D03*
X009901Y001804D03*
X008637Y001166D03*
X008110Y001516D03*
X008262Y002980D03*
X007847Y003291D03*
X006919Y006614D03*
X006350Y006694D03*
X006646Y007711D03*
X004200Y006644D03*
X003050Y005144D03*
X001658Y009246D03*
D18*
X003050Y007244D02*
X005400Y009594D01*
X006250Y009444D02*
X006400Y009594D01*
X006250Y009444D02*
X006250Y007444D01*
X006919Y006775D01*
X006919Y006614D01*
X007003Y006614D01*
X007586Y007196D01*
X013945Y007196D01*
X013948Y007199D01*
X012003Y008178D02*
X012003Y012045D01*
X012000Y012047D01*
X011002Y012045D02*
X011000Y012047D01*
X011002Y012045D02*
X011002Y008703D01*
X010798Y008096D02*
X011920Y008096D01*
X012003Y008178D01*
X010649Y007566D02*
X010550Y007466D01*
X008240Y007466D01*
X007995Y007711D01*
X006646Y007711D01*
X006350Y006694D02*
X004250Y006694D01*
X004200Y006644D01*
X003050Y007244D02*
X003050Y005144D01*
X007069Y004598D02*
X007069Y001922D01*
X007597Y001394D01*
X007100Y001394D01*
X007597Y001394D02*
X008107Y000885D01*
X008750Y000885D01*
X008637Y001166D01*
X008110Y001516D02*
X007609Y002067D01*
X007474Y002067D01*
X007474Y004588D01*
X008521Y005635D01*
X008822Y005635D01*
X008698Y006227D02*
X007069Y004598D01*
X007847Y003291D02*
X007847Y002804D01*
X008076Y002576D01*
X011769Y002576D01*
X012364Y002510D02*
X012364Y004916D01*
X012169Y005110D01*
X013729Y005375D02*
X014360Y004744D01*
X014360Y002073D01*
X014455Y001977D01*
X014974Y001977D01*
X015826Y001125D01*
X015826Y001125D01*
X012826Y001125D02*
X012491Y001125D01*
X012162Y000846D01*
X011161Y000846D01*
X011140Y000924D01*
X011140Y001308D01*
X011399Y001567D01*
X011521Y001617D01*
X012364Y002510D01*
X011989Y001653D02*
X013891Y003605D01*
X011989Y001653D02*
X011989Y001177D01*
X009798Y005635D02*
X009590Y005635D01*
X008999Y006227D01*
X008698Y006227D01*
X008570Y008424D02*
X008100Y008894D01*
X008100Y009194D01*
X008050Y009244D01*
X008050Y009894D01*
X008100Y009944D01*
X008100Y010245D01*
X008380Y010524D01*
X008397Y009478D02*
X008488Y009387D01*
X010508Y009387D01*
X008930Y008424D02*
X008570Y008424D01*
X010240Y011014D02*
X006090Y011014D01*
X005589Y011515D01*
X005589Y012932D01*
X010240Y011014D02*
X010269Y011043D01*
D19*
X023750Y005744D03*
M02*
