G75*
G70*
%OFA0B0*%
%FSLAX24Y24*%
%IPPOS*%
%LPD*%
%AMOC8*
5,1,8,0,0,1.08239X$1,22.5*
%
%ADD10C,0.1320*%
%ADD11R,0.0690X0.0178*%
%ADD12R,0.0178X0.0690*%
%ADD13R,0.0277X0.0532*%
%ADD14C,0.0630*%
%ADD15R,0.0493X0.0454*%
%ADD16R,0.0177X0.0395*%
%ADD17R,0.1005X0.0710*%
%ADD18R,0.0336X0.0170*%
%ADD19R,0.0572X0.0572*%
%ADD20R,0.0118X0.0315*%
%ADD21R,0.0740X0.0681*%
%ADD22R,0.0454X0.0493*%
%ADD23R,0.0532X0.0277*%
%ADD24R,0.0611X0.0690*%
%ADD25OC8,0.0800*%
%ADD26R,0.0532X0.0257*%
%ADD27R,0.0257X0.0532*%
%ADD28R,0.0800X0.0800*%
%ADD29C,0.0800*%
%ADD30R,0.0808X0.0493*%
%ADD31R,0.0690X0.0375*%
%ADD32R,0.0375X0.0690*%
%ADD33R,0.0375X0.0375*%
%ADD34C,0.0720*%
%ADD35R,0.0788X0.0493*%
%ADD36R,0.0808X0.0847*%
%ADD37C,0.0355*%
%ADD38C,0.0473*%
%ADD39C,0.0585*%
%ADD40C,0.0640*%
%ADD41C,0.0456*%
%ADD42R,0.0456X0.0456*%
D10*
X001343Y002268D03*
X001343Y013094D03*
X016894Y013094D03*
X016894Y002268D03*
D11*
X014654Y003356D03*
X014654Y003553D03*
X014654Y003749D03*
X014654Y003946D03*
X014654Y004143D03*
X014654Y004340D03*
X014654Y004537D03*
X014654Y004734D03*
X014654Y004931D03*
X014654Y005127D03*
X014654Y005324D03*
X014654Y005521D03*
X011426Y005521D03*
X011426Y005324D03*
X011426Y005127D03*
X011426Y004931D03*
X011426Y004734D03*
X011426Y004537D03*
X011426Y004340D03*
X011426Y004143D03*
X011426Y003946D03*
X011426Y003749D03*
X011426Y003553D03*
X011426Y003356D03*
D12*
X011957Y002824D03*
X012154Y002824D03*
X012351Y002824D03*
X012548Y002824D03*
X012745Y002824D03*
X012941Y002824D03*
X013138Y002824D03*
X013335Y002824D03*
X013532Y002824D03*
X013729Y002824D03*
X013926Y002824D03*
X014123Y002824D03*
X014123Y006053D03*
X013926Y006053D03*
X013729Y006053D03*
X013532Y006053D03*
X013335Y006053D03*
X013138Y006053D03*
X012941Y006053D03*
X012745Y006053D03*
X012548Y006053D03*
X012351Y006053D03*
X012154Y006053D03*
X011957Y006053D03*
D13*
X001652Y011068D03*
X000904Y011068D03*
X000904Y012092D03*
X001278Y012092D03*
X001652Y012092D03*
D14*
X002808Y012688D03*
X002808Y013475D03*
D15*
X005725Y012568D03*
X005953Y013107D03*
X006622Y013107D03*
X006395Y012568D03*
X006425Y011990D03*
X005755Y011990D03*
X009102Y010678D03*
X009122Y011197D03*
X009791Y011197D03*
X009772Y010678D03*
X009501Y009918D03*
X008832Y009918D03*
X010127Y009886D03*
X010796Y009886D03*
X011870Y010687D03*
X011858Y011194D03*
X012528Y011194D03*
X012539Y010687D03*
X013273Y011119D03*
X013942Y011119D03*
X013641Y010517D03*
X014310Y010517D03*
X014293Y009768D03*
X013624Y009768D03*
X014051Y008120D03*
X014720Y008120D03*
X012800Y007534D03*
X012131Y007534D03*
X009322Y006234D03*
X008653Y006234D03*
X015237Y002743D03*
X015906Y002743D03*
X016796Y003403D03*
X017466Y003403D03*
X018865Y004344D03*
X019535Y004344D03*
X019535Y005344D03*
X018865Y005344D03*
X018865Y006344D03*
X019535Y006344D03*
X019535Y007344D03*
X018865Y007344D03*
X018865Y009344D03*
X019535Y009344D03*
X016135Y010694D03*
X015465Y010694D03*
X013204Y013903D03*
X012534Y013903D03*
X011913Y013893D03*
X011244Y013893D03*
X009967Y013929D03*
X009298Y013929D03*
X001713Y009941D03*
X001251Y010399D03*
X001043Y009941D03*
X000582Y010399D03*
D16*
X008218Y011901D03*
X008415Y011901D03*
X008612Y011901D03*
X008808Y011901D03*
X009005Y011901D03*
X009005Y013062D03*
X008808Y013062D03*
X008612Y013062D03*
X008415Y013062D03*
X008218Y013062D03*
D17*
X008612Y012481D03*
D18*
X008021Y012383D03*
X008021Y012580D03*
X009202Y012580D03*
X009202Y012383D03*
D19*
X007706Y013990D03*
X006525Y013990D03*
D20*
X008636Y009014D03*
X008833Y009014D03*
X009030Y009014D03*
X009227Y009014D03*
X009227Y009014D03*
X009227Y007911D03*
X009030Y007911D03*
X008833Y007911D03*
X008636Y007911D03*
D21*
X008932Y008462D03*
D22*
X008678Y007437D03*
X008678Y006768D03*
X010271Y006860D03*
X010271Y006191D03*
X009986Y008158D03*
X009986Y008827D03*
X010678Y003988D03*
X010678Y003319D03*
X011292Y002984D03*
X011292Y002315D03*
X008365Y002059D03*
X008365Y002728D03*
X002017Y003369D03*
X001459Y003325D03*
X000871Y003320D03*
X000871Y003990D03*
X001459Y003994D03*
X002017Y004038D03*
D23*
X011728Y009225D03*
X011728Y009973D03*
X012752Y009973D03*
X012752Y009599D03*
X012752Y009225D03*
D24*
X012932Y008462D03*
X011830Y008462D03*
D25*
X012000Y012047D03*
X013000Y012047D03*
X013000Y013047D03*
X012000Y013047D03*
X011000Y013047D03*
X010000Y013047D03*
X010000Y012047D03*
X011000Y012047D03*
X014000Y012047D03*
X014000Y013047D03*
D26*
X009484Y004982D03*
X009484Y004667D03*
X009484Y004352D03*
X009484Y004037D03*
X009484Y003723D03*
X009484Y003408D03*
X008618Y003408D03*
X008618Y003723D03*
X008618Y004037D03*
X008618Y004352D03*
X008618Y004667D03*
X008618Y004982D03*
D27*
X009051Y005022D03*
X009051Y003368D03*
D28*
X012826Y001125D03*
X006400Y009594D03*
D29*
X005400Y009594D03*
X004400Y009594D03*
X003400Y009594D03*
X013826Y001125D03*
X014826Y001125D03*
X015826Y001125D03*
X017400Y004344D03*
X017400Y005344D03*
X017400Y006344D03*
X017400Y007344D03*
X017400Y008344D03*
X017400Y009344D03*
X017400Y010344D03*
X020400Y010344D03*
X020400Y009344D03*
X020400Y008344D03*
X020400Y007344D03*
X020400Y006344D03*
X020400Y005344D03*
X020400Y004344D03*
D30*
X010635Y002743D03*
X010635Y001838D03*
X009178Y001838D03*
X009178Y002743D03*
D31*
X007548Y005096D03*
X007548Y005568D03*
X007548Y006041D03*
X007548Y006513D03*
X007548Y006986D03*
X007548Y007458D03*
X007548Y007931D03*
X007548Y008403D03*
X007548Y008876D03*
X007548Y009348D03*
X007548Y009820D03*
X007548Y010293D03*
X002352Y010293D03*
X002352Y009820D03*
X002352Y009348D03*
X002352Y008876D03*
X002352Y008403D03*
X002352Y007931D03*
X002352Y007458D03*
X002352Y006986D03*
X002352Y006513D03*
X002352Y006041D03*
X002352Y005568D03*
X002352Y005096D03*
D32*
X003060Y003994D03*
X003690Y003994D03*
X004320Y003994D03*
X004202Y011395D03*
X004674Y011395D03*
X005226Y011395D03*
X005698Y011395D03*
X006170Y011395D03*
X006573Y011395D03*
X003730Y011395D03*
X003327Y011395D03*
D33*
X001474Y005382D03*
X000867Y005393D03*
X000867Y004803D03*
X001474Y004791D03*
X015828Y004095D03*
X016332Y003831D03*
X016332Y004421D03*
X015828Y003504D03*
X015850Y009449D03*
X015850Y010040D03*
D34*
X014940Y007019D03*
X015471Y006484D03*
D35*
G36*
X022237Y005220D02*
X021681Y004664D01*
X021333Y005012D01*
X021889Y005568D01*
X022237Y005220D01*
G37*
G36*
X022626Y004830D02*
X022070Y004274D01*
X021722Y004622D01*
X022278Y005178D01*
X022626Y004830D01*
G37*
G36*
X023016Y004440D02*
X022460Y003884D01*
X022112Y004232D01*
X022668Y004788D01*
X023016Y004440D01*
G37*
G36*
X024867Y006291D02*
X024311Y005735D01*
X023963Y006083D01*
X024519Y006639D01*
X024867Y006291D01*
G37*
G36*
X024478Y006681D02*
X023922Y006125D01*
X023574Y006473D01*
X024130Y007029D01*
X024478Y006681D01*
G37*
G36*
X024088Y007071D02*
X023532Y006515D01*
X023184Y006863D01*
X023740Y007419D01*
X024088Y007071D01*
G37*
D36*
G36*
X022534Y006788D02*
X021963Y006217D01*
X021366Y006814D01*
X021937Y007385D01*
X022534Y006788D01*
G37*
G36*
X024834Y004489D02*
X024263Y003918D01*
X023666Y004515D01*
X024237Y005086D01*
X024834Y004489D01*
G37*
D37*
X022571Y006180D03*
D38*
X023629Y005123D03*
D39*
X007100Y001394D03*
X006100Y001394D03*
X000900Y007844D03*
X000900Y008844D03*
D40*
X000900Y008844D03*
X000900Y007844D03*
X006100Y001394D03*
X007100Y001394D03*
D41*
X008110Y001516D03*
X008637Y001166D03*
X009901Y001804D03*
X009969Y002932D03*
X010669Y003232D03*
X011769Y002576D03*
X011323Y001901D03*
X011989Y001177D03*
X013891Y003605D03*
X013729Y005375D03*
X012169Y005110D03*
X010391Y004916D03*
X009798Y005635D03*
X008822Y005635D03*
X008121Y006274D03*
X008719Y006714D03*
X010649Y007566D03*
X010798Y008096D03*
X011002Y008703D03*
X010508Y009387D03*
X008930Y008424D03*
X008397Y009478D03*
X008380Y010524D03*
X010269Y011043D03*
X007580Y012724D03*
X005589Y012932D03*
X010458Y014002D03*
X015464Y012875D03*
X013914Y008864D03*
X013948Y007199D03*
X011914Y007648D03*
X006919Y006614D03*
X006350Y006694D03*
X006646Y007711D03*
X004200Y006644D03*
X003050Y005144D03*
X007847Y003291D03*
X008262Y002980D03*
X015569Y002232D03*
X001658Y009246D03*
D42*
X023750Y005744D03*
M02*
