G75*
G70*
%OFA0B0*%
%FSLAX24Y24*%
%IPPOS*%
%LPD*%
%AMOC8*
5,1,8,0,0,1.08239X$1,22.5*
%
%ADD10C,0.0360*%
%ADD11C,0.0570*%
%ADD12OC8,0.0740*%
%ADD13R,0.0740X0.0740*%
%ADD14C,0.0740*%
%ADD15C,0.0660*%
%ADD16C,0.0525*%
%ADD17C,0.0160*%
%ADD18C,0.0396*%
%ADD19C,0.0100*%
%ADD20R,0.0396X0.0396*%
D10*
X001070Y007590D03*
X000952Y008101D03*
X001070Y008613D03*
X001680Y008357D03*
X001680Y007845D03*
D11*
X002869Y012688D03*
X002869Y013475D03*
D12*
X010061Y013047D03*
X011061Y013047D03*
X011061Y012047D03*
X010061Y012047D03*
X012061Y012047D03*
X013061Y012047D03*
X013061Y013047D03*
X012061Y013047D03*
X014061Y013047D03*
X014061Y012047D03*
D13*
X006461Y009594D03*
X012888Y001125D03*
D14*
X013888Y001125D03*
X014888Y001125D03*
X015888Y001125D03*
X017461Y004344D03*
X017461Y005344D03*
X017461Y006344D03*
X017461Y007344D03*
X017461Y008344D03*
X017461Y009344D03*
X017461Y010344D03*
X020461Y010344D03*
X020461Y009344D03*
X020461Y008344D03*
X020461Y007344D03*
X020461Y006344D03*
X020461Y005344D03*
X020461Y004344D03*
X005461Y009594D03*
X004461Y009594D03*
X003461Y009594D03*
D15*
X015001Y007019D03*
X015532Y006484D03*
D16*
X007161Y001394D03*
X006161Y001394D03*
D17*
X000541Y002562D02*
X000541Y012800D01*
X000633Y012579D01*
X000889Y012323D01*
X001223Y012184D01*
X001585Y012184D01*
X001919Y012323D01*
X002175Y012579D01*
X002196Y012630D01*
X001916Y003041D01*
X001585Y003178D01*
X001223Y003178D01*
X000889Y003039D01*
X000633Y002783D01*
X000541Y002562D01*
X000541Y002655D02*
X000580Y002655D01*
X000541Y002813D02*
X000663Y002813D01*
X000541Y002972D02*
X000821Y002972D01*
X000541Y003130D02*
X001109Y003130D01*
X000541Y003289D02*
X001923Y003289D01*
X001927Y003447D02*
X000541Y003447D01*
X000541Y003606D02*
X001932Y003606D01*
X001937Y003764D02*
X000541Y003764D01*
X000541Y003923D02*
X001941Y003923D01*
X001946Y004081D02*
X000541Y004081D01*
X000541Y004240D02*
X001951Y004240D01*
X001955Y004398D02*
X000541Y004398D01*
X000541Y004557D02*
X001960Y004557D01*
X001965Y004715D02*
X000541Y004715D01*
X000541Y004874D02*
X001969Y004874D01*
X001974Y005032D02*
X000541Y005032D01*
X000541Y005191D02*
X001979Y005191D01*
X001983Y005349D02*
X000541Y005349D01*
X000541Y005508D02*
X001988Y005508D01*
X001992Y005666D02*
X000541Y005666D01*
X000541Y005825D02*
X001997Y005825D01*
X002002Y005983D02*
X000541Y005983D01*
X000541Y006142D02*
X002006Y006142D01*
X002011Y006300D02*
X000541Y006300D01*
X000541Y006459D02*
X002016Y006459D01*
X002020Y006617D02*
X000541Y006617D01*
X000541Y006776D02*
X002025Y006776D01*
X002030Y006934D02*
X000541Y006934D01*
X000541Y007093D02*
X002034Y007093D01*
X002039Y007251D02*
X001194Y007251D01*
X001175Y007243D02*
X001240Y007270D01*
X001299Y007310D01*
X001350Y007360D01*
X001389Y007419D01*
X001416Y007484D01*
X001430Y007554D01*
X001430Y007590D01*
X001430Y007625D01*
X001425Y007648D01*
X001499Y007574D01*
X001616Y007525D01*
X001744Y007525D01*
X001861Y007574D01*
X001951Y007664D01*
X002000Y007782D01*
X002000Y007909D01*
X001951Y008027D01*
X001877Y008101D01*
X001951Y008176D01*
X002000Y008294D01*
X002000Y008421D01*
X001951Y008538D01*
X001861Y008629D01*
X001744Y008677D01*
X001616Y008677D01*
X001499Y008629D01*
X001409Y008538D01*
X001360Y008421D01*
X001360Y008294D01*
X001409Y008176D01*
X001483Y008101D01*
X001409Y008027D01*
X001360Y007909D01*
X001360Y007803D01*
X001350Y007819D01*
X001299Y007869D01*
X001240Y007909D01*
X001220Y007917D01*
X001223Y007920D01*
X001272Y008038D01*
X001272Y008165D01*
X001223Y008283D01*
X001189Y008316D01*
X001251Y008342D01*
X001341Y008432D01*
X001390Y008549D01*
X001390Y008677D01*
X001341Y008794D01*
X001251Y008884D01*
X001134Y008933D01*
X001006Y008933D01*
X000889Y008884D01*
X000799Y008794D01*
X000750Y008677D01*
X000750Y008549D01*
X000799Y008432D01*
X000832Y008398D01*
X000771Y008373D01*
X000680Y008283D01*
X000632Y008165D01*
X000632Y008038D01*
X000680Y007920D01*
X000771Y007830D01*
X000792Y007821D01*
X000790Y007819D01*
X000751Y007760D01*
X000724Y007695D01*
X000710Y007625D01*
X000710Y007590D01*
X001070Y007590D01*
X001430Y007590D01*
X001070Y007590D01*
X001070Y007590D01*
X001070Y007590D01*
X000710Y007590D01*
X000710Y007554D01*
X000724Y007484D01*
X000751Y007419D01*
X000790Y007360D01*
X000840Y007310D01*
X000899Y007270D01*
X000965Y007243D01*
X001034Y007230D01*
X001070Y007230D01*
X001105Y007230D01*
X001175Y007243D01*
X001070Y007251D02*
X001070Y007251D01*
X001070Y007230D02*
X001070Y007589D01*
X001070Y007589D01*
X001070Y007230D01*
X000945Y007251D02*
X000541Y007251D01*
X000541Y007410D02*
X000757Y007410D01*
X000710Y007568D02*
X000541Y007568D01*
X000541Y007727D02*
X000737Y007727D01*
X000715Y007885D02*
X000541Y007885D01*
X000541Y008044D02*
X000632Y008044D01*
X000647Y008202D02*
X000541Y008202D01*
X000541Y008361D02*
X000759Y008361D01*
X000762Y008519D02*
X000541Y008519D01*
X000541Y008678D02*
X000750Y008678D01*
X000841Y008836D02*
X000541Y008836D01*
X000541Y008995D02*
X002090Y008995D01*
X002095Y009153D02*
X000541Y009153D01*
X000541Y009312D02*
X002099Y009312D01*
X002104Y009470D02*
X000541Y009470D01*
X000541Y009629D02*
X002109Y009629D01*
X002113Y009787D02*
X000541Y009787D01*
X000541Y009946D02*
X002118Y009946D01*
X002122Y010104D02*
X000541Y010104D01*
X000541Y010263D02*
X002127Y010263D01*
X002132Y010421D02*
X000541Y010421D01*
X000541Y010580D02*
X002136Y010580D01*
X002141Y010738D02*
X000541Y010738D01*
X000541Y010897D02*
X002146Y010897D01*
X002150Y011055D02*
X000541Y011055D01*
X000541Y011214D02*
X002155Y011214D01*
X002160Y011372D02*
X000541Y011372D01*
X000541Y011531D02*
X002164Y011531D01*
X002154Y011531D02*
X005460Y011531D01*
X005460Y011442D02*
X002154Y011442D01*
X002154Y012558D01*
X002175Y012579D01*
X002314Y012913D01*
X002314Y013275D01*
X002175Y013610D01*
X002154Y013631D01*
X002154Y014467D01*
X017946Y014467D01*
X017946Y011442D01*
X012254Y011442D01*
X012254Y011537D01*
X012273Y011537D01*
X012561Y011826D01*
X012850Y011537D01*
X013273Y011537D01*
X013533Y011798D01*
X013834Y011497D01*
X014041Y011497D01*
X014041Y012027D01*
X014081Y012027D01*
X014081Y011497D01*
X014289Y011497D01*
X014611Y011819D01*
X014611Y012027D01*
X014081Y012027D01*
X014081Y012067D01*
X014611Y012067D01*
X014611Y012275D01*
X014311Y012575D01*
X014571Y012836D01*
X014571Y013258D01*
X014273Y013557D01*
X013850Y013557D01*
X013590Y013297D01*
X013289Y013597D01*
X013081Y013597D01*
X013081Y013067D01*
X013041Y013067D01*
X013041Y013597D01*
X012834Y013597D01*
X012533Y013297D01*
X012273Y013557D01*
X011850Y013557D01*
X011561Y013268D01*
X011273Y013557D01*
X010850Y013557D01*
X010561Y013268D01*
X010273Y013557D01*
X009850Y013557D01*
X009551Y013258D01*
X009551Y012836D01*
X009840Y012547D01*
X009551Y012258D01*
X009551Y011836D01*
X009850Y011537D01*
X010273Y011537D01*
X010561Y011826D01*
X010850Y011537D01*
X010873Y011537D01*
X010873Y011442D01*
X005992Y011442D01*
X005840Y011594D01*
X005840Y012645D01*
X005841Y012646D01*
X005937Y012741D01*
X005988Y012865D01*
X005988Y013000D01*
X005937Y013124D01*
X005841Y013219D01*
X005717Y013271D01*
X005583Y013271D01*
X005458Y013219D01*
X005363Y013124D01*
X005312Y013000D01*
X005312Y012865D01*
X005363Y012741D01*
X005458Y012646D01*
X005460Y012645D01*
X005460Y011442D01*
X005460Y011689D02*
X002154Y011689D01*
X002169Y011689D02*
X000541Y011689D01*
X000541Y011848D02*
X002173Y011848D01*
X002154Y011848D02*
X005460Y011848D01*
X005460Y012006D02*
X002154Y012006D01*
X002178Y012006D02*
X000541Y012006D01*
X000541Y012165D02*
X002183Y012165D01*
X002154Y012165D02*
X005460Y012165D01*
X005460Y012323D02*
X003100Y012323D01*
X003110Y012328D02*
X003230Y012447D01*
X003294Y012603D01*
X003294Y012772D01*
X003230Y012929D01*
X003110Y013048D01*
X003080Y013061D01*
X003113Y013078D01*
X003172Y013121D01*
X003224Y013172D01*
X003267Y013232D01*
X003300Y013297D01*
X003323Y013366D01*
X003334Y013439D01*
X003334Y013475D01*
X002869Y013475D01*
X002404Y013475D01*
X002404Y013439D01*
X002416Y013366D01*
X002438Y013297D01*
X002472Y013232D01*
X002515Y013172D01*
X002566Y013121D01*
X002626Y013078D01*
X002659Y013061D01*
X002629Y013048D01*
X002509Y012929D01*
X002444Y012772D01*
X002444Y012603D01*
X002509Y012447D01*
X002629Y012328D01*
X002785Y012263D01*
X002954Y012263D01*
X003110Y012328D01*
X003244Y012482D02*
X005460Y012482D01*
X005460Y012640D02*
X003294Y012640D01*
X003283Y012799D02*
X005339Y012799D01*
X005312Y012957D02*
X003201Y012957D01*
X003166Y013116D02*
X005360Y013116D01*
X005940Y013116D02*
X009551Y013116D01*
X009551Y012957D02*
X005988Y012957D01*
X005961Y012799D02*
X009588Y012799D01*
X009747Y012640D02*
X005840Y012640D01*
X005840Y012482D02*
X009775Y012482D01*
X009617Y012323D02*
X005840Y012323D01*
X005840Y012165D02*
X009551Y012165D01*
X009551Y012006D02*
X005840Y012006D01*
X005840Y011848D02*
X009551Y011848D01*
X009698Y011689D02*
X005840Y011689D01*
X005903Y011531D02*
X010873Y011531D01*
X010873Y011340D02*
X010873Y009537D01*
X010856Y009579D01*
X010761Y009674D01*
X010637Y009725D01*
X010502Y009725D01*
X010378Y009674D01*
X010283Y009579D01*
X010282Y009577D01*
X008783Y009577D01*
X008745Y009670D01*
X008649Y009765D01*
X008525Y009817D01*
X008391Y009817D01*
X008291Y009775D01*
X008291Y010824D01*
X010071Y010824D01*
X010139Y010756D01*
X010263Y010705D01*
X010397Y010705D01*
X010522Y010756D01*
X010617Y010852D01*
X010668Y010976D01*
X010668Y011110D01*
X010617Y011235D01*
X010522Y011330D01*
X010498Y011340D01*
X010873Y011340D01*
X010873Y011214D02*
X010625Y011214D01*
X010668Y011055D02*
X010873Y011055D01*
X010873Y010897D02*
X010636Y010897D01*
X010478Y010738D02*
X010873Y010738D01*
X010873Y010580D02*
X008291Y010580D01*
X008291Y010738D02*
X010182Y010738D01*
X010873Y010421D02*
X008291Y010421D01*
X008291Y010263D02*
X010873Y010263D01*
X010873Y010104D02*
X008291Y010104D01*
X008291Y009946D02*
X010873Y009946D01*
X010873Y009787D02*
X008595Y009787D01*
X008762Y009629D02*
X010333Y009629D01*
X010282Y009197D02*
X010283Y009196D01*
X010378Y009101D01*
X010502Y009049D01*
X010637Y009049D01*
X010761Y009101D01*
X010856Y009196D01*
X010873Y009237D01*
X010873Y008990D01*
X010872Y008990D01*
X010777Y008895D01*
X010725Y008770D01*
X010725Y008636D01*
X010777Y008512D01*
X010854Y008434D01*
X010792Y008434D01*
X010668Y008382D01*
X010573Y008287D01*
X010521Y008163D01*
X010521Y008028D01*
X010573Y007904D01*
X010593Y007883D01*
X010519Y007852D01*
X010423Y007757D01*
X010382Y007656D01*
X008379Y007656D01*
X008291Y007745D01*
X008291Y009182D01*
X008391Y009140D01*
X008525Y009140D01*
X008649Y009192D01*
X008655Y009197D01*
X010282Y009197D01*
X010325Y009153D02*
X008557Y009153D01*
X008359Y009153D02*
X008291Y009153D01*
X008291Y008995D02*
X010873Y008995D01*
X010873Y009153D02*
X010814Y009153D01*
X010752Y008836D02*
X008291Y008836D01*
X008291Y008678D02*
X010725Y008678D01*
X010773Y008519D02*
X008291Y008519D01*
X008291Y008361D02*
X010646Y008361D01*
X010537Y008202D02*
X008291Y008202D01*
X008291Y008044D02*
X010521Y008044D01*
X010591Y007885D02*
X008291Y007885D01*
X008309Y007727D02*
X010411Y007727D01*
X010976Y007778D02*
X011051Y007809D01*
X011146Y007904D01*
X011146Y007906D01*
X012060Y007906D01*
X012143Y007988D01*
X012254Y008100D01*
X012254Y011340D01*
X018069Y011340D01*
X018069Y010564D01*
X017922Y010564D01*
X017893Y010633D01*
X017750Y010777D01*
X017563Y010854D01*
X017360Y010854D01*
X017172Y010777D01*
X017029Y010633D01*
X016951Y010446D01*
X016951Y010243D01*
X017029Y010056D01*
X017172Y009912D01*
X017336Y009844D01*
X017172Y009777D01*
X017029Y009633D01*
X016951Y009446D01*
X016951Y009243D01*
X017029Y009056D01*
X017172Y008912D01*
X017285Y008865D01*
X017250Y008854D01*
X017173Y008815D01*
X017103Y008764D01*
X017042Y008703D01*
X016991Y008633D01*
X016951Y008556D01*
X016925Y008473D01*
X016911Y008388D01*
X016911Y008364D01*
X017441Y008364D01*
X017441Y008324D01*
X016911Y008324D01*
X016911Y008301D01*
X016925Y008216D01*
X016951Y008133D01*
X016991Y008056D01*
X017042Y007986D01*
X017103Y007925D01*
X017173Y007874D01*
X017250Y007835D01*
X017285Y007823D01*
X017172Y007777D01*
X017029Y007633D01*
X016951Y007446D01*
X016951Y007243D01*
X017029Y007056D01*
X017172Y006912D01*
X017336Y006844D01*
X017172Y006777D01*
X017029Y006633D01*
X016951Y006446D01*
X016951Y006243D01*
X017029Y006056D01*
X017172Y005912D01*
X017336Y005844D01*
X017172Y005777D01*
X017029Y005633D01*
X016951Y005446D01*
X016951Y005243D01*
X017029Y005056D01*
X017172Y004912D01*
X017336Y004844D01*
X017172Y004777D01*
X017029Y004633D01*
X016951Y004446D01*
X016951Y004243D01*
X017029Y004056D01*
X017172Y003912D01*
X017360Y003834D01*
X017563Y003834D01*
X017750Y003912D01*
X017893Y004056D01*
X017922Y004124D01*
X018069Y004124D01*
X018069Y000924D01*
X016356Y000924D01*
X016398Y001024D01*
X016398Y001226D01*
X016320Y001414D01*
X016176Y001557D01*
X015989Y001635D01*
X015786Y001635D01*
X015687Y001594D01*
X015225Y002056D01*
X015225Y002056D01*
X015114Y002167D01*
X014611Y002167D01*
X014611Y004822D01*
X014128Y005306D01*
X014128Y005307D01*
X014128Y005442D01*
X014077Y005566D01*
X013982Y005661D01*
X013858Y005713D01*
X013723Y005713D01*
X013599Y005661D01*
X013504Y005566D01*
X013452Y005442D01*
X013452Y005307D01*
X013504Y005183D01*
X013599Y005088D01*
X013723Y005037D01*
X013858Y005037D01*
X013859Y005037D01*
X014231Y004665D01*
X014231Y003803D01*
X014143Y003891D01*
X014019Y003943D01*
X013884Y003943D01*
X013760Y003891D01*
X013665Y003796D01*
X013614Y003672D01*
X013614Y003537D01*
X013616Y003532D01*
X012615Y002505D01*
X012615Y002513D01*
X012615Y004995D01*
X012568Y005042D01*
X012569Y005043D01*
X012569Y005178D01*
X012517Y005302D01*
X012422Y005397D01*
X012298Y005449D01*
X012163Y005449D01*
X012039Y005397D01*
X011944Y005302D01*
X011892Y005178D01*
X011892Y005043D01*
X011944Y004919D01*
X012039Y004824D01*
X012163Y004772D01*
X012235Y004772D01*
X012235Y002586D01*
X012168Y002515D01*
X012168Y002643D01*
X012116Y002767D01*
X012021Y002862D01*
X011897Y002914D01*
X011762Y002914D01*
X011638Y002862D01*
X011543Y002767D01*
X011542Y002766D01*
X008291Y002766D01*
X008291Y005075D01*
X008628Y005413D01*
X008692Y005349D01*
X008816Y005297D01*
X008951Y005297D01*
X009075Y005349D01*
X009170Y005444D01*
X009222Y005568D01*
X009222Y005703D01*
X009170Y005827D01*
X009075Y005922D01*
X008951Y005974D01*
X008816Y005974D01*
X008745Y005944D01*
X008838Y006037D01*
X008981Y006037D01*
X009571Y005447D01*
X009572Y005444D01*
X009667Y005349D01*
X009791Y005297D01*
X009926Y005297D01*
X010050Y005349D01*
X010145Y005444D01*
X010197Y005568D01*
X010197Y005703D01*
X010145Y005827D01*
X010050Y005922D01*
X009926Y005974D01*
X009791Y005974D01*
X009667Y005922D01*
X009650Y005905D01*
X009250Y006305D01*
X009139Y006417D01*
X008680Y006417D01*
X008291Y006028D01*
X008291Y007006D01*
X013724Y007006D01*
X013818Y006913D01*
X013942Y006861D01*
X014077Y006861D01*
X014201Y006913D01*
X014296Y007008D01*
X014347Y007132D01*
X014347Y007266D01*
X014296Y007391D01*
X014201Y007486D01*
X014077Y007537D01*
X013942Y007537D01*
X013818Y007486D01*
X013723Y007391D01*
X013721Y007386D01*
X011002Y007386D01*
X011048Y007499D01*
X011048Y007633D01*
X010997Y007757D01*
X010976Y007778D01*
X011009Y007727D02*
X017122Y007727D01*
X017157Y007885D02*
X011127Y007885D01*
X011048Y007568D02*
X017002Y007568D01*
X016951Y007410D02*
X015331Y007410D01*
X015333Y007408D02*
X015268Y007455D01*
X015197Y007492D01*
X015120Y007517D01*
X015041Y007529D01*
X015001Y007529D01*
X015001Y007019D01*
X015001Y007019D01*
X015511Y007019D01*
X015511Y006979D01*
X015507Y006954D01*
X015626Y006954D01*
X015798Y006882D01*
X015931Y006750D01*
X016002Y006577D01*
X016002Y006390D01*
X015931Y006217D01*
X015798Y006085D01*
X015626Y006014D01*
X015439Y006014D01*
X015266Y006085D01*
X015134Y006217D01*
X015062Y006390D01*
X015062Y006513D01*
X015041Y006509D01*
X015001Y006509D01*
X015001Y007019D01*
X015001Y007019D01*
X015511Y007019D01*
X015511Y007059D01*
X015498Y007139D01*
X015473Y007215D01*
X015437Y007286D01*
X015390Y007351D01*
X015333Y007408D01*
X015455Y007251D02*
X016951Y007251D01*
X017013Y007093D02*
X015505Y007093D01*
X015672Y006934D02*
X017150Y006934D01*
X017171Y006776D02*
X015905Y006776D01*
X015986Y006617D02*
X017022Y006617D01*
X016957Y006459D02*
X016002Y006459D01*
X015965Y006300D02*
X016951Y006300D01*
X016993Y006142D02*
X015855Y006142D01*
X015209Y006142D02*
X009413Y006142D01*
X009255Y006300D02*
X015099Y006300D01*
X015062Y006459D02*
X008291Y006459D01*
X008291Y006617D02*
X014686Y006617D01*
X014669Y006630D02*
X014733Y006583D01*
X014805Y006547D01*
X014881Y006522D01*
X014961Y006509D01*
X015001Y006509D01*
X015001Y007019D01*
X015001Y007019D01*
X014491Y007019D01*
X014491Y006979D01*
X014503Y006900D01*
X014528Y006823D01*
X014565Y006752D01*
X014612Y006687D01*
X014669Y006630D01*
X014552Y006776D02*
X008291Y006776D01*
X008291Y006934D02*
X013796Y006934D01*
X014223Y006934D02*
X014498Y006934D01*
X014491Y007019D02*
X015001Y007019D01*
X015001Y007019D01*
X015001Y007529D01*
X014961Y007529D01*
X014881Y007517D01*
X014805Y007492D01*
X014733Y007455D01*
X014669Y007408D01*
X014612Y007351D01*
X014565Y007286D01*
X014528Y007215D01*
X014503Y007139D01*
X014491Y007059D01*
X014491Y007019D01*
X014496Y007093D02*
X014331Y007093D01*
X014347Y007251D02*
X014547Y007251D01*
X014671Y007410D02*
X014277Y007410D01*
X013742Y007410D02*
X011011Y007410D01*
X010861Y006864D02*
X010861Y004294D01*
X011897Y005032D02*
X008291Y005032D01*
X008291Y004874D02*
X011989Y004874D01*
X012235Y004715D02*
X008291Y004715D01*
X008291Y004557D02*
X012235Y004557D01*
X012235Y004398D02*
X008291Y004398D01*
X008291Y004240D02*
X012235Y004240D01*
X012235Y004081D02*
X008291Y004081D01*
X008291Y003923D02*
X012235Y003923D01*
X012235Y003764D02*
X008291Y003764D01*
X008291Y003606D02*
X012235Y003606D01*
X012235Y003447D02*
X008291Y003447D01*
X008291Y003289D02*
X012235Y003289D01*
X012235Y003130D02*
X008291Y003130D01*
X008291Y002972D02*
X012235Y002972D01*
X012235Y002813D02*
X012070Y002813D01*
X012163Y002655D02*
X012235Y002655D01*
X012615Y002655D02*
X012761Y002655D01*
X012615Y002813D02*
X012915Y002813D01*
X013070Y002972D02*
X012615Y002972D01*
X012615Y003130D02*
X013224Y003130D01*
X013379Y003289D02*
X012615Y003289D01*
X012615Y003447D02*
X013533Y003447D01*
X013614Y003606D02*
X012615Y003606D01*
X012615Y003764D02*
X013652Y003764D01*
X013836Y003923D02*
X012615Y003923D01*
X012615Y004081D02*
X014231Y004081D01*
X014231Y003923D02*
X014067Y003923D01*
X014231Y004240D02*
X012615Y004240D01*
X012615Y004398D02*
X014231Y004398D01*
X014231Y004557D02*
X012615Y004557D01*
X012615Y004715D02*
X014181Y004715D01*
X014022Y004874D02*
X012615Y004874D01*
X012577Y005032D02*
X013864Y005032D01*
X013500Y005191D02*
X012563Y005191D01*
X012470Y005349D02*
X013452Y005349D01*
X013480Y005508D02*
X010172Y005508D01*
X010197Y005666D02*
X013611Y005666D01*
X013969Y005666D02*
X017062Y005666D01*
X016977Y005508D02*
X014101Y005508D01*
X014128Y005349D02*
X016951Y005349D01*
X016973Y005191D02*
X014243Y005191D01*
X014401Y005032D02*
X017052Y005032D01*
X017264Y004874D02*
X014560Y004874D01*
X014611Y004715D02*
X017111Y004715D01*
X016997Y004557D02*
X014611Y004557D01*
X014611Y004398D02*
X016951Y004398D01*
X016952Y004240D02*
X014611Y004240D01*
X014611Y004081D02*
X017018Y004081D01*
X017161Y003923D02*
X014611Y003923D01*
X014611Y003764D02*
X018069Y003764D01*
X018069Y003606D02*
X014611Y003606D01*
X014611Y003447D02*
X018069Y003447D01*
X018069Y003289D02*
X014611Y003289D01*
X014611Y003130D02*
X016660Y003130D01*
X016774Y003178D02*
X016440Y003039D01*
X016184Y002783D01*
X016045Y002449D01*
X016045Y002087D01*
X016184Y001752D01*
X016440Y001496D01*
X016774Y001358D01*
X017136Y001358D01*
X017471Y001496D01*
X017727Y001752D01*
X017865Y002087D01*
X017865Y002449D01*
X017727Y002783D01*
X017471Y003039D01*
X017136Y003178D01*
X016774Y003178D01*
X016373Y002972D02*
X014611Y002972D01*
X014611Y002813D02*
X016214Y002813D01*
X016131Y002655D02*
X014611Y002655D01*
X014611Y002496D02*
X016065Y002496D01*
X016045Y002338D02*
X014611Y002338D01*
X014611Y002179D02*
X016045Y002179D01*
X016072Y002021D02*
X015260Y002021D01*
X015419Y001862D02*
X016138Y001862D01*
X016232Y001704D02*
X015577Y001704D01*
X016188Y001545D02*
X016391Y001545D01*
X016331Y001387D02*
X016704Y001387D01*
X016397Y001228D02*
X018069Y001228D01*
X018069Y001070D02*
X016398Y001070D01*
X017207Y001387D02*
X018069Y001387D01*
X018069Y001545D02*
X017520Y001545D01*
X017678Y001704D02*
X018069Y001704D01*
X018069Y001862D02*
X017772Y001862D01*
X017838Y002021D02*
X018069Y002021D01*
X018069Y002179D02*
X017865Y002179D01*
X017865Y002338D02*
X018069Y002338D01*
X018069Y002496D02*
X017845Y002496D01*
X017780Y002655D02*
X018069Y002655D01*
X018069Y002813D02*
X017696Y002813D01*
X017538Y002972D02*
X018069Y002972D01*
X018069Y003130D02*
X017250Y003130D01*
X017761Y003923D02*
X018069Y003923D01*
X018069Y004081D02*
X017904Y004081D01*
X017461Y004344D02*
X020461Y004344D01*
X020461Y005344D02*
X017461Y005344D01*
X017288Y005825D02*
X010146Y005825D01*
X009572Y005983D02*
X017101Y005983D01*
X017461Y006344D02*
X020461Y006344D01*
X020461Y007344D02*
X017461Y007344D01*
X017922Y007564D02*
X017893Y007633D01*
X017750Y007777D01*
X017637Y007823D01*
X017672Y007835D01*
X017749Y007874D01*
X017819Y007925D01*
X017881Y007986D01*
X017931Y008056D01*
X017971Y008133D01*
X017998Y008216D01*
X018011Y008301D01*
X018011Y008324D01*
X017481Y008324D01*
X017481Y008364D01*
X018011Y008364D01*
X018011Y008388D01*
X017998Y008473D01*
X017971Y008556D01*
X017931Y008633D01*
X017881Y008703D01*
X017819Y008764D01*
X017749Y008815D01*
X017672Y008854D01*
X017637Y008865D01*
X017750Y008912D01*
X017893Y009056D01*
X017922Y009124D01*
X018069Y009124D01*
X018069Y007564D01*
X017922Y007564D01*
X017920Y007568D02*
X018069Y007568D01*
X018069Y007727D02*
X017800Y007727D01*
X017765Y007885D02*
X018069Y007885D01*
X018069Y008044D02*
X017923Y008044D01*
X017993Y008202D02*
X018069Y008202D01*
X018069Y008361D02*
X017481Y008361D01*
X017461Y008344D02*
X020461Y008344D01*
X020461Y007344D02*
X022011Y007544D01*
X023811Y005744D01*
X020461Y009344D02*
X017461Y009344D01*
X017198Y009787D02*
X012254Y009787D01*
X012254Y009629D02*
X017027Y009629D01*
X016961Y009470D02*
X012254Y009470D01*
X012254Y009312D02*
X016951Y009312D01*
X016988Y009153D02*
X012254Y009153D01*
X012254Y008995D02*
X017089Y008995D01*
X017215Y008836D02*
X012254Y008836D01*
X012254Y008678D02*
X017024Y008678D01*
X016940Y008519D02*
X012254Y008519D01*
X012254Y008361D02*
X017441Y008361D01*
X016929Y008202D02*
X012254Y008202D01*
X012198Y008044D02*
X017000Y008044D01*
X017707Y008836D02*
X018069Y008836D01*
X018069Y008678D02*
X017899Y008678D01*
X017983Y008519D02*
X018069Y008519D01*
X018069Y008995D02*
X017833Y008995D01*
X017138Y009946D02*
X012254Y009946D01*
X012254Y010104D02*
X017008Y010104D01*
X016951Y010263D02*
X012254Y010263D01*
X012254Y010421D02*
X016951Y010421D01*
X017007Y010580D02*
X012254Y010580D01*
X012254Y010738D02*
X017134Y010738D01*
X017461Y010344D02*
X020461Y010344D01*
X018069Y010580D02*
X017916Y010580D01*
X017788Y010738D02*
X018069Y010738D01*
X018069Y010897D02*
X012254Y010897D01*
X012254Y011055D02*
X018069Y011055D01*
X018069Y011214D02*
X012254Y011214D01*
X012254Y011531D02*
X013800Y011531D01*
X013641Y011689D02*
X013425Y011689D01*
X012698Y011689D02*
X012425Y011689D01*
X013041Y013116D02*
X013081Y013116D01*
X013081Y013274D02*
X013041Y013274D01*
X013041Y013433D02*
X013081Y013433D01*
X013081Y013591D02*
X013041Y013591D01*
X012828Y013591D02*
X003320Y013591D01*
X003323Y013584D02*
X003300Y013654D01*
X003267Y013719D01*
X003224Y013778D01*
X003172Y013830D01*
X003113Y013873D01*
X003048Y013906D01*
X002978Y013929D01*
X002906Y013940D01*
X002869Y013940D01*
X002833Y013940D01*
X002760Y013929D01*
X002691Y013906D01*
X002626Y013873D01*
X002566Y013830D01*
X002515Y013778D01*
X002472Y013719D01*
X002438Y013654D01*
X002416Y013584D01*
X002404Y013512D01*
X002404Y013475D01*
X002869Y013475D01*
X002869Y013475D01*
X002869Y013475D01*
X002869Y013940D01*
X002869Y013475D01*
X002869Y013475D01*
X003334Y013475D01*
X003334Y013512D01*
X003323Y013584D01*
X003333Y013433D02*
X009726Y013433D01*
X009568Y013274D02*
X003289Y013274D01*
X003244Y013750D02*
X016324Y013750D01*
X016440Y013866D02*
X016184Y013610D01*
X016045Y013275D01*
X016045Y012913D01*
X016184Y012579D01*
X016440Y012323D01*
X016774Y012184D01*
X017136Y012184D01*
X017471Y012323D01*
X017727Y012579D01*
X017865Y012913D01*
X017865Y013275D01*
X017727Y013610D01*
X017471Y013866D01*
X017136Y014004D01*
X016774Y014004D01*
X016440Y013866D01*
X016543Y013908D02*
X003041Y013908D01*
X002869Y013908D02*
X002869Y013908D01*
X002869Y013750D02*
X002869Y013750D01*
X002869Y013591D02*
X002869Y013591D01*
X002698Y013908D02*
X002154Y013908D01*
X002154Y013750D02*
X002494Y013750D01*
X002418Y013591D02*
X002183Y013591D01*
X002249Y013433D02*
X002405Y013433D01*
X002450Y013274D02*
X002314Y013274D01*
X002314Y013116D02*
X002573Y013116D01*
X002538Y012957D02*
X002314Y012957D01*
X002267Y012799D02*
X002455Y012799D01*
X002444Y012640D02*
X002201Y012640D01*
X002192Y012482D02*
X002078Y012482D01*
X002154Y012482D02*
X002495Y012482D01*
X002639Y012323D02*
X002154Y012323D01*
X002187Y012323D02*
X001920Y012323D01*
X000888Y012323D02*
X000541Y012323D01*
X000541Y012482D02*
X000730Y012482D01*
X000607Y012640D02*
X000541Y012640D01*
X000541Y012799D02*
X000542Y012799D01*
X002154Y014067D02*
X017946Y014067D01*
X017946Y014225D02*
X002154Y014225D01*
X002154Y014384D02*
X017946Y014384D01*
X017946Y013908D02*
X017368Y013908D01*
X017586Y013750D02*
X017946Y013750D01*
X017946Y013591D02*
X017734Y013591D01*
X017800Y013433D02*
X017946Y013433D01*
X017946Y013274D02*
X017865Y013274D01*
X017865Y013116D02*
X017946Y013116D01*
X017946Y012957D02*
X017865Y012957D01*
X017818Y012799D02*
X017946Y012799D01*
X017946Y012640D02*
X017752Y012640D01*
X017630Y012482D02*
X017946Y012482D01*
X017946Y012323D02*
X017471Y012323D01*
X017946Y012165D02*
X014611Y012165D01*
X014611Y012006D02*
X017946Y012006D01*
X017946Y011848D02*
X014611Y011848D01*
X014482Y011689D02*
X017946Y011689D01*
X017946Y011531D02*
X014323Y011531D01*
X014081Y011531D02*
X014041Y011531D01*
X014041Y011689D02*
X014081Y011689D01*
X014081Y011848D02*
X014041Y011848D01*
X014041Y012006D02*
X014081Y012006D01*
X014405Y012482D02*
X016281Y012482D01*
X016158Y012640D02*
X014376Y012640D01*
X014534Y012799D02*
X016093Y012799D01*
X016045Y012957D02*
X014571Y012957D01*
X014571Y013116D02*
X016045Y013116D01*
X016045Y013274D02*
X014555Y013274D01*
X014397Y013433D02*
X016111Y013433D01*
X016176Y013591D02*
X013295Y013591D01*
X013454Y013433D02*
X013726Y013433D01*
X012669Y013433D02*
X012397Y013433D01*
X011726Y013433D02*
X011397Y013433D01*
X011555Y013274D02*
X011568Y013274D01*
X010726Y013433D02*
X010397Y013433D01*
X010555Y013274D02*
X010568Y013274D01*
X010698Y011689D02*
X010425Y011689D01*
X008320Y009787D02*
X008291Y009787D01*
X010806Y009629D02*
X010873Y009629D01*
X010861Y006864D02*
X008780Y006714D01*
X008564Y006300D02*
X008291Y006300D01*
X008291Y006142D02*
X008405Y006142D01*
X008784Y005983D02*
X009034Y005983D01*
X009171Y005825D02*
X009193Y005825D01*
X009222Y005666D02*
X009351Y005666D01*
X009197Y005508D02*
X009510Y005508D01*
X009667Y005349D02*
X009076Y005349D01*
X008691Y005349D02*
X008565Y005349D01*
X008407Y005191D02*
X011898Y005191D01*
X011991Y005349D02*
X010051Y005349D01*
X011589Y002813D02*
X008291Y002813D01*
X008291Y002386D02*
X011542Y002386D01*
X011543Y002384D01*
X011638Y002289D01*
X011762Y002237D01*
X011897Y002237D01*
X011912Y002244D01*
X011472Y001777D01*
X011422Y001757D01*
X011381Y001757D01*
X011353Y001729D01*
X011315Y001713D01*
X011299Y001675D01*
X011011Y001387D01*
X008955Y001387D01*
X008985Y001357D02*
X008890Y001452D01*
X008766Y001504D01*
X008631Y001504D01*
X008510Y001453D01*
X008510Y001583D01*
X008458Y001707D01*
X008363Y001802D01*
X008291Y001832D01*
X008291Y002386D01*
X008291Y002338D02*
X011589Y002338D01*
X011851Y002179D02*
X008291Y002179D01*
X008291Y002021D02*
X011702Y002021D01*
X011552Y001862D02*
X008291Y001862D01*
X008459Y001704D02*
X011311Y001704D01*
X011169Y001545D02*
X008510Y001545D01*
X008985Y001357D02*
X009037Y001233D01*
X009037Y001098D01*
X008987Y000978D01*
X009001Y000964D01*
X009001Y000924D01*
X011004Y000924D01*
X010997Y000950D01*
X011011Y000975D01*
X011011Y001387D01*
X011011Y001228D02*
X009037Y001228D01*
X009025Y001070D02*
X011011Y001070D01*
X015001Y006617D02*
X015001Y006617D01*
X015001Y006776D02*
X015001Y006776D01*
X015001Y006934D02*
X015001Y006934D01*
X015001Y007093D02*
X015001Y007093D01*
X015001Y007251D02*
X015001Y007251D01*
X015001Y007410D02*
X015001Y007410D01*
X014563Y012323D02*
X016439Y012323D01*
X002085Y008836D02*
X001299Y008836D01*
X001389Y008678D02*
X002081Y008678D01*
X002076Y008519D02*
X001959Y008519D01*
X002000Y008361D02*
X002071Y008361D01*
X002067Y008202D02*
X001962Y008202D01*
X001934Y008044D02*
X002062Y008044D01*
X002057Y007885D02*
X002000Y007885D01*
X001977Y007727D02*
X002053Y007727D01*
X002048Y007568D02*
X001848Y007568D01*
X002044Y007410D02*
X001383Y007410D01*
X001430Y007568D02*
X001513Y007568D01*
X001360Y007885D02*
X001275Y007885D01*
X001272Y008044D02*
X001426Y008044D01*
X001398Y008202D02*
X001256Y008202D01*
X001270Y008361D02*
X001360Y008361D01*
X001377Y008519D02*
X001401Y008519D01*
X001070Y007568D02*
X001070Y007568D01*
X001070Y007410D02*
X001070Y007410D01*
X001699Y003130D02*
X001918Y003130D01*
D18*
X003111Y005144D03*
X004261Y006644D03*
X006411Y006694D03*
X006981Y006614D03*
X006707Y007711D03*
X008183Y006274D03*
X008780Y006714D03*
X008884Y005635D03*
X009859Y005635D03*
X010452Y004916D03*
X012230Y005110D03*
X013790Y005375D03*
X013952Y003605D03*
X015630Y002232D03*
X012050Y001177D03*
X011384Y001901D03*
X011830Y002576D03*
X010730Y003232D03*
X010030Y002932D03*
X009962Y001804D03*
X008699Y001166D03*
X008171Y001516D03*
X008323Y002980D03*
X007908Y003291D03*
X010710Y007566D03*
X010859Y008096D03*
X011063Y008703D03*
X010569Y009387D03*
X008991Y008424D03*
X008458Y009478D03*
X008441Y010524D03*
X010330Y011043D03*
X007641Y012724D03*
X005650Y012932D03*
X010519Y014002D03*
X015525Y012875D03*
X013975Y008864D03*
X014009Y007199D03*
X011975Y007648D03*
X001720Y009246D03*
D19*
X003111Y007244D02*
X005461Y009594D01*
X006311Y009444D02*
X006461Y009594D01*
X006311Y009444D02*
X006311Y007444D01*
X006981Y006775D01*
X006981Y006614D01*
X007065Y006614D01*
X007647Y007196D01*
X014006Y007196D01*
X014009Y007199D01*
X012064Y008178D02*
X012064Y012045D01*
X012061Y012047D01*
X011063Y012045D02*
X011061Y012047D01*
X011063Y012045D02*
X011063Y008703D01*
X010859Y008096D02*
X011981Y008096D01*
X012064Y008178D01*
X010710Y007566D02*
X010611Y007466D01*
X008301Y007466D01*
X008057Y007711D01*
X006707Y007711D01*
X006411Y006694D02*
X004311Y006694D01*
X004261Y006644D01*
X003111Y007244D02*
X003111Y005144D01*
X007130Y004598D02*
X007130Y001922D01*
X007658Y001394D01*
X007710Y001343D01*
X008168Y000885D01*
X008811Y000885D01*
X008699Y001166D01*
X008171Y001516D02*
X007670Y002067D01*
X007535Y002067D01*
X007535Y004588D01*
X008583Y005635D01*
X008884Y005635D01*
X008759Y006227D02*
X007130Y004598D01*
X007908Y003291D02*
X007908Y002804D01*
X008137Y002576D01*
X011830Y002576D01*
X012425Y002510D02*
X012425Y004916D01*
X012230Y005110D01*
X013790Y005375D02*
X014421Y004744D01*
X014421Y002073D01*
X014516Y001977D01*
X015035Y001977D01*
X015888Y001125D01*
X015888Y001125D01*
X012888Y001125D02*
X012552Y001125D01*
X012223Y000846D01*
X011222Y000846D01*
X011201Y000924D01*
X011201Y001308D01*
X011460Y001567D01*
X011582Y001617D01*
X012425Y002510D01*
X012050Y001653D02*
X013952Y003605D01*
X012050Y001653D02*
X012050Y001177D01*
X007658Y001394D02*
X007161Y001394D01*
X009651Y005635D02*
X009060Y006227D01*
X008759Y006227D01*
X009651Y005635D02*
X009859Y005635D01*
X008991Y008424D02*
X008631Y008424D01*
X008161Y008894D01*
X008161Y009194D01*
X008111Y009244D01*
X008111Y009894D01*
X008161Y009944D01*
X008161Y010245D01*
X008441Y010524D01*
X008458Y009478D02*
X008549Y009387D01*
X010569Y009387D01*
X010302Y011014D02*
X010330Y011043D01*
X010302Y011014D02*
X006151Y011014D01*
X005650Y011515D01*
X005650Y012932D01*
D20*
X023811Y005744D03*
M02*
