G75*
G70*
%OFA0B0*%
%FSLAX24Y24*%
%IPPOS*%
%LPD*%
%AMOC8*
5,1,8,0,0,1.08239X$1,22.5*
%
%ADD10C,0.1320*%
%ADD11C,0.0630*%
%ADD12OC8,0.0800*%
%ADD13R,0.0800X0.0800*%
%ADD14C,0.0800*%
%ADD15C,0.0720*%
%ADD16C,0.0355*%
%ADD17C,0.0473*%
%ADD18C,0.0585*%
%ADD19C,0.0640*%
%ADD20C,0.0456*%
%ADD21R,0.0456X0.0456*%
D10*
X001343Y002268D03*
X001343Y013094D03*
X016894Y013094D03*
X016894Y002268D03*
D11*
X002808Y012688D03*
X002808Y013475D03*
D12*
X010000Y013047D03*
X011000Y013047D03*
X011000Y012047D03*
X010000Y012047D03*
X012000Y012047D03*
X013000Y012047D03*
X013000Y013047D03*
X012000Y013047D03*
X014000Y013047D03*
X014000Y012047D03*
D13*
X006400Y009594D03*
X012826Y001125D03*
D14*
X013826Y001125D03*
X014826Y001125D03*
X015826Y001125D03*
X017400Y004344D03*
X017400Y005344D03*
X017400Y006344D03*
X017400Y007344D03*
X017400Y008344D03*
X017400Y009344D03*
X017400Y010344D03*
X020400Y010344D03*
X020400Y009344D03*
X020400Y008344D03*
X020400Y007344D03*
X020400Y006344D03*
X020400Y005344D03*
X020400Y004344D03*
X005400Y009594D03*
X004400Y009594D03*
X003400Y009594D03*
D15*
X014940Y007019D03*
X015471Y006484D03*
D16*
X022571Y006180D03*
D17*
X023629Y005123D03*
D18*
X007100Y001394D03*
X006100Y001394D03*
X000900Y007844D03*
X000900Y008844D03*
D19*
X000900Y008844D03*
X000900Y007844D03*
X006100Y001394D03*
X007100Y001394D03*
D20*
X008110Y001516D03*
X008637Y001166D03*
X009901Y001804D03*
X009969Y002932D03*
X010669Y003232D03*
X011769Y002576D03*
X011323Y001901D03*
X011989Y001177D03*
X013891Y003605D03*
X013729Y005375D03*
X012169Y005110D03*
X010391Y004916D03*
X009798Y005635D03*
X008822Y005635D03*
X008121Y006274D03*
X008719Y006714D03*
X010649Y007566D03*
X010798Y008096D03*
X011002Y008703D03*
X010508Y009387D03*
X008930Y008424D03*
X008397Y009478D03*
X008380Y010524D03*
X010269Y011043D03*
X007580Y012724D03*
X005589Y012932D03*
X010458Y014002D03*
X015464Y012875D03*
X013914Y008864D03*
X013948Y007199D03*
X011914Y007648D03*
X006919Y006614D03*
X006350Y006694D03*
X006646Y007711D03*
X004200Y006644D03*
X003050Y005144D03*
X007847Y003291D03*
X008262Y002980D03*
X015569Y002232D03*
X001658Y009246D03*
D21*
X023750Y005744D03*
M02*
