G75*
G70*
%OFA0B0*%
%FSLAX24Y24*%
%IPPOS*%
%LPD*%
%AMOC8*
5,1,8,0,0,1.08239X$1,22.5*
%
%ADD10C,0.0080*%
%ADD11C,0.0100*%
%ADD12C,0.0220*%
%ADD13R,0.0180X0.0300*%
%ADD14C,0.0050*%
%ADD15R,0.0300X0.0180*%
%ADD16C,0.0060*%
%ADD17R,0.0200X0.0200*%
%ADD18C,0.0040*%
D10*
X002352Y001238D02*
X002352Y001631D01*
X002352Y001238D02*
X002745Y001238D01*
X002352Y003679D02*
X002352Y004348D01*
X001655Y005020D02*
X001474Y005020D01*
X001382Y005142D01*
X001293Y005020D02*
X001474Y005020D01*
X001484Y005026D02*
X001560Y005142D01*
X001049Y005031D02*
X000867Y005031D01*
X000775Y005153D01*
X000686Y005031D02*
X000867Y005031D01*
X000877Y005037D02*
X000953Y005153D01*
X007155Y001238D02*
X007548Y001238D01*
X007548Y001631D01*
X008923Y002172D02*
X008923Y002408D01*
X008775Y003211D02*
X008460Y003211D01*
X009327Y003211D02*
X009641Y003211D01*
X009671Y002920D02*
X010143Y002920D01*
X010891Y002408D02*
X010891Y002172D01*
X010143Y001660D02*
X009671Y001660D01*
X011830Y003229D02*
X011830Y005648D01*
X014250Y005648D01*
X014250Y003229D01*
X011830Y003229D01*
X009641Y005179D02*
X009327Y005179D01*
X008775Y005179D02*
X008460Y005179D01*
X009012Y004589D02*
X009014Y004601D01*
X009019Y004612D01*
X009028Y004621D01*
X009039Y004626D01*
X009051Y004628D01*
X009063Y004626D01*
X009074Y004621D01*
X009083Y004612D01*
X009088Y004601D01*
X009090Y004589D01*
X009088Y004577D01*
X009083Y004566D01*
X009074Y004557D01*
X009063Y004552D01*
X009051Y004550D01*
X009039Y004552D01*
X009028Y004557D01*
X009019Y004566D01*
X009014Y004577D01*
X009012Y004589D01*
X007548Y004348D02*
X007548Y003679D01*
X008518Y007872D02*
X008518Y009053D01*
X009345Y009033D02*
X009345Y007872D01*
X009346Y009033D02*
X009350Y009016D01*
X009358Y009000D01*
X009369Y008987D01*
X009383Y008976D01*
X009398Y008968D01*
X009416Y008964D01*
X009433Y008965D01*
X009450Y008969D01*
X009466Y008976D01*
X009480Y008987D01*
X009491Y009001D01*
X009499Y009017D01*
X009503Y009034D01*
X009503Y009052D01*
X009499Y009069D01*
X009491Y009085D01*
X009480Y009099D01*
X009466Y009110D01*
X009450Y009117D01*
X009433Y009121D01*
X009416Y009122D01*
X009398Y009118D01*
X009383Y009110D01*
X009369Y009099D01*
X009358Y009086D01*
X009350Y009070D01*
X009346Y009053D01*
X011396Y008777D02*
X011396Y008147D01*
X011554Y007989D01*
X011987Y007989D01*
X012774Y007989D02*
X013365Y007989D01*
X013365Y008934D01*
X012774Y008934D01*
X012409Y009039D02*
X012071Y009039D01*
X011987Y008934D02*
X011554Y008934D01*
X011396Y008777D01*
X011921Y009494D02*
X011921Y009705D01*
X012071Y010159D02*
X012409Y010159D01*
X010250Y011297D02*
X009750Y011297D01*
X009262Y011891D02*
X009262Y012151D01*
X009202Y013072D02*
X009300Y013170D01*
X007962Y013061D02*
X007962Y012801D01*
X007962Y012151D02*
X007962Y011891D01*
X007548Y011395D02*
X007548Y011002D01*
X007548Y011395D02*
X007155Y011395D01*
X007351Y013400D02*
X006879Y013400D01*
X006643Y013636D01*
X006643Y014345D02*
X006848Y014531D01*
X006848Y014532D02*
X006878Y014557D01*
X006910Y014579D01*
X006945Y014597D01*
X006981Y014612D01*
X007018Y014624D01*
X007056Y014632D01*
X007095Y014636D01*
X007135Y014636D01*
X007174Y014632D01*
X007212Y014624D01*
X007249Y014612D01*
X007285Y014597D01*
X007320Y014579D01*
X007352Y014557D01*
X007382Y014532D01*
X007382Y014531D02*
X007588Y014345D01*
X007588Y013636D02*
X007351Y013400D01*
X002745Y011395D02*
X002352Y011395D01*
X002352Y011002D01*
X001838Y011411D02*
X001838Y011749D01*
X001383Y011261D02*
X001172Y011261D01*
X000718Y011411D02*
X000718Y011749D01*
X015669Y009811D02*
X015850Y009811D01*
X015942Y009689D01*
X016031Y009811D02*
X015850Y009811D01*
X015840Y009805D02*
X015764Y009689D01*
X016900Y009594D02*
X016900Y009094D01*
X017150Y008844D01*
X016900Y008594D01*
X016900Y008094D01*
X017150Y007844D01*
X016900Y007594D01*
X016900Y007094D01*
X017150Y006844D01*
X016900Y006594D01*
X016900Y006094D01*
X017150Y005844D01*
X016900Y005594D01*
X016900Y005094D01*
X017150Y004844D01*
X016900Y004594D01*
X016900Y004094D01*
X017150Y003844D01*
X017650Y003844D01*
X017900Y004094D01*
X017900Y004594D01*
X017650Y004844D01*
X017900Y005094D01*
X017900Y005594D01*
X017650Y005844D01*
X017900Y006094D01*
X017900Y006594D01*
X017650Y006844D01*
X017900Y007094D01*
X017900Y007594D01*
X017650Y007844D01*
X017900Y008094D01*
X017900Y008594D01*
X017650Y008844D01*
X017900Y009094D01*
X017900Y009594D01*
X017650Y009844D01*
X017900Y010094D01*
X017900Y010594D01*
X017650Y010844D01*
X017150Y010844D01*
X016900Y010594D01*
X016900Y010094D01*
X017150Y009844D01*
X016900Y009594D01*
X019900Y009594D02*
X019900Y009094D01*
X020150Y008844D01*
X019900Y008594D01*
X019900Y008094D01*
X020150Y007844D01*
X019900Y007594D01*
X019900Y007094D01*
X020150Y006844D01*
X019900Y006594D01*
X019900Y006094D01*
X020150Y005844D01*
X019900Y005594D01*
X019900Y005094D01*
X020150Y004844D01*
X019900Y004594D01*
X019900Y004094D01*
X020150Y003844D01*
X020650Y003844D01*
X020900Y004094D01*
X020900Y004594D01*
X020650Y004844D01*
X020900Y005094D01*
X020900Y005594D01*
X020650Y005844D01*
X020900Y006094D01*
X020900Y006594D01*
X020650Y006844D01*
X020900Y007094D01*
X020900Y007594D01*
X020650Y007844D01*
X020900Y008094D01*
X020900Y008594D01*
X020650Y008844D01*
X020900Y009094D01*
X020900Y009594D01*
X020650Y009844D01*
X020900Y010094D01*
X020900Y010594D01*
X020650Y010844D01*
X020150Y010844D01*
X019900Y010594D01*
X019900Y010094D01*
X020150Y009844D01*
X019900Y009594D01*
X022404Y006904D02*
X022863Y007364D01*
X023420Y007364D01*
X024812Y005972D01*
X024812Y005415D01*
X023337Y003939D01*
X022780Y003939D01*
X021388Y005331D01*
X021388Y005888D01*
X021847Y006347D01*
X022404Y006904D01*
X022404Y006347D01*
X021847Y006347D01*
X022042Y005819D02*
X021875Y005652D01*
X022042Y005484D01*
X021875Y005652D02*
X022376Y005652D01*
X022710Y005844D02*
X022710Y005459D01*
X022712Y005433D01*
X022717Y005408D01*
X022725Y005384D01*
X022736Y005361D01*
X022751Y005339D01*
X022768Y005320D01*
X022787Y005303D01*
X022808Y005288D01*
X022832Y005277D01*
X022856Y005269D01*
X022881Y005264D01*
X022907Y005262D01*
X023293Y005262D01*
X023319Y005264D01*
X023344Y005269D01*
X023368Y005277D01*
X023391Y005288D01*
X023413Y005303D01*
X023432Y005320D01*
X023449Y005339D01*
X023464Y005360D01*
X023475Y005384D01*
X023483Y005408D01*
X023488Y005433D01*
X023490Y005459D01*
X023490Y005844D01*
X023488Y005870D01*
X023483Y005895D01*
X023475Y005919D01*
X023464Y005942D01*
X023449Y005964D01*
X023432Y005983D01*
X023413Y006000D01*
X023392Y006015D01*
X023368Y006026D01*
X023344Y006034D01*
X023319Y006039D01*
X023293Y006041D01*
X022907Y006041D01*
X022881Y006039D01*
X022856Y006034D01*
X022832Y006026D01*
X022808Y006015D01*
X022787Y006000D01*
X022768Y005983D01*
X022751Y005964D01*
X022736Y005943D01*
X022725Y005919D01*
X022717Y005895D01*
X022712Y005870D01*
X022710Y005844D01*
X022509Y005652D02*
X022511Y005700D01*
X022517Y005748D01*
X022527Y005795D01*
X022540Y005841D01*
X022558Y005886D01*
X022578Y005930D01*
X022603Y005972D01*
X022631Y006011D01*
X022661Y006048D01*
X022695Y006082D01*
X022732Y006114D01*
X022770Y006143D01*
X022811Y006168D01*
X022854Y006190D01*
X022899Y006208D01*
X022945Y006222D01*
X022992Y006233D01*
X023040Y006240D01*
X023088Y006243D01*
X023136Y006242D01*
X023184Y006237D01*
X023232Y006228D01*
X023278Y006216D01*
X023323Y006199D01*
X023367Y006179D01*
X023409Y006156D01*
X023449Y006129D01*
X023487Y006099D01*
X023522Y006066D01*
X023554Y006030D01*
X023584Y005992D01*
X023610Y005951D01*
X023632Y005908D01*
X023652Y005864D01*
X023667Y005819D01*
X023679Y005772D01*
X023687Y005724D01*
X023691Y005676D01*
X023691Y005628D01*
X023687Y005580D01*
X023679Y005532D01*
X023667Y005485D01*
X023652Y005440D01*
X023632Y005396D01*
X023610Y005353D01*
X023584Y005312D01*
X023554Y005274D01*
X023522Y005238D01*
X023487Y005205D01*
X023449Y005175D01*
X023409Y005148D01*
X023367Y005125D01*
X023323Y005105D01*
X023278Y005088D01*
X023232Y005076D01*
X023184Y005067D01*
X023136Y005062D01*
X023088Y005061D01*
X023040Y005064D01*
X022992Y005071D01*
X022945Y005082D01*
X022899Y005096D01*
X022854Y005114D01*
X022811Y005136D01*
X022770Y005161D01*
X022732Y005190D01*
X022695Y005222D01*
X022661Y005256D01*
X022631Y005293D01*
X022603Y005332D01*
X022578Y005374D01*
X022558Y005418D01*
X022540Y005463D01*
X022527Y005509D01*
X022517Y005556D01*
X022511Y005604D01*
X022509Y005652D01*
X016514Y004059D02*
X016332Y004059D01*
X016240Y004181D01*
X016151Y004059D02*
X016332Y004059D01*
X016342Y004065D02*
X016418Y004181D01*
X015914Y003854D02*
X015838Y003738D01*
X015828Y003732D02*
X015736Y003854D01*
X015646Y003732D02*
X015828Y003732D01*
X016009Y003732D01*
D11*
X011957Y005324D02*
X011959Y005351D01*
X011965Y005378D01*
X011974Y005404D01*
X011987Y005428D01*
X012003Y005451D01*
X012022Y005470D01*
X012044Y005487D01*
X012068Y005501D01*
X012093Y005511D01*
X012120Y005518D01*
X012147Y005521D01*
X012175Y005520D01*
X012202Y005515D01*
X012228Y005507D01*
X012252Y005495D01*
X012275Y005479D01*
X012296Y005461D01*
X012313Y005440D01*
X012328Y005416D01*
X012339Y005391D01*
X012347Y005365D01*
X012351Y005338D01*
X012351Y005310D01*
X012347Y005283D01*
X012339Y005257D01*
X012328Y005232D01*
X012313Y005208D01*
X012296Y005187D01*
X012275Y005169D01*
X012253Y005153D01*
X012228Y005141D01*
X012202Y005133D01*
X012175Y005128D01*
X012147Y005127D01*
X012120Y005130D01*
X012093Y005137D01*
X012068Y005147D01*
X012044Y005161D01*
X012022Y005178D01*
X012003Y005197D01*
X011987Y005220D01*
X011974Y005244D01*
X011965Y005270D01*
X011959Y005297D01*
X011957Y005324D01*
D12*
X010690Y003654D02*
X010666Y003654D01*
X011280Y002650D02*
X011304Y002650D01*
X008377Y002393D02*
X008353Y002393D01*
X012465Y007522D02*
X012465Y007546D01*
X014385Y008108D02*
X014385Y008132D01*
X013958Y009756D02*
X013958Y009780D01*
X013976Y010505D02*
X013976Y010529D01*
X013607Y011107D02*
X013607Y011131D01*
X012869Y013890D02*
X012869Y013915D01*
X009633Y013941D02*
X009633Y013917D01*
X009457Y011209D02*
X009457Y011185D01*
X009166Y009930D02*
X009166Y009906D01*
X009974Y008493D02*
X009998Y008493D01*
X000917Y010387D02*
X000917Y010411D01*
D13*
X001378Y009941D03*
X006090Y011990D03*
X006060Y012568D03*
X006287Y013107D03*
X009437Y010678D03*
X010461Y009886D03*
X012205Y010687D03*
X012193Y011194D03*
X011578Y013893D03*
X015800Y010694D03*
X019200Y009344D03*
X019200Y007344D03*
X019200Y006344D03*
X019200Y005344D03*
X019200Y004344D03*
X017131Y003403D03*
X015571Y002743D03*
X008988Y006234D03*
D14*
X006900Y008394D02*
X002900Y008394D01*
X002900Y010594D01*
X003400Y010594D01*
X003400Y010094D01*
X006400Y010094D01*
X006400Y010594D01*
X006900Y010594D01*
X006900Y008394D01*
X006400Y010594D02*
X003400Y010594D01*
X009345Y009053D02*
X009345Y009033D01*
X012231Y008862D02*
X012231Y008062D01*
X012326Y002325D02*
X016326Y002325D01*
X016326Y000125D01*
X015826Y000125D01*
X015826Y000625D01*
X012826Y000625D01*
X012826Y000125D01*
X012326Y000125D01*
X012326Y002325D01*
X012826Y000125D02*
X015826Y000125D01*
D15*
X010271Y006525D03*
X008678Y007103D03*
X002017Y003703D03*
X001459Y003660D03*
X000871Y003655D03*
D16*
X009500Y011797D02*
X009750Y011547D01*
X010250Y011547D01*
X010500Y011797D01*
X010500Y013297D01*
X010750Y013547D01*
X011250Y013547D01*
X011500Y013297D01*
X011500Y011797D01*
X011750Y011547D01*
X012250Y011547D01*
X012500Y011797D01*
X012500Y013297D01*
X012750Y013547D01*
X013250Y013547D01*
X013500Y013297D01*
X013750Y013547D01*
X014250Y013547D01*
X014500Y013297D01*
X014500Y011797D01*
X014250Y011547D01*
X013750Y011547D01*
X013500Y011797D01*
X013500Y013297D01*
X012500Y013297D02*
X012250Y013547D01*
X011750Y013547D01*
X011500Y013297D01*
X010500Y013297D02*
X010250Y013547D01*
X009750Y013547D01*
X009500Y013297D01*
X009500Y011797D01*
X010500Y011797D02*
X010750Y011547D01*
X011250Y011547D01*
X011500Y011797D01*
X012500Y011797D02*
X012750Y011547D01*
X013250Y011547D01*
X013500Y011797D01*
X021474Y005828D02*
X021474Y005698D01*
X021734Y005698D01*
X021647Y005698D02*
X021647Y005828D01*
X021604Y005871D01*
X021517Y005871D01*
X021474Y005828D01*
X021474Y005577D02*
X021690Y005577D01*
X021734Y005533D01*
X021734Y005447D01*
X021690Y005403D01*
X021474Y005403D01*
D17*
X012000Y012047D03*
D18*
X014783Y007482D02*
X015089Y007482D01*
X015763Y006336D02*
X015763Y006029D01*
X015609Y006183D02*
X015916Y006183D01*
M02*
