G75*
G70*
%OFA0B0*%
%FSLAX24Y24*%
%IPPOS*%
%LPD*%
%AMOC8*
5,1,8,0,0,1.08239X$1,22.5*
%
%ADD10C,0.1320*%
%ADD11R,0.0690X0.0178*%
%ADD12R,0.0178X0.0690*%
%ADD13R,0.0277X0.0532*%
%ADD14C,0.0630*%
%ADD15R,0.0493X0.0454*%
%ADD16R,0.0177X0.0395*%
%ADD17R,0.1005X0.0710*%
%ADD18R,0.0336X0.0170*%
%ADD19R,0.0572X0.0572*%
%ADD20R,0.0118X0.0315*%
%ADD21R,0.0740X0.0681*%
%ADD22R,0.0454X0.0493*%
%ADD23R,0.0532X0.0277*%
%ADD24R,0.0611X0.0690*%
%ADD25OC8,0.0800*%
%ADD26R,0.0532X0.0257*%
%ADD27R,0.0257X0.0532*%
%ADD28C,0.0800*%
%ADD29R,0.0808X0.0493*%
%ADD30R,0.0690X0.0375*%
%ADD31R,0.0375X0.0690*%
%ADD32R,0.0375X0.0375*%
%ADD33C,0.0720*%
%ADD34R,0.0788X0.0493*%
%ADD35R,0.0808X0.0847*%
%ADD36C,0.0355*%
%ADD37C,0.0473*%
%ADD38R,0.0800X0.0800*%
%ADD39C,0.0456*%
%ADD40C,0.0420*%
%ADD41R,0.0456X0.0456*%
D10*
X001568Y002198D03*
X001568Y013025D03*
X017119Y013025D03*
X017119Y002198D03*
D11*
X014879Y003286D03*
X014879Y003483D03*
X014879Y003680D03*
X014879Y003877D03*
X014879Y004074D03*
X014879Y004271D03*
X014879Y004467D03*
X014879Y004664D03*
X014879Y004861D03*
X014879Y005058D03*
X014879Y005255D03*
X014879Y005452D03*
X011651Y005452D03*
X011651Y005255D03*
X011651Y005058D03*
X011651Y004861D03*
X011651Y004664D03*
X011651Y004467D03*
X011651Y004271D03*
X011651Y004074D03*
X011651Y003877D03*
X011651Y003680D03*
X011651Y003483D03*
X011651Y003286D03*
D12*
X012182Y002755D03*
X012379Y002755D03*
X012576Y002755D03*
X012773Y002755D03*
X012970Y002755D03*
X013166Y002755D03*
X013363Y002755D03*
X013560Y002755D03*
X013757Y002755D03*
X013954Y002755D03*
X014151Y002755D03*
X014348Y002755D03*
X014348Y005983D03*
X014151Y005983D03*
X013954Y005983D03*
X013757Y005983D03*
X013560Y005983D03*
X013363Y005983D03*
X013166Y005983D03*
X012970Y005983D03*
X012773Y005983D03*
X012576Y005983D03*
X012379Y005983D03*
X012182Y005983D03*
D13*
X001877Y010998D03*
X001129Y010998D03*
X001129Y012022D03*
X001503Y012022D03*
X001877Y012022D03*
D14*
X003033Y012618D03*
X003033Y013406D03*
D15*
X005950Y012499D03*
X005980Y011921D03*
X006650Y011921D03*
X006620Y012499D03*
X006847Y013037D03*
X006178Y013037D03*
X009523Y013860D03*
X010192Y013860D03*
X011469Y013823D03*
X012138Y013823D03*
X012759Y013833D03*
X013429Y013833D03*
X013498Y011049D03*
X012753Y011125D03*
X012764Y010617D03*
X012095Y010617D03*
X012083Y011125D03*
X011021Y009817D03*
X010352Y009817D03*
X009726Y009848D03*
X009057Y009848D03*
X009327Y010609D03*
X009347Y011127D03*
X010016Y011127D03*
X009997Y010609D03*
X013866Y010447D03*
X014535Y010447D03*
X014167Y011049D03*
X013849Y009699D03*
X014518Y009699D03*
X015690Y010625D03*
X016360Y010625D03*
X019090Y009275D03*
X019760Y009275D03*
X019760Y007275D03*
X019090Y007275D03*
X019090Y006275D03*
X019760Y006275D03*
X019760Y005275D03*
X019090Y005275D03*
X019090Y004275D03*
X019760Y004275D03*
X017691Y003333D03*
X017021Y003333D03*
X016131Y002674D03*
X015462Y002674D03*
X013025Y007464D03*
X012356Y007464D03*
X014276Y008050D03*
X014945Y008050D03*
X009547Y006164D03*
X008878Y006164D03*
X001938Y009871D03*
X001268Y009871D03*
X001476Y010330D03*
X000807Y010330D03*
D16*
X008443Y011831D03*
X008640Y011831D03*
X008837Y011831D03*
X009033Y011831D03*
X009230Y011831D03*
X009230Y012993D03*
X009033Y012993D03*
X008837Y012993D03*
X008640Y012993D03*
X008443Y012993D03*
D17*
X008837Y012412D03*
D18*
X009427Y012510D03*
X009427Y012314D03*
X008246Y012314D03*
X008246Y012510D03*
D19*
X007931Y013921D03*
X006750Y013921D03*
D20*
X008861Y008944D03*
X009058Y008944D03*
X009255Y008944D03*
X009452Y008944D03*
X009452Y008944D03*
X009452Y007842D03*
X009255Y007842D03*
X009058Y007842D03*
X008861Y007842D03*
D21*
X009157Y008393D03*
D22*
X010211Y008088D03*
X010211Y008758D03*
X008903Y007368D03*
X008903Y006699D03*
X010496Y006791D03*
X010496Y006121D03*
X010903Y003919D03*
X010903Y003250D03*
X011517Y002915D03*
X011517Y002246D03*
X008590Y001989D03*
X008590Y002658D03*
X002242Y003299D03*
X001684Y003256D03*
X001096Y003251D03*
X001096Y003920D03*
X001684Y003925D03*
X002242Y003969D03*
D23*
X011953Y009156D03*
X011953Y009904D03*
X012977Y009904D03*
X012977Y009530D03*
X012977Y009156D03*
D24*
X013157Y008392D03*
X012055Y008392D03*
D25*
X012225Y011978D03*
X011225Y011978D03*
X010225Y011978D03*
X010225Y012978D03*
X011225Y012978D03*
X012225Y012978D03*
X013225Y012978D03*
X014225Y012978D03*
X014225Y011978D03*
X013225Y011978D03*
D26*
X009709Y004913D03*
X009709Y004598D03*
X009709Y004283D03*
X009709Y003968D03*
X009709Y003653D03*
X009709Y003338D03*
X008843Y003338D03*
X008843Y003653D03*
X008843Y003968D03*
X008843Y004283D03*
X008843Y004598D03*
X008843Y004913D03*
D27*
X009276Y004952D03*
X009276Y003299D03*
D28*
X012051Y001056D03*
X013051Y001056D03*
X014051Y001056D03*
X015051Y001056D03*
X016051Y001056D03*
X017625Y004275D03*
X017625Y005275D03*
X017625Y006275D03*
X017625Y007275D03*
X017625Y008275D03*
X017625Y009275D03*
X017625Y010275D03*
X020625Y010275D03*
X020625Y009275D03*
X020625Y008275D03*
X020625Y007275D03*
X020625Y006275D03*
X020625Y005275D03*
X020625Y004275D03*
X006325Y001325D03*
X001125Y007775D03*
X003625Y009525D03*
X004625Y009525D03*
X005625Y009525D03*
D29*
X009403Y002674D03*
X009403Y001768D03*
X010860Y001768D03*
X010860Y002674D03*
D30*
X007773Y005027D03*
X007773Y005499D03*
X007773Y005971D03*
X007773Y006444D03*
X007773Y006916D03*
X007773Y007389D03*
X007773Y007861D03*
X007773Y008334D03*
X007773Y008806D03*
X007773Y009279D03*
X007773Y009751D03*
X007773Y010223D03*
X002577Y010223D03*
X002577Y009751D03*
X002577Y009279D03*
X002577Y008806D03*
X002577Y008334D03*
X002577Y007861D03*
X002577Y007389D03*
X002577Y006916D03*
X002577Y006444D03*
X002577Y005971D03*
X002577Y005499D03*
X002577Y005027D03*
D31*
X003285Y003924D03*
X003915Y003924D03*
X004545Y003924D03*
X004427Y011326D03*
X004899Y011326D03*
X005451Y011326D03*
X005923Y011326D03*
X006395Y011326D03*
X006798Y011326D03*
X003955Y011326D03*
X003552Y011326D03*
D32*
X001699Y005313D03*
X001699Y004722D03*
X001092Y004733D03*
X001092Y005324D03*
X016053Y004025D03*
X016557Y003761D03*
X016053Y003435D03*
X016557Y004352D03*
X016075Y009380D03*
X016075Y009970D03*
D33*
X015165Y006950D03*
X015696Y006414D03*
D34*
G36*
X022462Y005150D02*
X021906Y004594D01*
X021558Y004942D01*
X022114Y005498D01*
X022462Y005150D01*
G37*
G36*
X022851Y004760D02*
X022295Y004204D01*
X021947Y004552D01*
X022503Y005108D01*
X022851Y004760D01*
G37*
G36*
X023241Y004371D02*
X022685Y003815D01*
X022337Y004163D01*
X022893Y004719D01*
X023241Y004371D01*
G37*
G36*
X025092Y006222D02*
X024536Y005666D01*
X024188Y006014D01*
X024744Y006570D01*
X025092Y006222D01*
G37*
G36*
X024703Y006612D02*
X024147Y006056D01*
X023799Y006404D01*
X024355Y006960D01*
X024703Y006612D01*
G37*
G36*
X024313Y007001D02*
X023757Y006445D01*
X023409Y006793D01*
X023965Y007349D01*
X024313Y007001D01*
G37*
D35*
G36*
X022759Y006719D02*
X022188Y006148D01*
X021591Y006745D01*
X022162Y007316D01*
X022759Y006719D01*
G37*
G36*
X025059Y004419D02*
X024488Y003848D01*
X023891Y004445D01*
X024462Y005016D01*
X025059Y004419D01*
G37*
D36*
X022796Y006111D03*
D37*
X023854Y005053D03*
D38*
X007325Y001325D03*
X001125Y008775D03*
X006625Y009525D03*
D39*
X008622Y009409D03*
X008605Y010455D03*
X010494Y010974D03*
X010733Y009318D03*
X011227Y008634D03*
X011023Y008026D03*
X010874Y007496D03*
X012139Y007578D03*
X014173Y007130D03*
X014139Y008795D03*
X016248Y012082D03*
X010683Y013932D03*
X007805Y012655D03*
X005814Y012863D03*
X001883Y009176D03*
X004425Y006575D03*
X003275Y005075D03*
X006575Y006625D03*
X007144Y006545D03*
X006871Y007641D03*
X008346Y006205D03*
X008889Y006606D03*
X009047Y005566D03*
X010316Y004997D03*
X010789Y005656D03*
X012394Y005041D03*
X010894Y003163D03*
X010194Y002863D03*
X010126Y001735D03*
X008587Y002911D03*
X008072Y003222D03*
X008335Y001446D03*
X011994Y002506D03*
X015794Y002163D03*
X009155Y008355D03*
D40*
X007975Y006825D03*
X009675Y005475D03*
X012475Y003675D03*
X013775Y004425D03*
X013275Y004875D03*
X013975Y005075D03*
D41*
X023975Y005675D03*
M02*
