%
M48
M72
T01C0.0236
T02C0.0276
T03C0.0295
T04C0.0315
T05C0.0350
T06C0.0400
T07C0.0413
T08C0.0580
T09C0.1260
%
T01
X3050Y5144
X4200Y6644
X6350Y6694
X6919Y6614
X6646Y7711
X8121Y6274
X8719Y6714
X8822Y5635
X9798Y5635
X10391Y4916
X12169Y5110
X13729Y5375
X13891Y3605
X15569Y2232
X11989Y1177
X11323Y1901
X11769Y2576
X10669Y3232
X9969Y2932
X9901Y1804
X8637Y1166
X8110Y1516
X8262Y2980
X7847Y3291
X10649Y7566
X10798Y8096
X11002Y8703
X10508Y9387
X8930Y8424
X8397Y9478
X8380Y10524
X10269Y11043
X7580Y12724
X5589Y12932
X10458Y14002
X15464Y12875
X13914Y8864
X13948Y7199
X11914Y7648
X1658Y9246
X23750Y5744
T02
X2808Y12688
X2808Y13475
T03
X22571Y6180
T04
X15471Y6484
X14940Y7019
T05
X7100Y1394
X6100Y1394
X900Y7844
X900Y8844
T06
X3400Y9594
X4400Y9594
X5400Y9594
X6400Y9594
X10000Y12047
X11000Y12047
X11000Y13047
X10000Y13047
X12000Y13047
X13000Y13047
X13000Y12047
X12000Y12047
X14000Y12047
X14000Y13047
X17400Y10344
X17400Y9344
X17400Y8344
X17400Y7344
X17400Y6344
X17400Y5344
X17400Y4344
X20400Y4344
X20400Y5344
X20400Y6344
X20400Y7344
X20400Y8344
X20400Y9344
X20400Y10344
X15826Y1125
X14826Y1125
X13826Y1125
X12826Y1125
T07
X23629Y5123
T08
X7100Y1394
X6100Y1394
X900Y7844
X900Y8844
T09
X1343Y2268
X1343Y13094
X16894Y13094
X16894Y2268
M30
