G75*
G70*
%OFA0B0*%
%FSLAX24Y24*%
%IPPOS*%
%LPD*%
%AMOC8*
5,1,8,0,0,1.08239X$1,22.5*
%
%ADD10C,0.1320*%
%ADD11C,0.0630*%
%ADD12OC8,0.0800*%
%ADD13C,0.0800*%
%ADD14C,0.0720*%
%ADD15C,0.0355*%
%ADD16C,0.0473*%
%ADD17R,0.0800X0.0800*%
%ADD18C,0.0456*%
%ADD19C,0.0420*%
%ADD20R,0.0456X0.0456*%
D10*
X001568Y002198D03*
X001568Y013025D03*
X017119Y013025D03*
X017119Y002198D03*
D11*
X003033Y012618D03*
X003033Y013406D03*
D12*
X010225Y012978D03*
X010225Y011978D03*
X011225Y011978D03*
X012225Y011978D03*
X012225Y012978D03*
X011225Y012978D03*
X013225Y012978D03*
X014225Y012978D03*
X014225Y011978D03*
X013225Y011978D03*
D13*
X017625Y010275D03*
X017625Y009275D03*
X017625Y008275D03*
X017625Y007275D03*
X017625Y006275D03*
X017625Y005275D03*
X017625Y004275D03*
X020625Y004275D03*
X020625Y005275D03*
X020625Y006275D03*
X020625Y007275D03*
X020625Y008275D03*
X020625Y009275D03*
X020625Y010275D03*
X016051Y001056D03*
X015051Y001056D03*
X014051Y001056D03*
X013051Y001056D03*
X012051Y001056D03*
X006325Y001325D03*
X001125Y007775D03*
X003625Y009525D03*
X004625Y009525D03*
X005625Y009525D03*
D14*
X015165Y006950D03*
X015696Y006414D03*
D15*
X022796Y006111D03*
D16*
X023854Y005053D03*
D17*
X007325Y001325D03*
X001125Y008775D03*
X006625Y009525D03*
D18*
X008622Y009409D03*
X008605Y010455D03*
X010494Y010974D03*
X010733Y009318D03*
X011227Y008634D03*
X011023Y008026D03*
X010874Y007496D03*
X012139Y007578D03*
X014173Y007130D03*
X014139Y008795D03*
X016248Y012082D03*
X010683Y013932D03*
X007805Y012655D03*
X005814Y012863D03*
X001883Y009176D03*
X004425Y006575D03*
X003275Y005075D03*
X006575Y006625D03*
X007144Y006545D03*
X006871Y007641D03*
X008346Y006205D03*
X008889Y006606D03*
X009047Y005566D03*
X010316Y004997D03*
X010789Y005656D03*
X012394Y005041D03*
X010894Y003163D03*
X010194Y002863D03*
X010126Y001735D03*
X008587Y002911D03*
X008072Y003222D03*
X008335Y001446D03*
X011994Y002506D03*
X015794Y002163D03*
X009155Y008355D03*
D19*
X007975Y006825D03*
X009675Y005475D03*
X012475Y003675D03*
X013775Y004425D03*
X013275Y004875D03*
X013975Y005075D03*
D20*
X023975Y005675D03*
M02*
