%
M48
M72
T01C0.0200
T02C0.0236
T03C0.0295
T04C0.0315
T05C0.0400
T06C0.0413
T07C0.1260
%
T01
X7975Y6825
X9675Y5475
X12475Y3675
X13775Y4425
X13275Y4875
X13975Y5075
T02
X12394Y5041
X10789Y5656
X10316Y4997
X9047Y5566
X8346Y6205
X8889Y6606
X7144Y6545
X6575Y6625
X6871Y7641
X9155Y8355
X8622Y9409
X8605Y10455
X10494Y10974
X10733Y9318
X11227Y8634
X11023Y8026
X10874Y7496
X12139Y7578
X14173Y7130
X14139Y8795
X16248Y12082
X10683Y13932
X7805Y12655
X5814Y12863
X1883Y9176
X4425Y6575
X3275Y5075
X8072Y3222
X8587Y2911
X10194Y2863
X10894Y3163
X11994Y2506
X10126Y1735
X8335Y1446
X15794Y2163
X23975Y5675
T03
X22796Y6111
T04
X15696Y6414
X15165Y6950
T05
X17625Y7275
X17625Y6275
X17625Y5275
X17625Y4275
X20625Y4275
X20625Y5275
X20625Y6275
X20625Y7275
X20625Y8275
X20625Y9275
X20625Y10275
X17625Y10275
X17625Y9275
X17625Y8275
X14225Y11978
X13225Y11978
X12225Y11978
X11225Y11978
X10225Y11978
X10225Y12978
X11225Y12978
X12225Y12978
X13225Y12978
X14225Y12978
X6625Y9525
X5625Y9525
X4625Y9525
X3625Y9525
X1125Y8775
X1125Y7775
X3388Y12683
X4388Y12683
X6325Y1325
X7325Y1325
X12051Y1056
X13051Y1056
X14051Y1056
X15051Y1056
X16051Y1056
T06
X23854Y5053
T07
X1568Y2198
X1568Y13025
X17119Y13025
X17119Y2198
M30
