G75*
G70*
%OFA0B0*%
%FSLAX24Y24*%
%IPPOS*%
%LPD*%
%AMOC8*
5,1,8,0,0,1.08239X$1,22.5*
%
%ADD10C,0.0000*%
%ADD11C,0.0100*%
%ADD12R,0.0630X0.0118*%
%ADD13R,0.0118X0.0630*%
%ADD14C,0.0360*%
%ADD15R,0.0217X0.0472*%
%ADD16C,0.0570*%
%ADD17R,0.0433X0.0394*%
%ADD18R,0.0117X0.0335*%
%ADD19R,0.0945X0.0650*%
%ADD20R,0.0276X0.0110*%
%ADD21R,0.0512X0.0512*%
%ADD22R,0.0740X0.0681*%
%ADD23R,0.0118X0.0315*%
%ADD24R,0.0394X0.0433*%
%ADD25R,0.0472X0.0217*%
%ADD26R,0.0551X0.0630*%
%ADD27OC8,0.0740*%
%ADD28R,0.0472X0.0197*%
%ADD29R,0.0197X0.0472*%
%ADD30R,0.0740X0.0740*%
%ADD31C,0.0740*%
%ADD32R,0.0276X0.0354*%
%ADD33R,0.0748X0.0433*%
%ADD34R,0.0630X0.0315*%
%ADD35R,0.0315X0.0630*%
%ADD36R,0.0315X0.0315*%
%ADD37C,0.0660*%
%ADD38R,0.0728X0.0433*%
%ADD39R,0.0748X0.0787*%
%ADD40C,0.0525*%
%ADD41C,0.0160*%
%ADD42C,0.0396*%
%ADD43R,0.0396X0.0396*%
D10*
X000774Y002268D02*
X000776Y002318D01*
X000782Y002368D01*
X000792Y002417D01*
X000806Y002465D01*
X000823Y002512D01*
X000844Y002557D01*
X000869Y002601D01*
X000897Y002642D01*
X000929Y002681D01*
X000963Y002718D01*
X001000Y002752D01*
X001040Y002782D01*
X001082Y002809D01*
X001126Y002833D01*
X001172Y002854D01*
X001219Y002870D01*
X001267Y002883D01*
X001317Y002892D01*
X001366Y002897D01*
X001417Y002898D01*
X001467Y002895D01*
X001516Y002888D01*
X001565Y002877D01*
X001613Y002862D01*
X001659Y002844D01*
X001704Y002822D01*
X001747Y002796D01*
X001788Y002767D01*
X001827Y002735D01*
X001863Y002700D01*
X001895Y002662D01*
X001925Y002622D01*
X001952Y002579D01*
X001975Y002535D01*
X001994Y002489D01*
X002010Y002441D01*
X002022Y002392D01*
X002030Y002343D01*
X002034Y002293D01*
X002034Y002243D01*
X002030Y002193D01*
X002022Y002144D01*
X002010Y002095D01*
X001994Y002047D01*
X001975Y002001D01*
X001952Y001957D01*
X001925Y001914D01*
X001895Y001874D01*
X001863Y001836D01*
X001827Y001801D01*
X001788Y001769D01*
X001747Y001740D01*
X001704Y001714D01*
X001659Y001692D01*
X001613Y001674D01*
X001565Y001659D01*
X001516Y001648D01*
X001467Y001641D01*
X001417Y001638D01*
X001366Y001639D01*
X001317Y001644D01*
X001267Y001653D01*
X001219Y001666D01*
X001172Y001682D01*
X001126Y001703D01*
X001082Y001727D01*
X001040Y001754D01*
X001000Y001784D01*
X000963Y001818D01*
X000929Y001855D01*
X000897Y001894D01*
X000869Y001935D01*
X000844Y001979D01*
X000823Y002024D01*
X000806Y002071D01*
X000792Y002119D01*
X000782Y002168D01*
X000776Y002218D01*
X000774Y002268D01*
X005871Y001394D02*
X005873Y001428D01*
X005879Y001461D01*
X005888Y001493D01*
X005902Y001524D01*
X005919Y001553D01*
X005939Y001580D01*
X005962Y001605D01*
X005988Y001627D01*
X006016Y001645D01*
X006046Y001660D01*
X006078Y001672D01*
X006111Y001680D01*
X006144Y001684D01*
X006178Y001684D01*
X006211Y001680D01*
X006244Y001672D01*
X006276Y001660D01*
X006306Y001645D01*
X006334Y001627D01*
X006360Y001605D01*
X006383Y001580D01*
X006403Y001553D01*
X006420Y001524D01*
X006434Y001493D01*
X006443Y001461D01*
X006449Y001428D01*
X006451Y001394D01*
X006449Y001360D01*
X006443Y001327D01*
X006434Y001295D01*
X006420Y001264D01*
X006403Y001235D01*
X006383Y001208D01*
X006360Y001183D01*
X006334Y001161D01*
X006306Y001143D01*
X006276Y001128D01*
X006244Y001116D01*
X006211Y001108D01*
X006178Y001104D01*
X006144Y001104D01*
X006111Y001108D01*
X006078Y001116D01*
X006046Y001128D01*
X006016Y001143D01*
X005988Y001161D01*
X005962Y001183D01*
X005939Y001208D01*
X005919Y001235D01*
X005902Y001264D01*
X005888Y001295D01*
X005879Y001327D01*
X005873Y001360D01*
X005871Y001394D01*
X006871Y001394D02*
X006873Y001428D01*
X006879Y001461D01*
X006888Y001493D01*
X006902Y001524D01*
X006919Y001553D01*
X006939Y001580D01*
X006962Y001605D01*
X006988Y001627D01*
X007016Y001645D01*
X007046Y001660D01*
X007078Y001672D01*
X007111Y001680D01*
X007144Y001684D01*
X007178Y001684D01*
X007211Y001680D01*
X007244Y001672D01*
X007276Y001660D01*
X007306Y001645D01*
X007334Y001627D01*
X007360Y001605D01*
X007383Y001580D01*
X007403Y001553D01*
X007420Y001524D01*
X007434Y001493D01*
X007443Y001461D01*
X007449Y001428D01*
X007451Y001394D01*
X007449Y001360D01*
X007443Y001327D01*
X007434Y001295D01*
X007420Y001264D01*
X007403Y001235D01*
X007383Y001208D01*
X007360Y001183D01*
X007334Y001161D01*
X007306Y001143D01*
X007276Y001128D01*
X007244Y001116D01*
X007211Y001108D01*
X007178Y001104D01*
X007144Y001104D01*
X007111Y001108D01*
X007078Y001116D01*
X007046Y001128D01*
X007016Y001143D01*
X006988Y001161D01*
X006962Y001183D01*
X006939Y001208D01*
X006919Y001235D01*
X006902Y001264D01*
X006888Y001295D01*
X006879Y001327D01*
X006873Y001360D01*
X006871Y001394D01*
X016325Y002268D02*
X016327Y002318D01*
X016333Y002368D01*
X016343Y002417D01*
X016357Y002465D01*
X016374Y002512D01*
X016395Y002557D01*
X016420Y002601D01*
X016448Y002642D01*
X016480Y002681D01*
X016514Y002718D01*
X016551Y002752D01*
X016591Y002782D01*
X016633Y002809D01*
X016677Y002833D01*
X016723Y002854D01*
X016770Y002870D01*
X016818Y002883D01*
X016868Y002892D01*
X016917Y002897D01*
X016968Y002898D01*
X017018Y002895D01*
X017067Y002888D01*
X017116Y002877D01*
X017164Y002862D01*
X017210Y002844D01*
X017255Y002822D01*
X017298Y002796D01*
X017339Y002767D01*
X017378Y002735D01*
X017414Y002700D01*
X017446Y002662D01*
X017476Y002622D01*
X017503Y002579D01*
X017526Y002535D01*
X017545Y002489D01*
X017561Y002441D01*
X017573Y002392D01*
X017581Y002343D01*
X017585Y002293D01*
X017585Y002243D01*
X017581Y002193D01*
X017573Y002144D01*
X017561Y002095D01*
X017545Y002047D01*
X017526Y002001D01*
X017503Y001957D01*
X017476Y001914D01*
X017446Y001874D01*
X017414Y001836D01*
X017378Y001801D01*
X017339Y001769D01*
X017298Y001740D01*
X017255Y001714D01*
X017210Y001692D01*
X017164Y001674D01*
X017116Y001659D01*
X017067Y001648D01*
X017018Y001641D01*
X016968Y001638D01*
X016917Y001639D01*
X016868Y001644D01*
X016818Y001653D01*
X016770Y001666D01*
X016723Y001682D01*
X016677Y001703D01*
X016633Y001727D01*
X016591Y001754D01*
X016551Y001784D01*
X016514Y001818D01*
X016480Y001855D01*
X016448Y001894D01*
X016420Y001935D01*
X016395Y001979D01*
X016374Y002024D01*
X016357Y002071D01*
X016343Y002119D01*
X016333Y002168D01*
X016327Y002218D01*
X016325Y002268D01*
X022484Y006180D02*
X022486Y006204D01*
X022492Y006227D01*
X022501Y006249D01*
X022514Y006269D01*
X022529Y006287D01*
X022548Y006302D01*
X022569Y006314D01*
X022591Y006322D01*
X022614Y006327D01*
X022638Y006328D01*
X022662Y006325D01*
X022684Y006318D01*
X022706Y006308D01*
X022726Y006295D01*
X022743Y006278D01*
X022757Y006259D01*
X022768Y006238D01*
X022776Y006215D01*
X022780Y006192D01*
X022780Y006168D01*
X022776Y006145D01*
X022768Y006122D01*
X022757Y006101D01*
X022743Y006082D01*
X022726Y006065D01*
X022706Y006052D01*
X022684Y006042D01*
X022662Y006035D01*
X022638Y006032D01*
X022614Y006033D01*
X022591Y006038D01*
X022569Y006046D01*
X022548Y006058D01*
X022529Y006073D01*
X022514Y006091D01*
X022501Y006111D01*
X022492Y006133D01*
X022486Y006156D01*
X022484Y006180D01*
X023483Y005123D02*
X023485Y005151D01*
X023491Y005179D01*
X023500Y005205D01*
X023513Y005231D01*
X023529Y005254D01*
X023549Y005274D01*
X023571Y005292D01*
X023595Y005307D01*
X023621Y005318D01*
X023648Y005326D01*
X023676Y005330D01*
X023704Y005330D01*
X023732Y005326D01*
X023759Y005318D01*
X023785Y005307D01*
X023809Y005292D01*
X023831Y005274D01*
X023851Y005254D01*
X023867Y005231D01*
X023880Y005205D01*
X023889Y005179D01*
X023895Y005151D01*
X023897Y005123D01*
X023895Y005095D01*
X023889Y005067D01*
X023880Y005041D01*
X023867Y005015D01*
X023851Y004992D01*
X023831Y004972D01*
X023809Y004954D01*
X023785Y004939D01*
X023759Y004928D01*
X023732Y004920D01*
X023704Y004916D01*
X023676Y004916D01*
X023648Y004920D01*
X023621Y004928D01*
X023595Y004939D01*
X023571Y004954D01*
X023549Y004972D01*
X023529Y004992D01*
X023513Y005015D01*
X023500Y005041D01*
X023491Y005067D01*
X023485Y005095D01*
X023483Y005123D01*
X025198Y000594D02*
X025211Y000594D01*
X039581Y000594D01*
X039581Y032090D01*
X000211Y032090D01*
X000211Y014797D01*
X000774Y013094D02*
X000776Y013144D01*
X000782Y013194D01*
X000792Y013243D01*
X000806Y013291D01*
X000823Y013338D01*
X000844Y013383D01*
X000869Y013427D01*
X000897Y013468D01*
X000929Y013507D01*
X000963Y013544D01*
X001000Y013578D01*
X001040Y013608D01*
X001082Y013635D01*
X001126Y013659D01*
X001172Y013680D01*
X001219Y013696D01*
X001267Y013709D01*
X001317Y013718D01*
X001366Y013723D01*
X001417Y013724D01*
X001467Y013721D01*
X001516Y013714D01*
X001565Y013703D01*
X001613Y013688D01*
X001659Y013670D01*
X001704Y013648D01*
X001747Y013622D01*
X001788Y013593D01*
X001827Y013561D01*
X001863Y013526D01*
X001895Y013488D01*
X001925Y013448D01*
X001952Y013405D01*
X001975Y013361D01*
X001994Y013315D01*
X002010Y013267D01*
X002022Y013218D01*
X002030Y013169D01*
X002034Y013119D01*
X002034Y013069D01*
X002030Y013019D01*
X002022Y012970D01*
X002010Y012921D01*
X001994Y012873D01*
X001975Y012827D01*
X001952Y012783D01*
X001925Y012740D01*
X001895Y012700D01*
X001863Y012662D01*
X001827Y012627D01*
X001788Y012595D01*
X001747Y012566D01*
X001704Y012540D01*
X001659Y012518D01*
X001613Y012500D01*
X001565Y012485D01*
X001516Y012474D01*
X001467Y012467D01*
X001417Y012464D01*
X001366Y012465D01*
X001317Y012470D01*
X001267Y012479D01*
X001219Y012492D01*
X001172Y012508D01*
X001126Y012529D01*
X001082Y012553D01*
X001040Y012580D01*
X001000Y012610D01*
X000963Y012644D01*
X000929Y012681D01*
X000897Y012720D01*
X000869Y012761D01*
X000844Y012805D01*
X000823Y012850D01*
X000806Y012897D01*
X000792Y012945D01*
X000782Y012994D01*
X000776Y013044D01*
X000774Y013094D01*
X016325Y013094D02*
X016327Y013144D01*
X016333Y013194D01*
X016343Y013243D01*
X016357Y013291D01*
X016374Y013338D01*
X016395Y013383D01*
X016420Y013427D01*
X016448Y013468D01*
X016480Y013507D01*
X016514Y013544D01*
X016551Y013578D01*
X016591Y013608D01*
X016633Y013635D01*
X016677Y013659D01*
X016723Y013680D01*
X016770Y013696D01*
X016818Y013709D01*
X016868Y013718D01*
X016917Y013723D01*
X016968Y013724D01*
X017018Y013721D01*
X017067Y013714D01*
X017116Y013703D01*
X017164Y013688D01*
X017210Y013670D01*
X017255Y013648D01*
X017298Y013622D01*
X017339Y013593D01*
X017378Y013561D01*
X017414Y013526D01*
X017446Y013488D01*
X017476Y013448D01*
X017503Y013405D01*
X017526Y013361D01*
X017545Y013315D01*
X017561Y013267D01*
X017573Y013218D01*
X017581Y013169D01*
X017585Y013119D01*
X017585Y013069D01*
X017581Y013019D01*
X017573Y012970D01*
X017561Y012921D01*
X017545Y012873D01*
X017526Y012827D01*
X017503Y012783D01*
X017476Y012740D01*
X017446Y012700D01*
X017414Y012662D01*
X017378Y012627D01*
X017339Y012595D01*
X017298Y012566D01*
X017255Y012540D01*
X017210Y012518D01*
X017164Y012500D01*
X017116Y012485D01*
X017067Y012474D01*
X017018Y012467D01*
X016968Y012464D01*
X016917Y012465D01*
X016868Y012470D01*
X016818Y012479D01*
X016770Y012492D01*
X016723Y012508D01*
X016677Y012529D01*
X016633Y012553D01*
X016591Y012580D01*
X016551Y012610D01*
X016514Y012644D01*
X016480Y012681D01*
X016448Y012720D01*
X016420Y012761D01*
X016395Y012805D01*
X016374Y012850D01*
X016357Y012897D01*
X016343Y012945D01*
X016333Y012994D01*
X016327Y013044D01*
X016325Y013094D01*
D11*
X025198Y000594D02*
X000211Y000594D01*
X000211Y014797D01*
X025198Y014797D01*
X025261Y014794D02*
X025261Y000594D01*
X025211Y000594D01*
X017461Y004344D02*
X017111Y004694D01*
X016911Y004694D01*
X016872Y004734D01*
X014715Y004734D01*
X014715Y004931D02*
X017047Y004931D01*
X017461Y005344D01*
X016861Y005344D02*
X016861Y005894D01*
X017011Y005894D01*
X017461Y006344D01*
X016611Y006494D02*
X016611Y005444D01*
X016491Y005324D01*
X014715Y005324D01*
X014715Y005127D02*
X016644Y005127D01*
X016861Y005344D01*
X016411Y005644D02*
X016411Y008294D01*
X017461Y009344D01*
X017461Y010344D02*
X016061Y008944D01*
X015911Y009094D01*
X015911Y009449D01*
X016061Y008944D02*
X015911Y008794D01*
X014611Y008794D01*
X014112Y008295D01*
X014112Y008120D01*
X013526Y007534D01*
X012887Y007534D01*
X012888Y007533D01*
X012887Y007534D02*
X012861Y007534D01*
X012806Y007479D01*
X012806Y006053D01*
X012790Y006037D01*
X012790Y005150D01*
X012761Y005121D01*
X012761Y004394D01*
X012510Y004143D01*
X011487Y004143D01*
X010894Y004143D01*
X010739Y003988D01*
X010361Y004344D02*
X011482Y004344D01*
X011487Y004340D01*
X011486Y004536D02*
X011487Y004537D01*
X011486Y004536D02*
X010302Y004536D01*
X009890Y004124D01*
X009911Y004103D01*
X009911Y003294D01*
X009711Y003094D01*
X009711Y002294D01*
X009254Y001838D01*
X009240Y001838D01*
X008560Y001838D01*
X008426Y002059D01*
X007943Y001944D02*
X008171Y001516D01*
X008569Y001516D01*
X009571Y001414D01*
X011519Y001414D01*
X012400Y002296D01*
X012400Y002813D01*
X012412Y002824D01*
X012411Y002823D01*
X012608Y002823D02*
X012609Y002824D01*
X012608Y002823D02*
X012608Y002161D01*
X011505Y001116D01*
X008699Y001166D01*
X008538Y000844D02*
X008361Y000867D01*
X011662Y000860D01*
X012050Y001177D01*
X013888Y001125D02*
X013936Y001174D01*
X013936Y001339D01*
X014476Y001879D01*
X014476Y003091D01*
X014308Y003259D01*
X013714Y003259D01*
X013516Y003457D01*
X013516Y003709D01*
X013753Y003946D01*
X014715Y003946D01*
X014723Y004135D02*
X014715Y004143D01*
X014723Y004135D02*
X015064Y004135D01*
X015184Y004015D01*
X015184Y003247D01*
X015136Y003199D01*
X015124Y003199D01*
X014888Y002962D01*
X014888Y001125D01*
X015298Y002743D02*
X015502Y002947D01*
X015502Y003196D01*
X015809Y003504D01*
X015889Y003504D01*
X016394Y003667D02*
X016857Y003403D01*
X016394Y003667D02*
X016394Y003831D01*
X015889Y004095D02*
X015822Y004095D01*
X015580Y004337D01*
X014718Y004337D01*
X014715Y004340D01*
X014716Y004536D02*
X014715Y004537D01*
X014716Y004536D02*
X016167Y004536D01*
X016282Y004421D01*
X016394Y004421D01*
X016288Y005521D02*
X014715Y005521D01*
X014184Y006053D02*
X014615Y006484D01*
X015532Y006484D01*
X016611Y006494D02*
X017461Y007344D01*
X016411Y005644D02*
X016288Y005521D01*
X014009Y006075D02*
X013987Y006053D01*
X014009Y006075D02*
X014009Y007199D01*
X013417Y006959D02*
X013396Y006938D01*
X013396Y006053D01*
X013396Y006008D01*
X013396Y005985D01*
X013419Y005962D01*
X013402Y006002D02*
X013396Y006008D01*
X013790Y006052D02*
X013790Y006053D01*
X013790Y006052D02*
X013790Y005375D01*
X012412Y006053D02*
X012412Y006496D01*
X012411Y006497D01*
X011731Y006497D01*
X011648Y006581D01*
X011648Y007678D01*
X011326Y008000D01*
X011326Y008441D01*
X011063Y008703D01*
X010731Y009225D02*
X010569Y009387D01*
X010553Y009371D01*
X010553Y007847D01*
X010304Y007599D01*
X009683Y007599D01*
X009576Y007491D01*
X009576Y006995D01*
X010048Y006522D01*
X010048Y006224D01*
X009547Y006235D02*
X009547Y006569D01*
X009357Y006760D01*
X009346Y006760D01*
X009278Y006828D01*
X009278Y007901D01*
X009288Y007911D01*
X009091Y007911D02*
X009105Y006757D01*
X009105Y006234D01*
X009112Y006226D01*
X009112Y005022D01*
X009112Y005407D01*
X008884Y005635D01*
X008448Y005293D02*
X008448Y006089D01*
X008593Y006234D01*
X008593Y006310D01*
X008396Y006507D01*
X008396Y006507D01*
X008126Y006776D01*
X008126Y009701D01*
X008043Y009784D01*
X008177Y009918D01*
X008893Y009918D01*
X008458Y009483D01*
X008458Y009478D01*
X008043Y009784D02*
X008002Y009826D01*
X007615Y009826D01*
X007610Y009820D01*
X007610Y010293D02*
X006763Y010293D01*
X006211Y010844D01*
X006211Y011375D01*
X006232Y011395D01*
X006326Y011490D01*
X006316Y011490D01*
X005817Y011990D01*
X006486Y011990D02*
X006487Y011989D01*
X007041Y011989D01*
X007523Y011507D01*
X007928Y011507D01*
X008238Y011197D01*
X009183Y011197D01*
X009183Y010698D01*
X009163Y010678D01*
X009833Y010678D02*
X010065Y010678D01*
X010692Y010051D01*
X010983Y010342D01*
X012573Y010342D01*
X012600Y010314D01*
X012813Y010102D01*
X012813Y009973D01*
X013032Y009973D01*
X013361Y009644D01*
X013361Y009294D01*
X012882Y009294D01*
X012813Y009225D01*
X013685Y009768D02*
X013702Y009786D01*
X013702Y010517D01*
X013334Y010885D01*
X013334Y011119D01*
X012983Y010919D01*
X012600Y010687D01*
X012600Y010314D01*
X011931Y010687D02*
X011597Y010687D01*
X010743Y011540D01*
X008698Y011540D01*
X008690Y011532D01*
X008673Y011549D01*
X008673Y011901D01*
X008869Y011901D02*
X008869Y012386D01*
X008811Y012444D01*
X007911Y012444D01*
X007661Y012694D01*
X007611Y012694D01*
X007324Y012568D02*
X007777Y012115D01*
X007788Y012115D01*
X007990Y011914D01*
X008266Y011914D01*
X008279Y011901D01*
X008476Y011901D02*
X008476Y011732D01*
X008251Y011507D01*
X007928Y011507D01*
X007610Y010440D02*
X007610Y010293D01*
X008893Y009918D02*
X008893Y009015D01*
X008894Y009014D01*
X009091Y009014D02*
X009091Y009382D01*
X009170Y009461D01*
X010027Y009461D01*
X010056Y009461D01*
X010142Y009547D01*
X010142Y009881D01*
X010188Y009886D01*
X010027Y009461D02*
X010063Y009425D01*
X010063Y008843D01*
X010047Y008827D01*
X010731Y009225D02*
X011789Y009225D01*
X011789Y008563D01*
X011891Y008462D01*
X012819Y007534D01*
X012861Y007534D01*
X012020Y008332D02*
X011891Y008462D01*
X011281Y007673D02*
X010859Y008096D01*
X010710Y007566D02*
X010710Y007516D01*
X010346Y007152D01*
X010346Y005463D01*
X010478Y005330D01*
X011481Y005330D01*
X011487Y005324D01*
X011487Y005127D02*
X011504Y005110D01*
X012230Y005110D01*
X012085Y005570D02*
X011943Y005620D01*
X011670Y005844D01*
X011687Y005844D01*
X011281Y006249D01*
X011281Y007673D01*
X009547Y006235D02*
X009536Y006224D01*
X009536Y004991D01*
X009545Y004982D01*
X009545Y005322D01*
X009859Y005635D01*
X009611Y004734D02*
X009545Y004667D01*
X008679Y004667D01*
X008697Y004930D02*
X008679Y004948D01*
X008679Y004982D01*
X008679Y005062D01*
X008448Y005293D01*
X008199Y005470D02*
X008199Y006258D01*
X008183Y006274D01*
X007610Y005568D02*
X006994Y005568D01*
X006921Y005642D01*
X006921Y006554D01*
X006981Y006614D01*
X006563Y006831D02*
X006548Y006831D01*
X006411Y006694D01*
X006563Y006831D02*
X007213Y007482D01*
X007586Y007482D01*
X007610Y007458D01*
X006707Y007711D02*
X006345Y007711D01*
X004461Y009594D01*
X004261Y008794D02*
X003461Y009594D01*
X004261Y008794D02*
X004261Y006644D01*
X004565Y005568D02*
X006707Y007711D01*
X006563Y006831D02*
X006563Y004722D01*
X006956Y004329D01*
X006964Y004329D01*
X007908Y003385D01*
X007908Y003291D01*
X008116Y003654D02*
X008116Y004743D01*
X008323Y004951D01*
X008647Y004951D01*
X008679Y004982D01*
X009112Y004588D02*
X009153Y004629D01*
X009507Y004629D01*
X009545Y004667D01*
X009611Y004734D02*
X011487Y004734D01*
X010361Y004344D02*
X010161Y004144D01*
X010161Y003294D01*
X010711Y002744D01*
X010698Y002744D01*
X010696Y002743D01*
X010711Y002744D02*
X011161Y002744D01*
X011306Y002889D01*
X011306Y002953D01*
X011354Y002984D01*
X011830Y002576D02*
X012018Y002764D01*
X012018Y002824D01*
X010739Y003241D02*
X010730Y003232D01*
X010739Y003241D02*
X010739Y003319D01*
X009112Y003368D02*
X009073Y003408D01*
X008679Y003408D01*
X008363Y003408D01*
X008116Y003654D01*
X008679Y003723D02*
X008744Y003723D01*
X009112Y004090D01*
X009112Y004588D01*
X008199Y005470D02*
X007825Y005096D01*
X007610Y005096D01*
X005661Y003444D02*
X005661Y000944D01*
X005761Y000844D01*
X008538Y000844D01*
X008386Y000868D02*
X008361Y000867D01*
X009240Y001838D02*
X009380Y001838D01*
X007943Y001944D02*
X006711Y001944D01*
X006161Y001394D01*
X005661Y003444D02*
X004010Y005096D01*
X003160Y005096D01*
X003111Y005144D01*
X003160Y005096D02*
X002413Y005096D01*
X002413Y005568D02*
X004565Y005568D01*
X003121Y003994D02*
X003121Y003583D01*
X002839Y003300D01*
X002147Y003300D01*
X002079Y003369D01*
X002079Y003171D01*
X001520Y003171D01*
X001520Y003325D01*
X001646Y003199D01*
X002079Y004038D02*
X002079Y004251D01*
X002113Y004286D01*
X001845Y004553D01*
X001845Y005867D01*
X002018Y006041D01*
X002413Y006041D01*
X008739Y007437D02*
X008789Y007543D01*
X008904Y007658D01*
X008904Y007901D01*
X008894Y007911D01*
X010857Y009886D02*
X010692Y010051D01*
X009852Y010698D02*
X009833Y010678D01*
X009852Y010698D02*
X009852Y011197D01*
X010006Y011043D01*
X010330Y011043D01*
X011555Y011559D02*
X011919Y011194D01*
X011555Y011559D02*
X011555Y012385D01*
X011389Y012550D01*
X011580Y012741D01*
X011579Y012742D01*
X011579Y013362D01*
X011974Y013757D01*
X011974Y013893D01*
X012195Y014326D02*
X011003Y014326D01*
X010992Y014315D01*
X011137Y014171D01*
X011137Y014087D01*
X011075Y014025D01*
X011208Y013893D01*
X011305Y013893D01*
X011075Y014025D02*
X010494Y013444D01*
X010458Y013444D01*
X010061Y013047D01*
X009783Y012550D02*
X009518Y012285D01*
X009518Y012169D01*
X009249Y011901D01*
X009066Y011901D01*
X009783Y012550D02*
X011389Y012550D01*
X012589Y011194D02*
X012747Y011194D01*
X012997Y011445D01*
X013459Y011445D01*
X014061Y012047D01*
X014003Y011989D01*
X014003Y011119D01*
X015511Y010679D02*
X015511Y010444D01*
X015911Y010044D01*
X015911Y010040D01*
X015511Y010679D02*
X015526Y010694D01*
X012595Y013903D02*
X012595Y013926D01*
X012195Y014326D01*
X010992Y014315D02*
X010945Y014362D01*
X008953Y014362D01*
X008869Y014278D01*
X008869Y013062D01*
X008673Y013062D02*
X008661Y013074D01*
X008661Y013494D01*
X008165Y013990D01*
X007767Y013990D01*
X008279Y013062D02*
X006728Y013062D01*
X006237Y013142D02*
X005860Y013142D01*
X005650Y012932D01*
X006456Y012568D02*
X007324Y012568D01*
X008476Y012678D02*
X008476Y013062D01*
X009066Y013062D02*
X009066Y013637D01*
X009359Y013929D01*
X010028Y013929D02*
X009263Y013164D01*
X009263Y012580D01*
X012215Y006053D02*
X012215Y005701D01*
X012085Y005570D01*
X013952Y003605D02*
X014002Y003555D01*
X014713Y003555D01*
X014715Y003553D01*
D12*
X014715Y003553D03*
X014715Y003749D03*
X014715Y003946D03*
X014715Y004143D03*
X014715Y004340D03*
X014715Y004537D03*
X014715Y004734D03*
X014715Y004931D03*
X014715Y005127D03*
X014715Y005324D03*
X014715Y005521D03*
X014715Y003356D03*
X011487Y003356D03*
X011487Y003553D03*
X011487Y003749D03*
X011487Y003946D03*
X011487Y004143D03*
X011487Y004340D03*
X011487Y004537D03*
X011487Y004734D03*
X011487Y004931D03*
X011487Y005127D03*
X011487Y005324D03*
X011487Y005521D03*
D13*
X012018Y006053D03*
X012215Y006053D03*
X012412Y006053D03*
X012609Y006053D03*
X012806Y006053D03*
X013003Y006053D03*
X013199Y006053D03*
X013396Y006053D03*
X013593Y006053D03*
X013790Y006053D03*
X013987Y006053D03*
X014184Y006053D03*
X014184Y002824D03*
X013987Y002824D03*
X013790Y002824D03*
X013593Y002824D03*
X013396Y002824D03*
X013199Y002824D03*
X013003Y002824D03*
X012806Y002824D03*
X012609Y002824D03*
X012412Y002824D03*
X012215Y002824D03*
X012018Y002824D03*
D14*
X001680Y007845D03*
X001680Y008357D03*
X001070Y008613D03*
X000952Y008101D03*
X001070Y007590D03*
D15*
X000965Y011068D03*
X001713Y011068D03*
X001713Y012092D03*
X001339Y012092D03*
X000965Y012092D03*
D16*
X002869Y012688D03*
X002869Y013475D03*
D17*
X005787Y012568D03*
X006014Y013107D03*
X006683Y013107D03*
X006456Y012568D03*
X006486Y011990D03*
X005817Y011990D03*
X008893Y009918D03*
X009562Y009918D03*
X010188Y009886D03*
X010857Y009886D03*
X009833Y010678D03*
X009852Y011197D03*
X009183Y011197D03*
X009163Y010678D03*
X011931Y010687D03*
X011919Y011194D03*
X012589Y011194D03*
X012600Y010687D03*
X013334Y011119D03*
X014003Y011119D03*
X013702Y010517D03*
X014371Y010517D03*
X014354Y009768D03*
X013685Y009768D03*
X014112Y008120D03*
X014781Y008120D03*
X012861Y007534D03*
X012192Y007534D03*
X015526Y010694D03*
X016196Y010694D03*
X018926Y009344D03*
X019596Y009344D03*
X019596Y007344D03*
X018926Y007344D03*
X018926Y006344D03*
X019596Y006344D03*
X019596Y005344D03*
X018926Y005344D03*
X018926Y004344D03*
X019596Y004344D03*
X017527Y003403D03*
X016857Y003403D03*
X015967Y002743D03*
X015298Y002743D03*
X001774Y009941D03*
X001313Y010399D03*
X001104Y009941D03*
X000643Y010399D03*
X009359Y013929D03*
X010028Y013929D03*
X011305Y013893D03*
X011974Y013893D03*
X012595Y013903D03*
X013265Y013903D03*
D18*
X009066Y013062D03*
X008869Y013062D03*
X008673Y013062D03*
X008476Y013062D03*
X008279Y013062D03*
X008279Y011901D03*
X008476Y011901D03*
X008673Y011901D03*
X008869Y011901D03*
X009066Y011901D03*
D19*
X008673Y012481D03*
D20*
X008082Y012383D03*
X008082Y012580D03*
X009263Y012580D03*
X009263Y012383D03*
D21*
X007767Y013990D03*
X006586Y013990D03*
D22*
X008993Y008462D03*
D23*
X009091Y007911D03*
X008894Y007911D03*
X008697Y007911D03*
X009288Y007911D03*
X009288Y009014D03*
X009091Y009014D03*
X008894Y009014D03*
X008697Y009014D03*
D24*
X010047Y008827D03*
X010047Y008158D03*
X008739Y007437D03*
X008739Y006768D03*
X010739Y003988D03*
X010739Y003319D03*
X011354Y002984D03*
X011354Y002315D03*
X008426Y002059D03*
X008426Y002728D03*
X002079Y003369D03*
X001520Y003325D03*
X000932Y003320D03*
X000932Y003990D03*
X001520Y003994D03*
X002079Y004038D03*
D25*
X011789Y009225D03*
X011789Y009973D03*
X012813Y009973D03*
X012813Y009599D03*
X012813Y009225D03*
D26*
X012993Y008462D03*
X011891Y008462D03*
D27*
X012061Y012047D03*
X013061Y012047D03*
X013061Y013047D03*
X012061Y013047D03*
X011061Y013047D03*
X010061Y013047D03*
X010061Y012047D03*
X011061Y012047D03*
X014061Y012047D03*
X014061Y013047D03*
D28*
X009545Y004982D03*
X009545Y004667D03*
X009545Y004352D03*
X009545Y004037D03*
X009545Y003723D03*
X009545Y003408D03*
X008679Y003408D03*
X008679Y003723D03*
X008679Y004037D03*
X008679Y004352D03*
X008679Y004667D03*
X008679Y004982D03*
D29*
X009112Y005022D03*
X009112Y003368D03*
D30*
X012888Y001125D03*
X006461Y009594D03*
D31*
X005461Y009594D03*
X004461Y009594D03*
X003461Y009594D03*
X013888Y001125D03*
X014888Y001125D03*
X015888Y001125D03*
X017461Y004344D03*
X017461Y005344D03*
X017461Y006344D03*
X017461Y007344D03*
X017461Y008344D03*
X017461Y009344D03*
X017461Y010344D03*
X020461Y010344D03*
X020461Y009344D03*
X020461Y008344D03*
X020461Y007344D03*
X020461Y006344D03*
X020461Y005344D03*
X020461Y004344D03*
D32*
X010048Y006224D03*
X009536Y006224D03*
X009105Y006234D03*
X008593Y006234D03*
D33*
X009240Y002743D03*
X009240Y001838D03*
X010696Y001838D03*
X010696Y002743D03*
D34*
X007610Y005096D03*
X007610Y005568D03*
X007610Y006041D03*
X007610Y006513D03*
X007610Y006986D03*
X007610Y007458D03*
X007610Y007931D03*
X007610Y008403D03*
X007610Y008876D03*
X007610Y009348D03*
X007610Y009820D03*
X007610Y010293D03*
X002413Y010293D03*
X002413Y009820D03*
X002413Y009348D03*
X002413Y008876D03*
X002413Y008403D03*
X002413Y007931D03*
X002413Y007458D03*
X002413Y006986D03*
X002413Y006513D03*
X002413Y006041D03*
X002413Y005568D03*
X002413Y005096D03*
D35*
X003121Y003994D03*
X003751Y003994D03*
X004381Y003994D03*
X004263Y011395D03*
X003791Y011395D03*
X003388Y011395D03*
X004736Y011395D03*
X005287Y011395D03*
X005759Y011395D03*
X006232Y011395D03*
X006634Y011395D03*
D36*
X001535Y005382D03*
X000929Y005393D03*
X000929Y004803D03*
X001535Y004791D03*
X015889Y004095D03*
X016394Y003831D03*
X015889Y003504D03*
X016394Y004421D03*
X015911Y009449D03*
X015911Y010040D03*
D37*
X015001Y007019D03*
X015532Y006484D03*
D38*
G36*
X022256Y005220D02*
X021742Y004706D01*
X021436Y005012D01*
X021950Y005526D01*
X022256Y005220D01*
G37*
G36*
X022645Y004830D02*
X022131Y004316D01*
X021825Y004622D01*
X022339Y005136D01*
X022645Y004830D01*
G37*
G36*
X023035Y004440D02*
X022521Y003926D01*
X022215Y004232D01*
X022729Y004746D01*
X023035Y004440D01*
G37*
G36*
X024886Y006291D02*
X024372Y005777D01*
X024066Y006083D01*
X024580Y006597D01*
X024886Y006291D01*
G37*
G36*
X024497Y006681D02*
X023983Y006167D01*
X023677Y006473D01*
X024191Y006987D01*
X024497Y006681D01*
G37*
G36*
X024107Y007071D02*
X023593Y006557D01*
X023287Y006863D01*
X023801Y007377D01*
X024107Y007071D01*
G37*
D39*
G36*
X022553Y006788D02*
X022024Y006259D01*
X021469Y006814D01*
X021998Y007343D01*
X022553Y006788D01*
G37*
G36*
X024853Y004489D02*
X024324Y003960D01*
X023769Y004515D01*
X024298Y005044D01*
X024853Y004489D01*
G37*
D40*
X007161Y001394D03*
X006161Y001394D03*
D41*
X008205Y003124D02*
X008247Y003224D01*
X008247Y003255D01*
X008284Y003218D01*
X008336Y003218D01*
X008385Y003169D01*
X008874Y003169D01*
X008874Y003100D01*
X008808Y003100D01*
X008765Y003057D01*
X008734Y003088D01*
X008693Y003112D01*
X008647Y003124D01*
X008445Y003124D01*
X008445Y002746D01*
X008408Y002746D01*
X008408Y003124D01*
X008206Y003124D01*
X008205Y003124D01*
X008208Y003130D02*
X008874Y003130D01*
X008445Y002972D02*
X008408Y002972D01*
X008408Y002813D02*
X008445Y002813D01*
X008679Y003723D02*
X008934Y003723D01*
X008934Y003723D01*
X008679Y003723D01*
X008679Y003723D01*
X008679Y003759D01*
X008679Y004037D01*
X008679Y004037D01*
X008679Y003723D01*
X008679Y003723D01*
X008679Y003764D02*
X008679Y003764D01*
X008679Y003923D02*
X008679Y003923D01*
X008679Y004037D02*
X008679Y004037D01*
X009095Y004037D01*
X009095Y003915D01*
X009086Y003880D01*
X009095Y003845D01*
X009095Y003744D01*
X009169Y003744D01*
X009169Y003879D01*
X009170Y003880D01*
X009169Y003881D01*
X009169Y004194D01*
X009170Y004195D01*
X009169Y004196D01*
X009169Y004454D01*
X009165Y004458D01*
X009141Y004500D01*
X009129Y004545D01*
X009129Y004646D01*
X009095Y004646D01*
X009095Y004545D01*
X009083Y004500D01*
X009059Y004458D01*
X009055Y004454D01*
X009055Y004250D01*
X009059Y004246D01*
X009083Y004205D01*
X009095Y004160D01*
X009095Y004037D01*
X008679Y004037D01*
X009095Y004081D02*
X009169Y004081D01*
X009169Y003923D02*
X009095Y003923D01*
X009095Y003764D02*
X009169Y003764D01*
X009169Y004240D02*
X009063Y004240D01*
X009055Y004398D02*
X009169Y004398D01*
X009129Y004557D02*
X009095Y004557D01*
X009545Y004667D02*
X009545Y004667D01*
X009961Y004667D01*
X009961Y004545D01*
X009949Y004500D01*
X009925Y004458D01*
X009921Y004454D01*
X009921Y004424D01*
X010224Y004726D01*
X010992Y004726D01*
X010992Y004734D01*
X011112Y004734D01*
X011112Y004734D01*
X011112Y004734D01*
X010992Y004734D01*
X010992Y004816D01*
X011004Y004862D01*
X011028Y004903D01*
X011032Y004907D01*
X011032Y005140D01*
X010400Y005140D01*
X010288Y005252D01*
X010156Y005384D01*
X010156Y005469D01*
X010145Y005444D01*
X010050Y005349D01*
X009926Y005297D01*
X009791Y005297D01*
X009790Y005298D01*
X009735Y005243D01*
X009735Y005221D01*
X009839Y005221D01*
X009921Y005139D01*
X009921Y004880D01*
X009925Y004876D01*
X009949Y004835D01*
X009961Y004790D01*
X009961Y004667D01*
X009545Y004667D01*
X009961Y004715D02*
X010213Y004715D01*
X010055Y004557D02*
X009961Y004557D01*
X009927Y004874D02*
X011011Y004874D01*
X011032Y005032D02*
X009921Y005032D01*
X009869Y005191D02*
X010349Y005191D01*
X010190Y005349D02*
X010051Y005349D01*
X008720Y006750D02*
X008422Y006750D01*
X008385Y006786D01*
X008720Y006786D01*
X008720Y006750D01*
X008720Y006776D02*
X008395Y006776D01*
X008362Y006809D02*
X008316Y006855D01*
X008316Y009171D01*
X008391Y009140D01*
X008458Y009140D01*
X008458Y009014D01*
X008695Y009014D01*
X008695Y009014D01*
X008458Y009014D01*
X008458Y008879D01*
X008455Y008873D01*
X008443Y008827D01*
X008443Y008542D01*
X008913Y008542D01*
X008913Y008382D01*
X008913Y008209D01*
X009073Y008209D01*
X009073Y008382D01*
X008913Y008382D01*
X008443Y008382D01*
X008443Y008098D01*
X008455Y008052D01*
X008479Y008011D01*
X008498Y007992D01*
X008498Y007794D01*
X008484Y007794D01*
X008402Y007712D01*
X008402Y007163D01*
X008435Y007130D01*
X008432Y007129D01*
X008398Y007095D01*
X008374Y007054D01*
X008362Y007008D01*
X008362Y006809D01*
X008362Y006934D02*
X008316Y006934D01*
X008311Y007044D02*
X008311Y008294D01*
X008536Y008519D01*
X008936Y008519D01*
X008993Y008462D01*
X009073Y008519D02*
X009741Y008519D01*
X009740Y008518D02*
X009706Y008485D01*
X009682Y008444D01*
X009670Y008398D01*
X009670Y008176D01*
X010028Y008176D01*
X010028Y008139D01*
X009670Y008139D01*
X009670Y007918D01*
X009682Y007872D01*
X009706Y007831D01*
X009740Y007797D01*
X009754Y007789D01*
X009605Y007789D01*
X009493Y007678D01*
X009468Y007652D01*
X009468Y007677D01*
X009487Y007696D01*
X009487Y007992D01*
X009507Y008011D01*
X009531Y008052D01*
X009543Y008098D01*
X009543Y008382D01*
X009073Y008382D01*
X009073Y008542D01*
X009543Y008542D01*
X009543Y008827D01*
X009531Y008873D01*
X009527Y008879D01*
X009527Y009014D01*
X009527Y009195D01*
X009515Y009241D01*
X009497Y009271D01*
X009873Y009271D01*
X009873Y009184D01*
X009792Y009184D01*
X009710Y009102D01*
X009710Y008553D01*
X009743Y008520D01*
X009740Y008518D01*
X009710Y008678D02*
X009543Y008678D01*
X009540Y008836D02*
X009710Y008836D01*
X009710Y008995D02*
X009527Y008995D01*
X009527Y009014D02*
X009290Y009014D01*
X009527Y009014D01*
X009527Y009153D02*
X009762Y009153D01*
X009290Y009014D02*
X009290Y009014D01*
X009073Y008716D02*
X009073Y008542D01*
X008913Y008542D01*
X008913Y008716D01*
X009073Y008716D01*
X009073Y008678D02*
X008913Y008678D01*
X008913Y008519D02*
X008316Y008519D01*
X008316Y008361D02*
X008443Y008361D01*
X008443Y008202D02*
X008316Y008202D01*
X008316Y008044D02*
X008460Y008044D01*
X008498Y007885D02*
X008316Y007885D01*
X008316Y007727D02*
X008417Y007727D01*
X008402Y007568D02*
X008316Y007568D01*
X008316Y007410D02*
X008402Y007410D01*
X008402Y007251D02*
X008316Y007251D01*
X008316Y007093D02*
X008397Y007093D01*
X008311Y007044D02*
X008588Y006768D01*
X008739Y006768D01*
X008315Y006319D02*
X008315Y006225D01*
X008258Y006167D01*
X008258Y005214D01*
X008318Y005154D01*
X008305Y005141D01*
X008245Y005141D01*
X008164Y005060D01*
X008182Y006452D01*
X008315Y006319D01*
X008315Y006300D02*
X008180Y006300D01*
X008178Y006142D02*
X008258Y006142D01*
X008258Y005983D02*
X008176Y005983D01*
X008174Y005825D02*
X008258Y005825D01*
X008258Y005666D02*
X008172Y005666D01*
X008170Y005508D02*
X008258Y005508D01*
X008258Y005349D02*
X008168Y005349D01*
X008166Y005191D02*
X008281Y005191D01*
X010036Y003151D02*
X010082Y003104D01*
X010182Y003005D01*
X010182Y002469D01*
X010264Y002387D01*
X010977Y002387D01*
X010977Y002333D01*
X011335Y002333D01*
X011335Y002297D01*
X010977Y002297D01*
X010977Y002194D01*
X010264Y002194D01*
X010182Y002112D01*
X010182Y001604D01*
X009754Y001604D01*
X009754Y002068D01*
X009790Y002104D01*
X009901Y002216D01*
X009901Y003016D01*
X009990Y003104D01*
X010036Y003151D01*
X010016Y003130D02*
X010056Y003130D01*
X010182Y002972D02*
X009901Y002972D01*
X009901Y002813D02*
X010182Y002813D01*
X010182Y002655D02*
X009901Y002655D01*
X009901Y002496D02*
X010182Y002496D01*
X009901Y002338D02*
X010977Y002338D01*
X011335Y002296D02*
X011372Y002296D01*
X011372Y001918D01*
X011574Y001918D01*
X011620Y001931D01*
X011661Y001954D01*
X011694Y001988D01*
X011718Y002029D01*
X011730Y002075D01*
X011730Y002251D01*
X011762Y002237D01*
X011897Y002237D01*
X012021Y002289D01*
X012102Y002369D01*
X012205Y002369D01*
X011440Y001604D01*
X011210Y001604D01*
X011210Y001918D01*
X011335Y001918D01*
X011335Y002296D01*
X011335Y002179D02*
X011372Y002179D01*
X011372Y002021D02*
X011335Y002021D01*
X011210Y001862D02*
X011698Y001862D01*
X011713Y002021D02*
X011857Y002021D01*
X011730Y002179D02*
X012015Y002179D01*
X012070Y002338D02*
X012174Y002338D01*
X011540Y001704D02*
X011210Y001704D01*
X010182Y001704D02*
X009754Y001704D01*
X009754Y001862D02*
X010182Y001862D01*
X010182Y002021D02*
X009754Y002021D01*
X009865Y002179D02*
X010250Y002179D01*
X010720Y003100D02*
X010720Y003301D01*
X010757Y003301D01*
X010757Y003100D01*
X010720Y003100D01*
X010720Y003130D02*
X010757Y003130D01*
X010757Y003289D02*
X010720Y003289D01*
X010720Y003337D02*
X010720Y003632D01*
X010757Y003632D01*
X010757Y003337D01*
X010720Y003337D01*
X010720Y003447D02*
X010757Y003447D01*
X010757Y003606D02*
X010720Y003606D01*
X013396Y006428D02*
X013396Y006548D01*
X013313Y006548D01*
X013268Y006535D01*
X013227Y006512D01*
X013223Y006508D01*
X012996Y006508D01*
X012996Y007197D01*
X013135Y007197D01*
X013217Y007279D01*
X013217Y007344D01*
X013605Y007344D01*
X014044Y007783D01*
X014386Y007783D01*
X014419Y007815D01*
X014421Y007812D01*
X014454Y007779D01*
X014495Y007755D01*
X014541Y007743D01*
X014763Y007743D01*
X014763Y008101D01*
X014800Y008101D01*
X014800Y008138D01*
X015178Y008138D01*
X015178Y008340D01*
X015165Y008386D01*
X015142Y008427D01*
X015108Y008460D01*
X015067Y008484D01*
X015021Y008496D01*
X014800Y008496D01*
X014800Y008138D01*
X014763Y008138D01*
X014763Y008496D01*
X014582Y008496D01*
X014690Y008604D01*
X015990Y008604D01*
X016140Y008754D01*
X016251Y008866D01*
X017261Y009875D01*
X017336Y009844D01*
X017172Y009777D01*
X017029Y009633D01*
X016951Y009446D01*
X016951Y009243D01*
X016992Y009144D01*
X016221Y008373D01*
X016221Y005723D01*
X016209Y005711D01*
X015097Y005711D01*
X015088Y005720D01*
X014383Y005720D01*
X014383Y005983D01*
X014693Y006294D01*
X015102Y006294D01*
X015134Y006217D01*
X015266Y006085D01*
X015439Y006014D01*
X015626Y006014D01*
X015798Y006085D01*
X015931Y006217D01*
X016002Y006390D01*
X016002Y006577D01*
X015931Y006750D01*
X015798Y006882D01*
X015626Y006954D01*
X015507Y006954D01*
X015511Y006979D01*
X015511Y007019D01*
X015001Y007019D01*
X015001Y007019D01*
X015511Y007019D01*
X015511Y007059D01*
X015498Y007139D01*
X015473Y007215D01*
X015437Y007286D01*
X015390Y007351D01*
X015333Y007408D01*
X015268Y007455D01*
X015197Y007492D01*
X015120Y007517D01*
X015041Y007529D01*
X015001Y007529D01*
X015001Y007019D01*
X015001Y007019D01*
X014491Y007019D01*
X014491Y006979D01*
X014503Y006900D01*
X014528Y006823D01*
X014565Y006752D01*
X014612Y006687D01*
X014625Y006674D01*
X014536Y006674D01*
X014335Y006473D01*
X014301Y006508D01*
X014199Y006508D01*
X014199Y006912D01*
X014201Y006913D01*
X014296Y007008D01*
X014347Y007132D01*
X014347Y007266D01*
X014296Y007391D01*
X014201Y007486D01*
X014077Y007537D01*
X013942Y007537D01*
X013818Y007486D01*
X013723Y007391D01*
X013671Y007266D01*
X013671Y007132D01*
X013723Y007008D01*
X013818Y006913D01*
X013819Y006912D01*
X013819Y006508D01*
X013570Y006508D01*
X013566Y006512D01*
X013525Y006535D01*
X013479Y006548D01*
X013396Y006548D01*
X013396Y006428D01*
X013396Y006428D01*
X013396Y006428D01*
X013396Y006459D02*
X013396Y006459D01*
X012996Y006617D02*
X013819Y006617D01*
X013819Y006776D02*
X012996Y006776D01*
X012996Y006934D02*
X013796Y006934D01*
X013687Y007093D02*
X012996Y007093D01*
X013190Y007251D02*
X013671Y007251D01*
X013671Y007410D02*
X013742Y007410D01*
X013829Y007568D02*
X016221Y007568D01*
X016221Y007410D02*
X015331Y007410D01*
X015455Y007251D02*
X016221Y007251D01*
X016221Y007093D02*
X015505Y007093D01*
X015672Y006934D02*
X016221Y006934D01*
X016221Y006776D02*
X015905Y006776D01*
X015986Y006617D02*
X016221Y006617D01*
X016221Y006459D02*
X016002Y006459D01*
X015965Y006300D02*
X016221Y006300D01*
X016221Y006142D02*
X015855Y006142D01*
X016221Y005983D02*
X014383Y005983D01*
X014383Y005825D02*
X016221Y005825D01*
X016601Y006753D02*
X016601Y008216D01*
X016962Y008577D01*
X016951Y008556D01*
X016925Y008473D01*
X016911Y008388D01*
X016911Y008364D01*
X017441Y008364D01*
X017441Y008324D01*
X016911Y008324D01*
X016911Y008301D01*
X016925Y008216D01*
X016951Y008133D01*
X016991Y008056D01*
X017042Y007986D01*
X017103Y007925D01*
X017173Y007874D01*
X017250Y007835D01*
X017285Y007823D01*
X017172Y007777D01*
X017029Y007633D01*
X016951Y007446D01*
X016951Y007243D01*
X016992Y007144D01*
X016601Y006753D01*
X016601Y006776D02*
X016624Y006776D01*
X016601Y006934D02*
X016782Y006934D01*
X016941Y007093D02*
X016601Y007093D01*
X016601Y007251D02*
X016951Y007251D01*
X016951Y007410D02*
X016601Y007410D01*
X016601Y007568D02*
X017002Y007568D01*
X017122Y007727D02*
X016601Y007727D01*
X016601Y007885D02*
X017157Y007885D01*
X017000Y008044D02*
X016601Y008044D01*
X016601Y008202D02*
X016929Y008202D01*
X016746Y008361D02*
X017441Y008361D01*
X016940Y008519D02*
X016905Y008519D01*
X016684Y008836D02*
X016222Y008836D01*
X016063Y008678D02*
X016526Y008678D01*
X016367Y008519D02*
X014605Y008519D01*
X014763Y008361D02*
X014800Y008361D01*
X014800Y008202D02*
X014763Y008202D01*
X014800Y008101D02*
X015178Y008101D01*
X015178Y007899D01*
X015165Y007853D01*
X015142Y007812D01*
X015108Y007779D01*
X015067Y007755D01*
X015021Y007743D01*
X014800Y007743D01*
X014800Y008101D01*
X014800Y008044D02*
X014763Y008044D01*
X014763Y007885D02*
X014800Y007885D01*
X015174Y007885D02*
X016221Y007885D01*
X016221Y007727D02*
X013988Y007727D01*
X013755Y008032D02*
X013447Y007724D01*
X013217Y007724D01*
X013217Y007789D01*
X013135Y007871D01*
X012750Y007871D01*
X012634Y007987D01*
X012648Y007979D01*
X012694Y007967D01*
X012935Y007967D01*
X012935Y008404D01*
X012537Y008404D01*
X012537Y008123D01*
X012550Y008077D01*
X012558Y008063D01*
X012306Y008315D01*
X012306Y008835D01*
X012224Y008917D01*
X011979Y008917D01*
X011979Y008977D01*
X012084Y008977D01*
X012166Y009059D01*
X012166Y009392D01*
X012084Y009474D01*
X011495Y009474D01*
X011437Y009415D01*
X010907Y009415D01*
X010907Y009455D01*
X010868Y009549D01*
X011132Y009549D01*
X011214Y009631D01*
X011214Y010141D01*
X011203Y010152D01*
X011425Y010152D01*
X011413Y010140D01*
X011413Y009807D01*
X011495Y009725D01*
X012084Y009725D01*
X012166Y009807D01*
X012166Y010140D01*
X012153Y010152D01*
X012449Y010152D01*
X012437Y010140D01*
X012437Y009822D01*
X012433Y009818D01*
X012409Y009777D01*
X012397Y009731D01*
X012397Y009599D01*
X012397Y009467D01*
X012409Y009422D01*
X012433Y009381D01*
X012437Y009377D01*
X012437Y009059D01*
X012519Y008977D01*
X013107Y008977D01*
X013189Y009059D01*
X013189Y009104D01*
X013440Y009104D01*
X013551Y009216D01*
X013551Y009432D01*
X013959Y009432D01*
X013992Y009464D01*
X013993Y009461D01*
X014027Y009427D01*
X014068Y009404D01*
X014114Y009392D01*
X014336Y009392D01*
X014336Y009750D01*
X014372Y009750D01*
X014372Y009392D01*
X014594Y009392D01*
X014640Y009404D01*
X014681Y009427D01*
X014715Y009461D01*
X014738Y009502D01*
X014751Y009548D01*
X014751Y009750D01*
X014372Y009750D01*
X014372Y009787D01*
X014336Y009787D01*
X014336Y010140D01*
X014353Y010140D01*
X014353Y010498D01*
X014390Y010498D01*
X014390Y010145D01*
X014372Y010145D01*
X014372Y009787D01*
X014751Y009787D01*
X014751Y009989D01*
X014738Y010035D01*
X014715Y010076D01*
X014681Y010109D01*
X014640Y010133D01*
X014613Y010140D01*
X014657Y010152D01*
X014698Y010176D01*
X014732Y010209D01*
X014756Y010251D01*
X014768Y010296D01*
X014768Y010498D01*
X014390Y010498D01*
X014390Y010535D01*
X014768Y010535D01*
X014768Y010737D01*
X014756Y010783D01*
X014732Y010824D01*
X014698Y010858D01*
X014657Y010881D01*
X014612Y010894D01*
X014398Y010894D01*
X014400Y010898D01*
X014400Y011100D01*
X014021Y011100D01*
X014021Y011137D01*
X014400Y011137D01*
X014400Y011339D01*
X014394Y011358D01*
X018010Y011358D01*
X018010Y008394D01*
X017998Y008473D01*
X017971Y008556D01*
X017931Y008633D01*
X017881Y008703D01*
X017819Y008764D01*
X017749Y008815D01*
X017672Y008854D01*
X017637Y008865D01*
X017750Y008912D01*
X017893Y009056D01*
X017971Y009243D01*
X017971Y009446D01*
X017893Y009633D01*
X017750Y009777D01*
X017587Y009844D01*
X017750Y009912D01*
X017893Y010056D01*
X017971Y010243D01*
X017971Y010446D01*
X017893Y010633D01*
X017750Y010777D01*
X017563Y010854D01*
X017360Y010854D01*
X017172Y010777D01*
X017029Y010633D01*
X016951Y010446D01*
X016951Y010243D01*
X016992Y010144D01*
X016209Y009361D01*
X016209Y009665D01*
X016129Y009744D01*
X016209Y009824D01*
X016209Y010255D01*
X016146Y010318D01*
X016177Y010318D01*
X016177Y010676D01*
X016214Y010676D01*
X016214Y010318D01*
X016436Y010318D01*
X016482Y010330D01*
X016523Y010354D01*
X016556Y010387D01*
X016580Y010428D01*
X016592Y010474D01*
X016592Y010676D01*
X016214Y010676D01*
X016214Y010713D01*
X016177Y010713D01*
X016177Y011071D01*
X015956Y011071D01*
X015910Y011059D01*
X015869Y011035D01*
X015835Y011002D01*
X015833Y010999D01*
X015801Y011031D01*
X015252Y011031D01*
X015170Y010949D01*
X015170Y010440D01*
X015252Y010358D01*
X015329Y010358D01*
X015432Y010254D01*
X015614Y010073D01*
X015614Y009824D01*
X015693Y009744D01*
X015614Y009665D01*
X015614Y009234D01*
X015696Y009152D01*
X015721Y009152D01*
X015721Y009016D01*
X015752Y008984D01*
X014532Y008984D01*
X014421Y008873D01*
X014004Y008456D01*
X013837Y008456D01*
X013755Y008374D01*
X013755Y008032D01*
X013755Y008044D02*
X013417Y008044D01*
X013413Y008036D02*
X013436Y008077D01*
X013449Y008123D01*
X013449Y008404D01*
X013051Y008404D01*
X013051Y008519D01*
X014067Y008519D01*
X014226Y008678D02*
X013449Y008678D01*
X013449Y008800D02*
X013449Y008519D01*
X013051Y008519D01*
X012935Y008519D01*
X012306Y008519D01*
X012306Y008361D02*
X012537Y008361D01*
X012537Y008519D02*
X012935Y008519D01*
X012935Y008404D01*
X013051Y008404D01*
X013051Y007967D01*
X013292Y007967D01*
X013338Y007979D01*
X013379Y008003D01*
X013413Y008036D01*
X013449Y008202D02*
X013755Y008202D01*
X013755Y008361D02*
X013449Y008361D01*
X013051Y008361D02*
X012935Y008361D01*
X012935Y008519D02*
X012935Y008957D01*
X012694Y008957D01*
X012648Y008944D01*
X012607Y008921D01*
X012573Y008887D01*
X012550Y008846D01*
X012537Y008800D01*
X012537Y008519D01*
X012537Y008678D02*
X012306Y008678D01*
X012304Y008836D02*
X012547Y008836D01*
X012501Y008995D02*
X012101Y008995D01*
X012166Y009153D02*
X012437Y009153D01*
X012437Y009312D02*
X012166Y009312D01*
X012087Y009470D02*
X012397Y009470D01*
X012397Y009599D02*
X012813Y009599D01*
X012813Y009599D01*
X012397Y009599D01*
X012397Y009629D02*
X011211Y009629D01*
X011214Y009787D02*
X011433Y009787D01*
X011413Y009946D02*
X011214Y009946D01*
X011214Y010104D02*
X011413Y010104D01*
X011492Y009470D02*
X010901Y009470D01*
X010252Y010223D02*
X009924Y010223D01*
X009923Y010225D01*
X009889Y010259D01*
X009848Y010282D01*
X009802Y010295D01*
X009581Y010295D01*
X009581Y009936D01*
X009544Y009936D01*
X009544Y010295D01*
X009322Y010295D01*
X009276Y010282D01*
X009235Y010259D01*
X009202Y010225D01*
X009200Y010222D01*
X009167Y010255D01*
X008618Y010255D01*
X008536Y010173D01*
X008536Y010108D01*
X008228Y010108D01*
X008239Y011007D01*
X008827Y011007D01*
X008827Y010953D01*
X008807Y010933D01*
X008807Y010423D01*
X008889Y010341D01*
X009438Y010341D01*
X009498Y010401D01*
X009558Y010341D01*
X010107Y010341D01*
X010120Y010354D01*
X010252Y010223D01*
X010212Y010263D02*
X009882Y010263D01*
X009592Y010290D02*
X009592Y009948D01*
X009562Y009918D01*
X009544Y009946D02*
X009581Y009946D01*
X009581Y010104D02*
X009544Y010104D01*
X009544Y010263D02*
X009581Y010263D01*
X009592Y010290D02*
X009589Y010293D01*
X007610Y010293D01*
X008230Y010263D02*
X009242Y010263D01*
X008809Y010421D02*
X008232Y010421D01*
X008234Y010580D02*
X008807Y010580D01*
X008807Y010738D02*
X008236Y010738D01*
X008238Y010897D02*
X008807Y010897D01*
X008753Y012401D02*
X008945Y012401D01*
X008945Y012462D01*
X008951Y012481D01*
X008945Y012501D01*
X008945Y012561D01*
X008753Y012561D01*
X008753Y012401D01*
X008753Y012482D02*
X008950Y012482D01*
X009165Y012481D02*
X009263Y012580D01*
X009263Y012561D02*
X009263Y012401D01*
X009263Y012401D01*
X009263Y012561D01*
X009263Y012561D01*
X009263Y012482D02*
X009263Y012482D01*
X009165Y012481D02*
X008673Y012481D01*
X008180Y012481D01*
X008082Y012383D01*
X008082Y012401D02*
X008082Y012401D01*
X008082Y012561D01*
X008082Y012561D01*
X008082Y012401D01*
X008082Y012482D02*
X008082Y012482D01*
X007831Y012580D02*
X007831Y012580D01*
X007764Y012580D01*
X007831Y012580D01*
X007764Y012580D02*
X007764Y012501D01*
X007770Y012481D01*
X007764Y012462D01*
X007764Y012397D01*
X007403Y012758D01*
X006812Y012758D01*
X006812Y012770D01*
X006958Y012770D01*
X007040Y012852D01*
X007040Y012872D01*
X008031Y012872D01*
X008020Y012830D01*
X008020Y012815D01*
X007921Y012815D01*
X007875Y012803D01*
X007834Y012779D01*
X007800Y012745D01*
X007777Y012704D01*
X007764Y012659D01*
X007764Y012580D01*
X007764Y012640D02*
X007521Y012640D01*
X007679Y012482D02*
X007769Y012482D01*
X007868Y012799D02*
X006987Y012799D01*
X006728Y013062D02*
X006683Y013107D01*
X006237Y013142D02*
X006014Y013107D01*
X006014Y012796D01*
X005787Y012568D01*
X005430Y012640D02*
X003945Y012640D01*
X003867Y012562D02*
X004121Y012816D01*
X004121Y012831D01*
X004136Y012846D01*
X004136Y013641D01*
X004007Y013770D01*
X003704Y014073D01*
X003924Y014293D01*
X005879Y014293D01*
X006190Y013982D01*
X006190Y013963D01*
X005899Y013673D01*
X005771Y013544D01*
X005771Y013443D01*
X005739Y013443D01*
X005657Y013361D01*
X005657Y013271D01*
X005583Y013271D01*
X005458Y013219D01*
X005363Y013124D01*
X005312Y013000D01*
X005312Y012865D01*
X005363Y012741D01*
X005430Y012674D01*
X005430Y012314D01*
X005452Y012291D01*
X005432Y012256D01*
X005420Y012211D01*
X005420Y012008D01*
X005798Y012008D01*
X005798Y011972D01*
X005420Y011972D01*
X005420Y011850D01*
X005071Y011850D01*
X005011Y011790D01*
X004951Y011850D01*
X004520Y011850D01*
X004499Y011829D01*
X004479Y011850D01*
X004063Y011850D01*
X004059Y011854D01*
X004018Y011878D01*
X003972Y011890D01*
X003791Y011890D01*
X003791Y011465D01*
X003791Y011465D01*
X003791Y011890D01*
X003609Y011890D01*
X003564Y011878D01*
X003523Y011854D01*
X003519Y011850D01*
X003173Y011850D01*
X003091Y011768D01*
X003091Y011465D01*
X002016Y011465D01*
X002045Y012448D01*
X002175Y012579D01*
X002314Y012913D01*
X002314Y013275D01*
X002175Y013610D01*
X002082Y013703D01*
X002086Y013853D01*
X002598Y013853D01*
X002566Y013830D01*
X002515Y013778D01*
X002472Y013719D01*
X002438Y013654D01*
X002416Y013584D01*
X002404Y013512D01*
X002404Y013475D01*
X002404Y013439D01*
X002416Y013366D01*
X002438Y013297D01*
X002472Y013232D01*
X002515Y013172D01*
X002566Y013121D01*
X002626Y013078D01*
X002659Y013061D01*
X002629Y013048D01*
X002509Y012929D01*
X002444Y012772D01*
X002444Y012603D01*
X002509Y012447D01*
X002629Y012328D01*
X002785Y012263D01*
X002954Y012263D01*
X003110Y012328D01*
X003216Y012434D01*
X003738Y012434D01*
X003867Y012562D01*
X003787Y012482D02*
X005430Y012482D01*
X005430Y012323D02*
X003100Y012323D01*
X002904Y012654D02*
X002869Y012688D01*
X002904Y012654D02*
X003647Y012654D01*
X003901Y012908D01*
X003901Y012923D01*
X003916Y012938D01*
X003916Y013550D01*
X003393Y014073D01*
X003833Y014513D01*
X005970Y014513D01*
X006414Y014070D01*
X006414Y013990D01*
X006414Y013876D01*
X005991Y013453D01*
X005991Y013130D01*
X006014Y013107D01*
X005657Y013274D02*
X004136Y013274D01*
X004136Y013116D02*
X005360Y013116D01*
X005312Y012957D02*
X004136Y012957D01*
X004104Y012799D02*
X005339Y012799D01*
X005420Y012165D02*
X002036Y012165D01*
X001980Y012165D02*
X001961Y012165D01*
X001961Y012323D02*
X001980Y012323D01*
X001961Y012365D02*
X001980Y012384D01*
X001980Y010990D01*
X001972Y010998D01*
X001961Y011028D01*
X001961Y011362D01*
X001879Y011444D01*
X001546Y011444D01*
X001464Y011362D01*
X001464Y010776D01*
X001331Y010776D01*
X001331Y010418D01*
X001294Y010418D01*
X001294Y010776D01*
X001213Y010776D01*
X001213Y011362D01*
X001131Y011444D01*
X000798Y011444D01*
X000716Y011362D01*
X000716Y011082D01*
X000630Y010937D01*
X000609Y010928D01*
X000584Y010861D01*
X000547Y010800D01*
X000552Y010779D01*
X000541Y010749D01*
X000541Y012341D01*
X000716Y012166D01*
X000716Y011797D01*
X000798Y011715D01*
X001116Y011715D01*
X001120Y011711D01*
X001161Y011688D01*
X001207Y011675D01*
X001339Y011675D01*
X001471Y011675D01*
X001516Y011688D01*
X001557Y011711D01*
X001561Y011715D01*
X001879Y011715D01*
X001961Y011797D01*
X001961Y012365D01*
X002041Y012323D02*
X002639Y012323D01*
X002495Y012482D02*
X002078Y012482D01*
X002201Y012640D02*
X002444Y012640D01*
X002455Y012799D02*
X002267Y012799D01*
X002314Y012957D02*
X002538Y012957D01*
X002573Y013116D02*
X002314Y013116D01*
X002314Y013274D02*
X002450Y013274D01*
X002405Y013433D02*
X002249Y013433D01*
X002404Y013475D02*
X002869Y013475D01*
X002869Y013475D01*
X002404Y013475D01*
X002418Y013591D02*
X002183Y013591D01*
X002083Y013750D02*
X002494Y013750D01*
X002869Y013475D02*
X003334Y013475D01*
X002869Y013475D01*
X002869Y013475D01*
X003080Y013061D02*
X003113Y013078D01*
X003172Y013121D01*
X003224Y013172D01*
X003267Y013232D01*
X003300Y013297D01*
X003323Y013366D01*
X003334Y013439D01*
X003334Y013475D01*
X003334Y013512D01*
X003323Y013584D01*
X003300Y013654D01*
X003267Y013719D01*
X003224Y013778D01*
X003172Y013830D01*
X003140Y013853D01*
X003302Y013853D01*
X003696Y013459D01*
X003696Y013029D01*
X003681Y013014D01*
X003681Y012999D01*
X003556Y012874D01*
X003252Y012874D01*
X003230Y012929D01*
X003110Y013048D01*
X003080Y013061D01*
X003166Y013116D02*
X003696Y013116D01*
X003696Y013274D02*
X003289Y013274D01*
X003333Y013433D02*
X003696Y013433D01*
X003564Y013591D02*
X003320Y013591D01*
X003244Y013750D02*
X003405Y013750D01*
X003393Y014073D02*
X001018Y014073D01*
X000570Y013625D01*
X000570Y012624D01*
X000965Y012229D01*
X000965Y012092D01*
X000716Y012165D02*
X000541Y012165D01*
X000541Y012323D02*
X000559Y012323D01*
X000541Y012006D02*
X000716Y012006D01*
X000716Y011848D02*
X000541Y011848D01*
X000541Y011689D02*
X001158Y011689D01*
X001339Y011689D02*
X001339Y011689D01*
X001339Y011675D02*
X001339Y012092D01*
X001339Y012092D01*
X001339Y011675D01*
X001339Y011848D02*
X001339Y011848D01*
X001339Y012006D02*
X001339Y012006D01*
X001520Y011689D02*
X001980Y011689D01*
X002022Y011689D02*
X003091Y011689D01*
X003091Y011531D02*
X002018Y011531D01*
X001980Y011531D02*
X000541Y011531D01*
X000541Y011372D02*
X000727Y011372D01*
X000716Y011214D02*
X000541Y011214D01*
X000541Y011055D02*
X000701Y011055D01*
X000597Y010897D02*
X000541Y010897D01*
X000783Y010765D02*
X000965Y011068D01*
X001213Y011055D02*
X001464Y011055D01*
X001464Y010897D02*
X001213Y010897D01*
X001294Y010738D02*
X001331Y010738D01*
X001331Y010580D02*
X001294Y010580D01*
X001294Y010421D02*
X001331Y010421D01*
X001313Y010399D02*
X001294Y009957D01*
X001104Y009941D01*
X001123Y009946D02*
X001417Y009946D01*
X001417Y009959D02*
X001417Y009922D01*
X001123Y009922D01*
X001123Y009564D01*
X001345Y009564D01*
X001390Y009576D01*
X001431Y009600D01*
X001465Y009633D01*
X001467Y009636D01*
X001499Y009604D01*
X001959Y009604D01*
X001978Y009584D01*
X001958Y009563D01*
X001958Y009132D01*
X001978Y009112D01*
X001958Y009091D01*
X001958Y008660D01*
X001978Y008639D01*
X001958Y008619D01*
X001958Y008523D01*
X001951Y008538D01*
X001861Y008629D01*
X001744Y008677D01*
X001616Y008677D01*
X001499Y008629D01*
X001409Y008538D01*
X001360Y008421D01*
X001360Y008294D01*
X001409Y008176D01*
X001483Y008101D01*
X001409Y008027D01*
X001360Y007909D01*
X001360Y007803D01*
X001350Y007819D01*
X001299Y007869D01*
X001240Y007909D01*
X001220Y007917D01*
X001223Y007920D01*
X001272Y008038D01*
X001272Y008165D01*
X001223Y008283D01*
X001189Y008316D01*
X001251Y008342D01*
X001341Y008432D01*
X001390Y008549D01*
X001390Y008677D01*
X001341Y008794D01*
X001251Y008884D01*
X001134Y008933D01*
X001061Y008933D01*
X000994Y009000D01*
X000942Y009564D01*
X001086Y009564D01*
X001086Y009922D01*
X001123Y009922D01*
X001123Y009959D01*
X001417Y009959D01*
X001461Y009629D02*
X001474Y009629D01*
X001123Y009629D02*
X001086Y009629D01*
X001086Y009787D02*
X001123Y009787D01*
X000951Y009470D02*
X001958Y009470D01*
X001958Y009312D02*
X000965Y009312D01*
X000980Y009153D02*
X001958Y009153D01*
X001958Y008995D02*
X000999Y008995D01*
X000783Y008900D02*
X001070Y008613D01*
X001299Y008836D02*
X001958Y008836D01*
X001958Y008678D02*
X001389Y008678D01*
X001377Y008519D02*
X001401Y008519D01*
X001360Y008361D02*
X001270Y008361D01*
X001256Y008202D02*
X001398Y008202D01*
X001426Y008044D02*
X001272Y008044D01*
X001275Y007885D02*
X001360Y007885D01*
X001425Y007648D02*
X001498Y007575D01*
X001470Y007546D01*
X001418Y007495D01*
X001430Y007554D01*
X001430Y007590D01*
X001430Y007625D01*
X001425Y007648D01*
X001430Y007590D02*
X001070Y007590D01*
X001070Y007590D01*
X001070Y007590D01*
X000710Y007590D01*
X000710Y007625D01*
X000724Y007695D01*
X000751Y007760D01*
X000790Y007819D01*
X000792Y007821D01*
X000771Y007830D01*
X000680Y007920D01*
X000632Y008038D01*
X000632Y008165D01*
X000680Y008283D01*
X000771Y008373D01*
X000832Y008398D01*
X000799Y008432D01*
X000750Y008549D01*
X000750Y008622D01*
X000634Y008738D01*
X000572Y008789D01*
X000571Y008801D01*
X000563Y008809D01*
X000563Y008890D01*
X000541Y009121D01*
X000541Y002562D01*
X000633Y002783D01*
X000773Y002924D01*
X000711Y002924D01*
X000665Y002936D01*
X000624Y002960D01*
X000591Y002993D01*
X000567Y003034D01*
X000555Y003080D01*
X000555Y003302D01*
X000913Y003302D01*
X000913Y003339D01*
X000555Y003339D01*
X000555Y003561D01*
X000567Y003606D01*
X000541Y003606D01*
X000567Y003606D02*
X000591Y003647D01*
X000624Y003681D01*
X000627Y003683D01*
X000595Y003715D01*
X000595Y004264D01*
X000677Y004346D01*
X000712Y004346D01*
X000712Y004507D01*
X000631Y004587D01*
X000631Y005018D01*
X000711Y005098D01*
X000631Y005178D01*
X000631Y005609D01*
X000709Y005686D01*
X000709Y006785D01*
X001165Y007241D01*
X001105Y007230D01*
X001070Y007230D01*
X001070Y007589D01*
X001070Y007589D01*
X001070Y007230D01*
X001034Y007230D01*
X000965Y007243D01*
X000899Y007270D01*
X000840Y007310D01*
X000790Y007360D01*
X000751Y007419D01*
X000724Y007484D01*
X000710Y007554D01*
X000710Y007590D01*
X001070Y007590D01*
X001430Y007590D01*
X001430Y007568D02*
X001492Y007568D01*
X001690Y007455D02*
X002409Y007455D01*
X002413Y007458D01*
X001690Y007455D02*
X000929Y006694D01*
X000929Y005393D01*
X000631Y005349D02*
X000541Y005349D01*
X000541Y005191D02*
X000631Y005191D01*
X000645Y005032D02*
X000541Y005032D01*
X000541Y004874D02*
X000631Y004874D01*
X000631Y004715D02*
X000541Y004715D01*
X000541Y004557D02*
X000661Y004557D01*
X000712Y004398D02*
X000541Y004398D01*
X000541Y004240D02*
X000595Y004240D01*
X000595Y004081D02*
X000541Y004081D01*
X000541Y003923D02*
X000595Y003923D01*
X000595Y003764D02*
X000541Y003764D01*
X000541Y003447D02*
X000555Y003447D01*
X000541Y003289D02*
X000555Y003289D01*
X000541Y003130D02*
X000555Y003130D01*
X000541Y002972D02*
X000612Y002972D01*
X000663Y002813D02*
X000541Y002813D01*
X000541Y002655D02*
X000580Y002655D01*
X000950Y003302D02*
X000950Y003339D01*
X001308Y003339D01*
X001308Y003343D01*
X001502Y003343D01*
X001502Y003307D01*
X001144Y003307D01*
X001144Y003302D01*
X000950Y003302D01*
X001520Y003325D02*
X001564Y003360D01*
X001520Y003994D02*
X001520Y004776D01*
X001535Y004791D01*
X000932Y004800D02*
X000929Y004803D01*
X000932Y004800D02*
X000932Y003990D01*
X001535Y005382D02*
X001535Y006135D01*
X001903Y006502D01*
X002402Y006502D01*
X002413Y006513D01*
X001016Y007093D02*
X000541Y007093D01*
X000541Y007251D02*
X000945Y007251D01*
X001070Y007251D02*
X001070Y007251D01*
X001070Y007410D02*
X001070Y007410D01*
X001070Y007568D02*
X001070Y007568D01*
X000757Y007410D02*
X000541Y007410D01*
X000541Y007568D02*
X000710Y007568D01*
X000737Y007727D02*
X000541Y007727D01*
X000541Y007885D02*
X000715Y007885D01*
X000632Y008044D02*
X000541Y008044D01*
X000541Y008202D02*
X000647Y008202D01*
X000541Y008361D02*
X000759Y008361D01*
X000762Y008519D02*
X000541Y008519D01*
X000541Y008678D02*
X000694Y008678D01*
X000563Y008836D02*
X000541Y008836D01*
X000541Y008995D02*
X000553Y008995D01*
X000783Y008900D02*
X000643Y010399D01*
X000783Y010765D01*
X001213Y011214D02*
X001464Y011214D01*
X001475Y011372D02*
X001203Y011372D01*
X001713Y011068D02*
X001781Y010878D01*
X001774Y009941D01*
X001961Y011055D02*
X001980Y011055D01*
X001980Y011214D02*
X001961Y011214D01*
X001951Y011372D02*
X001980Y011372D01*
X001961Y011848D02*
X001980Y011848D01*
X002027Y011848D02*
X003170Y011848D01*
X003791Y011848D02*
X003791Y011848D01*
X003791Y011689D02*
X003791Y011689D01*
X003791Y011531D02*
X003791Y011531D01*
X004481Y011848D02*
X004518Y011848D01*
X004953Y011848D02*
X005069Y011848D01*
X005798Y012006D02*
X002032Y012006D01*
X001980Y012006D02*
X001961Y012006D01*
X003201Y012957D02*
X003640Y012957D01*
X004136Y013433D02*
X005729Y013433D01*
X005818Y013591D02*
X004136Y013591D01*
X004027Y013750D02*
X005977Y013750D01*
X006135Y013908D02*
X003869Y013908D01*
X003710Y014067D02*
X006105Y014067D01*
X005947Y014225D02*
X003856Y014225D01*
X006414Y013990D02*
X006586Y013990D01*
X006493Y013990D01*
X008476Y012678D02*
X008673Y012481D01*
X010047Y013911D02*
X010047Y013948D01*
X010425Y013948D01*
X010425Y014150D01*
X010419Y014172D01*
X010867Y014172D01*
X010910Y014129D01*
X010885Y014104D01*
X010885Y014104D01*
X010415Y013634D01*
X010396Y013634D01*
X010413Y013663D01*
X010425Y013709D01*
X010425Y013911D01*
X010047Y013911D01*
X010425Y013908D02*
X010690Y013908D01*
X010531Y013750D02*
X010425Y013750D01*
X010425Y014067D02*
X010848Y014067D01*
X012333Y014457D02*
X017939Y014457D01*
X017939Y011465D01*
X014321Y011465D01*
X014289Y011483D01*
X014243Y011496D01*
X014021Y011496D01*
X014021Y011465D01*
X013985Y011465D01*
X013985Y011496D01*
X013763Y011496D01*
X013717Y011483D01*
X013685Y011465D01*
X012970Y011465D01*
X012949Y011501D01*
X012916Y011535D01*
X012912Y011537D01*
X013273Y011537D01*
X013533Y011798D01*
X013834Y011497D01*
X014041Y011497D01*
X014041Y012027D01*
X014081Y012027D01*
X014081Y011497D01*
X014289Y011497D01*
X014611Y011819D01*
X014611Y012027D01*
X014081Y012027D01*
X014081Y012067D01*
X014611Y012067D01*
X014611Y012275D01*
X014311Y012575D01*
X014571Y012836D01*
X014571Y013258D01*
X014273Y013557D01*
X013850Y013557D01*
X013590Y013297D01*
X013361Y013526D01*
X013505Y013526D01*
X013551Y013538D01*
X013592Y013562D01*
X013625Y013595D01*
X013649Y013636D01*
X013661Y013682D01*
X013661Y013884D01*
X013283Y013884D01*
X013283Y013921D01*
X013246Y013921D01*
X013246Y014279D01*
X013024Y014279D01*
X012979Y014267D01*
X012938Y014243D01*
X012904Y014210D01*
X012902Y014207D01*
X012870Y014239D01*
X012551Y014239D01*
X012385Y014405D01*
X012333Y014457D01*
X012406Y014384D02*
X017939Y014384D01*
X017939Y014225D02*
X013610Y014225D01*
X013625Y014210D02*
X013592Y014243D01*
X013551Y014267D01*
X013505Y014279D01*
X013283Y014279D01*
X013283Y013921D01*
X013661Y013921D01*
X013661Y014123D01*
X013649Y014169D01*
X013625Y014210D01*
X013661Y014067D02*
X017939Y014067D01*
X017939Y013908D02*
X017368Y013908D01*
X017471Y013866D02*
X017136Y014004D01*
X016774Y014004D01*
X016440Y013866D01*
X016184Y013610D01*
X016045Y013275D01*
X016045Y012913D01*
X016184Y012579D01*
X016440Y012323D01*
X016774Y012184D01*
X017136Y012184D01*
X017471Y012323D01*
X017727Y012579D01*
X017865Y012913D01*
X017865Y013275D01*
X017727Y013610D01*
X017471Y013866D01*
X017586Y013750D02*
X017939Y013750D01*
X017939Y013591D02*
X017734Y013591D01*
X017800Y013433D02*
X017939Y013433D01*
X017939Y013274D02*
X017865Y013274D01*
X017865Y013116D02*
X017939Y013116D01*
X017939Y012957D02*
X017865Y012957D01*
X017818Y012799D02*
X017939Y012799D01*
X017939Y012640D02*
X017752Y012640D01*
X017630Y012482D02*
X017939Y012482D01*
X017939Y012323D02*
X017471Y012323D01*
X017939Y012165D02*
X014611Y012165D01*
X014611Y012006D02*
X017939Y012006D01*
X017939Y011848D02*
X014611Y011848D01*
X014482Y011689D02*
X017939Y011689D01*
X017939Y011531D02*
X014323Y011531D01*
X014081Y011531D02*
X014041Y011531D01*
X014041Y011689D02*
X014081Y011689D01*
X014081Y011848D02*
X014041Y011848D01*
X014041Y012006D02*
X014081Y012006D01*
X013641Y011689D02*
X013425Y011689D01*
X013800Y011531D02*
X012920Y011531D01*
X012977Y011212D02*
X012607Y011212D01*
X012607Y011176D01*
X012977Y011176D01*
X012977Y011212D01*
X012437Y010104D02*
X012166Y010104D01*
X012166Y009946D02*
X012437Y009946D01*
X012415Y009787D02*
X012146Y009787D01*
X013051Y008957D02*
X013051Y008519D01*
X013051Y008678D02*
X012935Y008678D01*
X012935Y008836D02*
X013051Y008836D01*
X013051Y008957D02*
X013292Y008957D01*
X013338Y008944D01*
X013379Y008921D01*
X013413Y008887D01*
X013436Y008846D01*
X013449Y008800D01*
X013439Y008836D02*
X014384Y008836D01*
X014372Y009470D02*
X014336Y009470D01*
X014336Y009629D02*
X014372Y009629D01*
X014372Y009787D02*
X014336Y009787D01*
X014336Y009946D02*
X014372Y009946D01*
X014372Y010104D02*
X014336Y010104D01*
X014353Y010263D02*
X014390Y010263D01*
X014390Y010421D02*
X014353Y010421D01*
X014768Y010421D02*
X015188Y010421D01*
X015170Y010580D02*
X014768Y010580D01*
X014768Y010738D02*
X015170Y010738D01*
X015170Y010897D02*
X014399Y010897D01*
X014400Y011055D02*
X015904Y011055D01*
X016177Y011055D02*
X016214Y011055D01*
X016214Y011071D02*
X016214Y010713D01*
X016592Y010713D01*
X016592Y010915D01*
X016580Y010961D01*
X016556Y011002D01*
X016523Y011035D01*
X016482Y011059D01*
X016436Y011071D01*
X016214Y011071D01*
X016214Y010897D02*
X016177Y010897D01*
X016177Y010738D02*
X016214Y010738D01*
X016214Y010580D02*
X016177Y010580D01*
X016177Y010421D02*
X016214Y010421D01*
X016201Y010263D02*
X016951Y010263D01*
X016951Y010421D02*
X016576Y010421D01*
X016592Y010580D02*
X017007Y010580D01*
X017134Y010738D02*
X016592Y010738D01*
X016592Y010897D02*
X018010Y010897D01*
X018010Y011055D02*
X016488Y011055D01*
X016209Y010104D02*
X016952Y010104D01*
X016794Y009946D02*
X016209Y009946D01*
X016172Y009787D02*
X016635Y009787D01*
X016477Y009629D02*
X016209Y009629D01*
X016209Y009470D02*
X016318Y009470D01*
X016539Y009153D02*
X016988Y009153D01*
X016951Y009312D02*
X016697Y009312D01*
X016856Y009470D02*
X016961Y009470D01*
X017014Y009629D02*
X017027Y009629D01*
X017173Y009787D02*
X017198Y009787D01*
X017724Y009787D02*
X018010Y009787D01*
X018010Y009629D02*
X017895Y009629D01*
X017961Y009470D02*
X018010Y009470D01*
X018010Y009312D02*
X017971Y009312D01*
X017934Y009153D02*
X018010Y009153D01*
X018010Y008995D02*
X017833Y008995D01*
X017707Y008836D02*
X018010Y008836D01*
X018010Y008678D02*
X017899Y008678D01*
X017983Y008519D02*
X018010Y008519D01*
X018010Y008295D02*
X018010Y000924D01*
X016356Y000924D01*
X016398Y001024D01*
X016398Y001226D01*
X016320Y001414D01*
X016176Y001557D01*
X015989Y001635D01*
X015786Y001635D01*
X015599Y001557D01*
X015455Y001414D01*
X015388Y001251D01*
X015320Y001414D01*
X015176Y001557D01*
X015078Y001598D01*
X015078Y002406D01*
X015572Y002406D01*
X015605Y002439D01*
X015606Y002436D01*
X015640Y002402D01*
X015681Y002379D01*
X015727Y002366D01*
X015949Y002366D01*
X015949Y002725D01*
X015985Y002725D01*
X015985Y002366D01*
X016045Y002366D01*
X016045Y002087D01*
X016184Y001752D01*
X016440Y001496D01*
X016774Y001358D01*
X017136Y001358D01*
X017471Y001496D01*
X017727Y001752D01*
X017865Y002087D01*
X017865Y002449D01*
X017727Y002783D01*
X017484Y003026D01*
X017508Y003026D01*
X017508Y003384D01*
X017545Y003384D01*
X017545Y003026D01*
X017767Y003026D01*
X017813Y003038D01*
X017854Y003062D01*
X017887Y003095D01*
X017911Y003136D01*
X017923Y003182D01*
X017923Y003384D01*
X017545Y003384D01*
X017545Y003421D01*
X017508Y003421D01*
X017508Y003780D01*
X017287Y003780D01*
X017241Y003767D01*
X017200Y003744D01*
X017166Y003710D01*
X017164Y003707D01*
X017132Y003740D01*
X016691Y003740D01*
X016691Y004046D01*
X016611Y004126D01*
X016691Y004206D01*
X016691Y004544D01*
X016793Y004544D01*
X016832Y004504D01*
X016975Y004504D01*
X016951Y004446D01*
X016951Y004243D01*
X017029Y004056D01*
X017172Y003912D01*
X017360Y003834D01*
X017563Y003834D01*
X017750Y003912D01*
X017893Y004056D01*
X017971Y004243D01*
X017971Y004446D01*
X017893Y004633D01*
X017750Y004777D01*
X017587Y004844D01*
X017750Y004912D01*
X017893Y005056D01*
X017971Y005243D01*
X017971Y005446D01*
X017893Y005633D01*
X017750Y005777D01*
X017587Y005844D01*
X017750Y005912D01*
X017893Y006056D01*
X017971Y006243D01*
X017971Y006446D01*
X017893Y006633D01*
X017750Y006777D01*
X017587Y006844D01*
X017750Y006912D01*
X017893Y007056D01*
X017971Y007243D01*
X017971Y007446D01*
X017893Y007633D01*
X017750Y007777D01*
X017637Y007823D01*
X017672Y007835D01*
X017749Y007874D01*
X017819Y007925D01*
X017881Y007986D01*
X017931Y008056D01*
X017971Y008133D01*
X017998Y008216D01*
X018010Y008295D01*
X018010Y008202D02*
X017993Y008202D01*
X018010Y008044D02*
X017923Y008044D01*
X018010Y007885D02*
X017765Y007885D01*
X017800Y007727D02*
X018010Y007727D01*
X018010Y007568D02*
X017920Y007568D01*
X017971Y007410D02*
X018010Y007410D01*
X018010Y007251D02*
X017971Y007251D01*
X018010Y007093D02*
X017909Y007093D01*
X018010Y006934D02*
X017772Y006934D01*
X017751Y006776D02*
X018010Y006776D01*
X018010Y006617D02*
X017900Y006617D01*
X017966Y006459D02*
X018010Y006459D01*
X018010Y006300D02*
X017971Y006300D01*
X018010Y006142D02*
X017929Y006142D01*
X018010Y005983D02*
X017821Y005983D01*
X017634Y005825D02*
X018010Y005825D01*
X018010Y005666D02*
X017860Y005666D01*
X017945Y005508D02*
X018010Y005508D01*
X018010Y005349D02*
X017971Y005349D01*
X017950Y005191D02*
X018010Y005191D01*
X018010Y005032D02*
X017870Y005032D01*
X018010Y004874D02*
X017658Y004874D01*
X017811Y004715D02*
X018010Y004715D01*
X018010Y004557D02*
X017925Y004557D01*
X017971Y004398D02*
X018010Y004398D01*
X018010Y004240D02*
X017970Y004240D01*
X018010Y004081D02*
X017904Y004081D01*
X018010Y003923D02*
X017761Y003923D01*
X017767Y003780D02*
X017545Y003780D01*
X017545Y003421D01*
X017923Y003421D01*
X017923Y003623D01*
X017911Y003669D01*
X017887Y003710D01*
X017854Y003744D01*
X017813Y003767D01*
X017767Y003780D01*
X017818Y003764D02*
X018010Y003764D01*
X018010Y003606D02*
X017923Y003606D01*
X017923Y003447D02*
X018010Y003447D01*
X018010Y003289D02*
X017923Y003289D01*
X017908Y003130D02*
X018010Y003130D01*
X018010Y002972D02*
X017538Y002972D01*
X017545Y003130D02*
X017508Y003130D01*
X017508Y003289D02*
X017545Y003289D01*
X017545Y003447D02*
X017508Y003447D01*
X017508Y003606D02*
X017545Y003606D01*
X017545Y003764D02*
X017508Y003764D01*
X017236Y003764D02*
X016691Y003764D01*
X016691Y003923D02*
X017161Y003923D01*
X017018Y004081D02*
X016656Y004081D01*
X016691Y004240D02*
X016952Y004240D01*
X016951Y004398D02*
X016691Y004398D01*
X016244Y003533D02*
X016277Y003514D01*
X016315Y003477D01*
X016343Y003477D01*
X016501Y003387D01*
X016501Y003148D01*
X016560Y003089D01*
X016440Y003039D01*
X016364Y002963D01*
X016364Y002964D01*
X016351Y003009D01*
X016328Y003050D01*
X016294Y003084D01*
X016253Y003108D01*
X016207Y003120D01*
X015985Y003120D01*
X015985Y002762D01*
X015949Y002762D01*
X015949Y003120D01*
X015727Y003120D01*
X015692Y003111D01*
X015692Y003118D01*
X015781Y003207D01*
X016104Y003207D01*
X016186Y003289D01*
X016501Y003289D01*
X016518Y003130D02*
X015705Y003130D01*
X015949Y002972D02*
X015985Y002972D01*
X015985Y002813D02*
X015949Y002813D01*
X015949Y002655D02*
X015985Y002655D01*
X015985Y002496D02*
X015949Y002496D01*
X016045Y002338D02*
X015078Y002338D01*
X015078Y002179D02*
X016045Y002179D01*
X016072Y002021D02*
X015078Y002021D01*
X015078Y001862D02*
X016138Y001862D01*
X016232Y001704D02*
X015078Y001704D01*
X015188Y001545D02*
X015587Y001545D01*
X015444Y001387D02*
X015331Y001387D01*
X016188Y001545D02*
X016391Y001545D01*
X016331Y001387D02*
X016704Y001387D01*
X016397Y001228D02*
X018010Y001228D01*
X018010Y001070D02*
X016398Y001070D01*
X017207Y001387D02*
X018010Y001387D01*
X018010Y001545D02*
X017520Y001545D01*
X017678Y001704D02*
X018010Y001704D01*
X018010Y001862D02*
X017772Y001862D01*
X017838Y002021D02*
X018010Y002021D01*
X018010Y002179D02*
X017865Y002179D01*
X017865Y002338D02*
X018010Y002338D01*
X018010Y002496D02*
X017845Y002496D01*
X017780Y002655D02*
X018010Y002655D01*
X018010Y002813D02*
X017696Y002813D01*
X016373Y002972D02*
X016361Y002972D01*
X016186Y003289D02*
X016186Y003533D01*
X016244Y003533D01*
X016186Y003447D02*
X016395Y003447D01*
X018926Y004344D02*
X018926Y005344D01*
X018926Y006344D01*
X018926Y007344D01*
X018926Y009344D01*
X019011Y009429D01*
X019011Y009744D01*
X019611Y010344D01*
X020461Y010344D01*
X020461Y009344D02*
X019596Y009344D01*
X020461Y009344D02*
X020511Y009294D01*
X021369Y009294D01*
X023697Y006967D01*
X024087Y006577D02*
X023904Y006394D01*
X023511Y006394D01*
X021611Y008294D01*
X020461Y008294D01*
X020461Y008344D01*
X020461Y007344D02*
X019596Y007344D01*
X019596Y006344D02*
X020461Y006344D01*
X021690Y005116D01*
X021846Y005116D01*
X022235Y004726D02*
X022235Y004719D01*
X021911Y004394D01*
X021411Y004394D01*
X020461Y005344D01*
X019596Y005344D01*
X019596Y004344D02*
X020461Y004344D01*
X020761Y004044D01*
X022311Y004044D01*
X022603Y004336D01*
X022625Y004336D01*
X023811Y005744D02*
X024361Y006194D01*
X024461Y006194D01*
X024468Y006187D01*
X024476Y006187D01*
X018010Y009946D02*
X017784Y009946D01*
X017914Y010104D02*
X018010Y010104D01*
X018010Y010263D02*
X017971Y010263D01*
X017971Y010421D02*
X018010Y010421D01*
X018010Y010580D02*
X017916Y010580D01*
X018010Y010738D02*
X017788Y010738D01*
X018010Y011214D02*
X014400Y011214D01*
X014759Y010263D02*
X015424Y010263D01*
X015582Y010104D02*
X014686Y010104D01*
X014751Y009946D02*
X015614Y009946D01*
X015650Y009787D02*
X014751Y009787D01*
X014751Y009629D02*
X015614Y009629D01*
X015614Y009470D02*
X014720Y009470D01*
X015614Y009312D02*
X013551Y009312D01*
X013489Y009153D02*
X015694Y009153D01*
X015742Y008995D02*
X013125Y008995D01*
X013051Y008202D02*
X012935Y008202D01*
X012935Y008044D02*
X013051Y008044D01*
X012736Y007885D02*
X013609Y007885D01*
X013450Y007727D02*
X013217Y007727D01*
X012616Y007197D02*
X012616Y006508D01*
X012602Y006508D01*
X012602Y006575D01*
X012601Y006576D01*
X012490Y006687D01*
X011838Y006687D01*
X011838Y007220D01*
X011865Y007193D01*
X011906Y007169D01*
X011951Y007157D01*
X012173Y007157D01*
X012173Y007515D01*
X012210Y007515D01*
X012210Y007157D01*
X012432Y007157D01*
X012478Y007169D01*
X012519Y007193D01*
X012552Y007226D01*
X012554Y007229D01*
X012586Y007197D01*
X012616Y007197D01*
X012616Y007093D02*
X011838Y007093D01*
X011838Y006934D02*
X012616Y006934D01*
X012616Y006776D02*
X011838Y006776D01*
X012173Y007251D02*
X012210Y007251D01*
X012210Y007410D02*
X012173Y007410D01*
X012173Y007552D02*
X012173Y007910D01*
X012210Y007874D01*
X012210Y007552D01*
X012173Y007552D01*
X012173Y007568D02*
X012210Y007568D01*
X012210Y007727D02*
X012173Y007727D01*
X012173Y007885D02*
X012198Y007885D01*
X012419Y008202D02*
X012537Y008202D01*
X014277Y007410D02*
X014671Y007410D01*
X014669Y007408D02*
X014612Y007351D01*
X014565Y007286D01*
X014528Y007215D01*
X014503Y007139D01*
X014491Y007059D01*
X014491Y007019D01*
X015001Y007019D01*
X015001Y007019D01*
X015001Y007529D01*
X014961Y007529D01*
X014881Y007517D01*
X014805Y007492D01*
X014733Y007455D01*
X014669Y007408D01*
X014547Y007251D02*
X014347Y007251D01*
X014331Y007093D02*
X014496Y007093D01*
X014498Y006934D02*
X014223Y006934D01*
X014199Y006776D02*
X014552Y006776D01*
X014480Y006617D02*
X014199Y006617D01*
X014542Y006142D02*
X015209Y006142D01*
X015001Y007093D02*
X015001Y007093D01*
X015001Y007251D02*
X015001Y007251D01*
X015001Y007410D02*
X015001Y007410D01*
X015178Y008044D02*
X016221Y008044D01*
X016221Y008202D02*
X015178Y008202D01*
X015172Y008361D02*
X016221Y008361D01*
X016380Y008995D02*
X016843Y008995D01*
X016439Y012323D02*
X014563Y012323D01*
X014405Y012482D02*
X016281Y012482D01*
X016158Y012640D02*
X014376Y012640D01*
X014534Y012799D02*
X016093Y012799D01*
X016045Y012957D02*
X014571Y012957D01*
X014571Y013116D02*
X016045Y013116D01*
X016045Y013274D02*
X014555Y013274D01*
X014397Y013433D02*
X016111Y013433D01*
X016176Y013591D02*
X013622Y013591D01*
X013661Y013750D02*
X016324Y013750D01*
X016543Y013908D02*
X013283Y013908D01*
X013283Y014067D02*
X013246Y014067D01*
X013246Y014225D02*
X013283Y014225D01*
X012920Y014225D02*
X012884Y014225D01*
X013454Y013433D02*
X013726Y013433D01*
X008359Y009153D02*
X008316Y009153D01*
X008316Y008995D02*
X008458Y008995D01*
X008445Y008836D02*
X008316Y008836D01*
X008316Y008678D02*
X008443Y008678D01*
X008913Y008361D02*
X009073Y008361D01*
X009487Y007885D02*
X009679Y007885D01*
X009670Y008044D02*
X009526Y008044D01*
X009543Y008202D02*
X009670Y008202D01*
X009670Y008361D02*
X009543Y008361D01*
X009543Y007727D02*
X009487Y007727D01*
X012559Y006617D02*
X012616Y006617D01*
X004398Y004263D02*
X004398Y004010D01*
X004381Y003994D01*
X004398Y004263D02*
X003858Y004803D01*
X003730Y004803D01*
X003121Y004195D01*
X003121Y003994D01*
X000631Y005508D02*
X000541Y005508D01*
X000541Y005666D02*
X000689Y005666D01*
X000709Y005825D02*
X000541Y005825D01*
X000541Y005983D02*
X000709Y005983D01*
X000709Y006142D02*
X000541Y006142D01*
X000541Y006300D02*
X000709Y006300D01*
X000709Y006459D02*
X000541Y006459D01*
X000541Y006617D02*
X000709Y006617D01*
X000709Y006776D02*
X000541Y006776D01*
X000541Y006934D02*
X000858Y006934D01*
D42*
X003111Y005144D03*
X004261Y006644D03*
X006411Y006694D03*
X006981Y006614D03*
X006707Y007711D03*
X008183Y006274D03*
X008780Y006714D03*
X008884Y005635D03*
X009859Y005635D03*
X010452Y004916D03*
X012230Y005110D03*
X013790Y005375D03*
X013952Y003605D03*
X015630Y002232D03*
X012050Y001177D03*
X011384Y001901D03*
X011830Y002576D03*
X010730Y003232D03*
X010030Y002932D03*
X009962Y001804D03*
X008699Y001166D03*
X008171Y001516D03*
X008323Y002980D03*
X007908Y003291D03*
X010710Y007566D03*
X010859Y008096D03*
X011063Y008703D03*
X010569Y009387D03*
X008991Y008424D03*
X008458Y009478D03*
X008441Y010524D03*
X010330Y011043D03*
X007641Y012724D03*
X005650Y012932D03*
X010519Y014002D03*
X015525Y012875D03*
X013975Y008864D03*
X014009Y007199D03*
X011975Y007648D03*
X001720Y009246D03*
D43*
X023811Y005744D03*
M02*
