G75*
G70*
%OFA0B0*%
%FSLAX24Y24*%
%IPPOS*%
%LPD*%
%AMOC8*
5,1,8,0,0,1.08239X$1,22.5*
%
%ADD10C,0.0020*%
%ADD11C,0.0040*%
%ADD12C,0.0030*%
%ADD13C,0.0100*%
%ADD14C,0.0080*%
%ADD15C,0.0010*%
%ADD16C,0.0050*%
%ADD17C,0.0220*%
%ADD18R,0.0180X0.0300*%
%ADD19R,0.0300X0.0180*%
%ADD20C,0.0060*%
%ADD21R,0.0200X0.0200*%
D10*
X014935Y011672D02*
X014972Y011635D01*
X015008Y011635D01*
X015045Y011672D01*
X015045Y011855D01*
X015008Y011855D02*
X015082Y011855D01*
X015156Y011745D02*
X015156Y011672D01*
X015193Y011635D01*
X015266Y011635D01*
X015303Y011672D01*
X015303Y011745D01*
X015266Y011782D01*
X015193Y011782D01*
X015156Y011745D01*
X015377Y011782D02*
X015487Y011782D01*
X015524Y011745D01*
X015524Y011635D01*
X015598Y011672D02*
X015635Y011708D01*
X015745Y011708D01*
X015745Y011745D02*
X015745Y011635D01*
X015635Y011635D01*
X015598Y011672D01*
X015635Y011782D02*
X015708Y011782D01*
X015745Y011745D01*
X015819Y011782D02*
X015892Y011782D01*
X015856Y011818D02*
X015856Y011672D01*
X015892Y011635D01*
X015966Y011635D02*
X015966Y011855D01*
X015955Y011912D02*
X015919Y011912D01*
X015955Y011912D02*
X015992Y011948D01*
X015992Y012132D01*
X015882Y012132D01*
X015845Y012095D01*
X015845Y012022D01*
X015882Y011985D01*
X015992Y011985D01*
X016066Y011985D02*
X016066Y012132D01*
X016176Y012132D01*
X016213Y012095D01*
X016213Y011985D01*
X016287Y012022D02*
X016287Y012095D01*
X016324Y012132D01*
X016397Y012132D01*
X016434Y012095D01*
X016434Y012058D01*
X016287Y012058D01*
X016287Y012022D02*
X016324Y011985D01*
X016397Y011985D01*
X016508Y012022D02*
X016508Y012095D01*
X016545Y012132D01*
X016655Y012132D01*
X016655Y012205D02*
X016655Y011985D01*
X016545Y011985D01*
X016508Y012022D01*
X016518Y011782D02*
X016555Y011745D01*
X016555Y011635D01*
X016408Y011635D02*
X016408Y011782D01*
X016518Y011782D01*
X016334Y011745D02*
X016334Y011635D01*
X016224Y011635D01*
X016187Y011672D01*
X016224Y011708D01*
X016334Y011708D01*
X016334Y011745D02*
X016297Y011782D01*
X016224Y011782D01*
X016113Y011745D02*
X016113Y011635D01*
X016113Y011745D02*
X016076Y011782D01*
X016003Y011782D01*
X015966Y011745D01*
X015771Y011985D02*
X015698Y011985D01*
X015735Y011985D02*
X015735Y012132D01*
X015698Y012132D01*
X015624Y012132D02*
X015514Y012132D01*
X015477Y012095D01*
X015514Y012058D01*
X015587Y012058D01*
X015624Y012022D01*
X015587Y011985D01*
X015477Y011985D01*
X015403Y012058D02*
X015256Y012058D01*
X015256Y012022D02*
X015256Y012095D01*
X015293Y012132D01*
X015366Y012132D01*
X015403Y012095D01*
X015403Y012058D01*
X015366Y011985D02*
X015293Y011985D01*
X015256Y012022D01*
X015182Y012022D02*
X015182Y012168D01*
X015145Y012205D01*
X015035Y012205D01*
X015035Y011985D01*
X015145Y011985D01*
X015182Y012022D01*
X015377Y011782D02*
X015377Y011635D01*
X015735Y012205D02*
X015735Y012242D01*
X016850Y011855D02*
X016924Y011782D01*
X016997Y011855D01*
X016997Y011635D01*
X017071Y011672D02*
X017071Y011745D01*
X017108Y011782D01*
X017181Y011782D01*
X017218Y011745D01*
X017218Y011708D01*
X017071Y011708D01*
X017071Y011672D02*
X017108Y011635D01*
X017181Y011635D01*
X017292Y011672D02*
X017292Y011745D01*
X017329Y011782D01*
X017402Y011782D01*
X017439Y011745D01*
X017439Y011708D01*
X017292Y011708D01*
X017292Y011672D02*
X017329Y011635D01*
X017402Y011635D01*
X017513Y011672D02*
X017513Y011745D01*
X017550Y011782D01*
X017660Y011782D01*
X017660Y011855D02*
X017660Y011635D01*
X017550Y011635D01*
X017513Y011672D01*
X017281Y011912D02*
X017245Y011912D01*
X017281Y011912D02*
X017318Y011948D01*
X017318Y012132D01*
X017171Y012132D02*
X017171Y012022D01*
X017208Y011985D01*
X017318Y011985D01*
X017097Y012022D02*
X017097Y012095D01*
X017060Y012132D01*
X016950Y012132D01*
X016950Y012205D02*
X016950Y011985D01*
X017060Y011985D01*
X017097Y012022D01*
X016850Y011855D02*
X016850Y011635D01*
X016421Y013685D02*
X016348Y013685D01*
X016311Y013722D01*
X016237Y013685D02*
X016090Y013685D01*
X016163Y013685D02*
X016163Y013905D01*
X016090Y013832D01*
X016016Y013905D02*
X016016Y013685D01*
X015942Y013758D01*
X015869Y013685D01*
X015869Y013905D01*
X015887Y014035D02*
X015776Y014035D01*
X015740Y014072D01*
X015740Y014145D01*
X015776Y014182D01*
X015887Y014182D01*
X015961Y014145D02*
X015997Y014182D01*
X016071Y014182D01*
X016108Y014145D01*
X016108Y014035D01*
X015961Y014035D02*
X015961Y014255D01*
X015666Y014182D02*
X015592Y014182D01*
X015629Y014218D02*
X015629Y014072D01*
X015666Y014035D01*
X015518Y014035D02*
X015518Y014145D01*
X015482Y014182D01*
X015408Y014182D01*
X015408Y014108D02*
X015518Y014108D01*
X015518Y014035D02*
X015408Y014035D01*
X015371Y014072D01*
X015408Y014108D01*
X015297Y014035D02*
X015297Y014255D01*
X015150Y014255D02*
X015150Y014035D01*
X015224Y014108D01*
X015297Y014035D01*
X015353Y013905D02*
X015353Y013868D01*
X015206Y013722D01*
X015206Y013685D01*
X015132Y013722D02*
X015095Y013685D01*
X015022Y013685D01*
X014985Y013722D01*
X015058Y013795D02*
X015095Y013795D01*
X015132Y013758D01*
X015132Y013722D01*
X015095Y013795D02*
X015132Y013832D01*
X015132Y013868D01*
X015095Y013905D01*
X015022Y013905D01*
X014985Y013868D01*
X014856Y014035D02*
X014819Y014072D01*
X014819Y014218D01*
X014782Y014182D02*
X014856Y014182D01*
X014708Y014182D02*
X014671Y014182D01*
X014598Y014108D01*
X014598Y014035D02*
X014598Y014182D01*
X014524Y014145D02*
X014524Y014035D01*
X014414Y014035D01*
X014377Y014072D01*
X014414Y014108D01*
X014524Y014108D01*
X014524Y014145D02*
X014487Y014182D01*
X014414Y014182D01*
X014303Y014145D02*
X014303Y014035D01*
X014229Y014035D02*
X014229Y014145D01*
X014266Y014182D01*
X014303Y014145D01*
X014229Y014145D02*
X014193Y014182D01*
X014156Y014182D01*
X014156Y014035D01*
X014082Y014072D02*
X014045Y014035D01*
X013972Y014035D01*
X013935Y014072D01*
X013972Y014145D02*
X013935Y014182D01*
X013935Y014218D01*
X013972Y014255D01*
X014045Y014255D01*
X014082Y014218D01*
X014045Y014145D02*
X014082Y014108D01*
X014082Y014072D01*
X014045Y014145D02*
X013972Y014145D01*
X015206Y013905D02*
X015353Y013905D01*
X015427Y013868D02*
X015464Y013905D01*
X015537Y013905D01*
X015574Y013868D01*
X015574Y013832D01*
X015537Y013795D01*
X015574Y013758D01*
X015574Y013722D01*
X015537Y013685D01*
X015464Y013685D01*
X015427Y013722D01*
X015500Y013795D02*
X015537Y013795D01*
X016311Y013868D02*
X016348Y013905D01*
X016421Y013905D01*
X016458Y013868D01*
X016458Y013832D01*
X016421Y013795D01*
X016458Y013758D01*
X016458Y013722D01*
X016421Y013685D01*
X016421Y013795D02*
X016384Y013795D01*
X016403Y014035D02*
X016513Y014035D01*
X016549Y014072D01*
X016549Y014108D01*
X016513Y014145D01*
X016403Y014145D01*
X016513Y014145D02*
X016549Y014182D01*
X016549Y014218D01*
X016513Y014255D01*
X016403Y014255D01*
X016403Y014035D01*
X016624Y014072D02*
X016660Y014035D01*
X016734Y014035D01*
X016770Y014072D01*
X016770Y014145D01*
X016734Y014182D01*
X016660Y014182D01*
X016624Y014145D01*
X016624Y014072D01*
X016845Y014072D02*
X016881Y014108D01*
X016991Y014108D01*
X016991Y014145D02*
X016991Y014035D01*
X016881Y014035D01*
X016845Y014072D01*
X016881Y014182D02*
X016955Y014182D01*
X016991Y014145D01*
X017066Y014108D02*
X017139Y014182D01*
X017176Y014182D01*
X017250Y014145D02*
X017287Y014182D01*
X017397Y014182D01*
X017397Y014255D02*
X017397Y014035D01*
X017287Y014035D01*
X017250Y014072D01*
X017250Y014145D01*
X017066Y014182D02*
X017066Y014035D01*
X017692Y014108D02*
X017765Y014035D01*
X017839Y014108D01*
X017839Y014255D01*
X017913Y014182D02*
X017986Y014255D01*
X017986Y014035D01*
X017913Y014035D02*
X018060Y014035D01*
X017692Y014108D02*
X017692Y014255D01*
D11*
X021548Y010405D02*
X021702Y010405D01*
X021625Y010405D02*
X021625Y010022D01*
X021548Y009945D01*
X021472Y009945D01*
X021395Y010022D01*
X021855Y010022D02*
X021932Y009945D01*
X022086Y009945D01*
X022162Y010022D01*
X022162Y010175D01*
X022086Y010252D01*
X021932Y010252D01*
X021855Y010175D01*
X021855Y010022D01*
X022316Y010022D02*
X022393Y009945D01*
X022623Y009945D01*
X022623Y009868D02*
X022546Y009792D01*
X022469Y009792D01*
X022623Y009868D02*
X022623Y010252D01*
X022776Y010175D02*
X022853Y010252D01*
X023083Y010252D01*
X023237Y010252D02*
X023390Y010252D01*
X023313Y010329D02*
X023313Y010022D01*
X023390Y009945D01*
X023543Y009945D02*
X023697Y009945D01*
X023620Y009945D02*
X023620Y010252D01*
X023543Y010252D01*
X023620Y010405D02*
X023620Y010482D01*
X023850Y010175D02*
X023850Y010022D01*
X023927Y009945D01*
X024157Y009945D01*
X024311Y009945D02*
X024311Y010405D01*
X024157Y010252D02*
X023927Y010252D01*
X023850Y010175D01*
X024311Y010098D02*
X024541Y009945D01*
X024311Y010098D02*
X024541Y010252D01*
X025155Y010405D02*
X025155Y010098D01*
X025308Y009945D01*
X025462Y010098D01*
X025462Y010405D01*
X025615Y010252D02*
X025769Y010405D01*
X025769Y009945D01*
X025922Y009945D02*
X025615Y009945D01*
X023083Y010022D02*
X023006Y009945D01*
X022776Y009945D01*
X022853Y010098D02*
X022776Y010175D01*
X022853Y010098D02*
X023006Y010098D01*
X023083Y010022D01*
X022316Y010022D02*
X022316Y010252D01*
X016141Y006113D02*
X015834Y006113D01*
X015988Y006267D02*
X015988Y005960D01*
X015745Y005736D02*
X015745Y005429D01*
X015745Y005582D02*
X015284Y005582D01*
X015438Y005429D01*
X015361Y005275D02*
X015284Y005198D01*
X015284Y005045D01*
X015361Y004968D01*
X015438Y004968D01*
X015515Y005045D01*
X015515Y005198D01*
X015591Y005275D01*
X015668Y005275D01*
X015745Y005198D01*
X015745Y005045D01*
X015668Y004968D01*
X015668Y004815D02*
X015284Y004815D01*
X015284Y004508D02*
X015668Y004508D01*
X015745Y004585D01*
X015745Y004738D01*
X015668Y004815D01*
X015822Y005122D02*
X015208Y005122D01*
X015314Y007413D02*
X015008Y007413D01*
D12*
X021340Y009440D02*
X021533Y009440D01*
X021635Y009440D02*
X021828Y009440D01*
X021929Y009488D02*
X021929Y009682D01*
X021978Y009730D01*
X022074Y009730D01*
X022123Y009682D01*
X022224Y009682D02*
X022224Y009633D01*
X022272Y009585D01*
X022369Y009585D01*
X022417Y009537D01*
X022417Y009488D01*
X022369Y009440D01*
X022272Y009440D01*
X022224Y009488D01*
X022123Y009488D02*
X022074Y009440D01*
X021978Y009440D01*
X021929Y009488D01*
X021731Y009585D02*
X021635Y009585D01*
X021635Y009730D02*
X021635Y009440D01*
X021437Y009585D02*
X021340Y009585D01*
X021340Y009730D02*
X021340Y009440D01*
X021340Y009730D02*
X021533Y009730D01*
X021635Y009730D02*
X021828Y009730D01*
X022224Y009682D02*
X022272Y009730D01*
X022369Y009730D01*
X022417Y009682D01*
X022235Y009330D02*
X022090Y009330D01*
X022090Y009040D01*
X022235Y009040D01*
X022283Y009088D01*
X022283Y009282D01*
X022235Y009330D01*
X022433Y009233D02*
X022530Y009233D01*
X022578Y009185D01*
X022578Y009040D01*
X022433Y009040D01*
X022385Y009088D01*
X022433Y009137D01*
X022578Y009137D01*
X022679Y009233D02*
X022776Y009040D01*
X022873Y009233D01*
X022974Y009233D02*
X023022Y009233D01*
X023022Y009040D01*
X022974Y009040D02*
X023071Y009040D01*
X023170Y009088D02*
X023170Y009185D01*
X023219Y009233D01*
X023364Y009233D01*
X023364Y009330D02*
X023364Y009040D01*
X023219Y009040D01*
X023170Y009088D01*
X023022Y009330D02*
X023022Y009379D01*
X022958Y009440D02*
X022862Y009440D01*
X022813Y009488D01*
X022910Y009585D02*
X022958Y009585D01*
X023007Y009537D01*
X023007Y009488D01*
X022958Y009440D01*
X022958Y009585D02*
X023007Y009633D01*
X023007Y009682D01*
X022958Y009730D01*
X022862Y009730D01*
X022813Y009682D01*
X023108Y009730D02*
X023301Y009730D01*
X023301Y009682D01*
X023108Y009488D01*
X023108Y009440D01*
X023403Y009488D02*
X023451Y009440D01*
X023548Y009440D01*
X023596Y009488D01*
X023596Y009537D01*
X023548Y009585D01*
X023499Y009585D01*
X023548Y009585D02*
X023596Y009633D01*
X023596Y009682D01*
X023548Y009730D01*
X023451Y009730D01*
X023403Y009682D01*
X023856Y009330D02*
X023953Y009330D01*
X023905Y009330D02*
X023905Y009088D01*
X023856Y009040D01*
X023808Y009040D01*
X023760Y009088D01*
X024054Y009088D02*
X024103Y009137D01*
X024248Y009137D01*
X024248Y009185D02*
X024248Y009040D01*
X024103Y009040D01*
X024054Y009088D01*
X024103Y009233D02*
X024199Y009233D01*
X024248Y009185D01*
X024349Y009185D02*
X024349Y009088D01*
X024397Y009040D01*
X024542Y009040D01*
X024644Y009040D02*
X024644Y009330D01*
X024630Y009440D02*
X024581Y009488D01*
X024775Y009682D01*
X024775Y009488D01*
X024726Y009440D01*
X024630Y009440D01*
X024581Y009488D02*
X024581Y009682D01*
X024630Y009730D01*
X024726Y009730D01*
X024775Y009682D01*
X024876Y009633D02*
X024973Y009730D01*
X024973Y009440D01*
X025069Y009440D02*
X024876Y009440D01*
X024938Y009233D02*
X025083Y009233D01*
X025034Y009137D02*
X024938Y009137D01*
X024889Y009185D01*
X024938Y009233D01*
X025034Y009137D02*
X025083Y009088D01*
X025034Y009040D01*
X024889Y009040D01*
X024789Y009040D02*
X024644Y009137D01*
X024789Y009233D01*
X024542Y009233D02*
X024397Y009233D01*
X024349Y009185D01*
X024287Y009440D02*
X024480Y009633D01*
X024480Y009682D01*
X024432Y009730D01*
X024335Y009730D01*
X024287Y009682D01*
X024185Y009730D02*
X024185Y009440D01*
X024089Y009537D01*
X023992Y009440D01*
X023992Y009730D01*
X024287Y009440D02*
X024480Y009440D01*
X025170Y009488D02*
X025219Y009440D01*
X025316Y009440D01*
X025364Y009488D01*
X025364Y009537D01*
X025316Y009585D01*
X025267Y009585D01*
X025316Y009585D02*
X025364Y009633D01*
X025364Y009682D01*
X025316Y009730D01*
X025219Y009730D01*
X025170Y009682D01*
X025232Y009233D02*
X025184Y009185D01*
X025184Y009088D01*
X025232Y009040D01*
X025329Y009040D01*
X025377Y009088D01*
X025377Y009185D01*
X025329Y009233D01*
X025232Y009233D01*
X025478Y009233D02*
X025624Y009233D01*
X025672Y009185D01*
X025672Y009040D01*
X025478Y009040D02*
X025478Y009233D01*
D13*
X025375Y011025D02*
X018625Y011025D01*
X018625Y003375D01*
X025425Y003375D01*
X025425Y003425D01*
X018375Y000525D02*
X018375Y014675D01*
X012182Y005255D02*
X012184Y005282D01*
X012190Y005309D01*
X012199Y005335D01*
X012212Y005359D01*
X012228Y005382D01*
X012247Y005401D01*
X012269Y005418D01*
X012293Y005432D01*
X012318Y005442D01*
X012345Y005449D01*
X012372Y005452D01*
X012400Y005451D01*
X012427Y005446D01*
X012453Y005438D01*
X012477Y005426D01*
X012500Y005410D01*
X012521Y005392D01*
X012538Y005371D01*
X012553Y005347D01*
X012564Y005322D01*
X012572Y005296D01*
X012576Y005269D01*
X012576Y005241D01*
X012572Y005214D01*
X012564Y005188D01*
X012553Y005163D01*
X012538Y005139D01*
X012521Y005118D01*
X012500Y005100D01*
X012478Y005084D01*
X012453Y005072D01*
X012427Y005064D01*
X012400Y005059D01*
X012372Y005058D01*
X012345Y005061D01*
X012318Y005068D01*
X012293Y005078D01*
X012269Y005092D01*
X012247Y005109D01*
X012228Y005128D01*
X012212Y005151D01*
X012199Y005175D01*
X012190Y005201D01*
X012184Y005228D01*
X012182Y005255D01*
D14*
X002577Y001562D02*
X002577Y001168D01*
X002970Y001168D01*
X002577Y003609D02*
X002577Y004279D01*
X001880Y004950D02*
X001699Y004950D01*
X001607Y005072D01*
X001518Y004950D02*
X001699Y004950D01*
X001709Y004956D02*
X001785Y005072D01*
X001274Y004962D02*
X001092Y004962D01*
X001000Y005084D01*
X000911Y004962D02*
X001092Y004962D01*
X001102Y004968D02*
X001178Y005084D01*
X007380Y001168D02*
X007773Y001168D01*
X007773Y001562D01*
X009148Y002103D02*
X009148Y002339D01*
X009000Y003141D02*
X008685Y003141D01*
X009552Y003141D02*
X009866Y003141D01*
X009896Y002851D02*
X010368Y002851D01*
X011116Y002339D02*
X011116Y002103D01*
X011801Y001556D02*
X011551Y001306D01*
X011551Y000806D01*
X011801Y000556D01*
X012301Y000556D01*
X012551Y000806D01*
X012801Y000556D01*
X013301Y000556D01*
X013551Y000806D01*
X013801Y000556D01*
X014301Y000556D01*
X014551Y000806D01*
X014801Y000556D01*
X015301Y000556D01*
X015551Y000806D01*
X015801Y000556D01*
X016301Y000556D01*
X016551Y000806D01*
X016551Y001306D01*
X016301Y001556D01*
X015801Y001556D01*
X015551Y001306D01*
X015301Y001556D01*
X014801Y001556D01*
X014551Y001306D01*
X014301Y001556D01*
X013801Y001556D01*
X013551Y001306D01*
X013301Y001556D01*
X012801Y001556D01*
X012551Y001306D01*
X012301Y001556D01*
X011801Y001556D01*
X010368Y001591D02*
X009896Y001591D01*
X012055Y003159D02*
X012055Y005579D01*
X014475Y005579D01*
X014475Y003159D01*
X012055Y003159D01*
X009866Y005110D02*
X009552Y005110D01*
X009000Y005110D02*
X008685Y005110D01*
X009237Y004519D02*
X009239Y004531D01*
X009244Y004542D01*
X009253Y004551D01*
X009264Y004556D01*
X009276Y004558D01*
X009288Y004556D01*
X009299Y004551D01*
X009308Y004542D01*
X009313Y004531D01*
X009315Y004519D01*
X009313Y004507D01*
X009308Y004496D01*
X009299Y004487D01*
X009288Y004482D01*
X009276Y004480D01*
X009264Y004482D01*
X009253Y004487D01*
X009244Y004496D01*
X009239Y004507D01*
X009237Y004519D01*
X007773Y004279D02*
X007773Y003609D01*
X008743Y007803D02*
X008743Y008984D01*
X009570Y008964D02*
X009570Y007803D01*
X009571Y008964D02*
X009575Y008947D01*
X009583Y008931D01*
X009594Y008918D01*
X009608Y008907D01*
X009623Y008899D01*
X009641Y008895D01*
X009658Y008896D01*
X009675Y008900D01*
X009691Y008907D01*
X009705Y008918D01*
X009716Y008932D01*
X009724Y008948D01*
X009728Y008965D01*
X009728Y008983D01*
X009724Y009000D01*
X009716Y009016D01*
X009705Y009030D01*
X009691Y009041D01*
X009675Y009048D01*
X009658Y009052D01*
X009641Y009053D01*
X009623Y009049D01*
X009608Y009041D01*
X009594Y009030D01*
X009583Y009017D01*
X009575Y009001D01*
X009571Y008984D01*
X011621Y008707D02*
X011621Y008077D01*
X011779Y007920D01*
X012212Y007920D01*
X012999Y007920D02*
X013590Y007920D01*
X013590Y008865D01*
X012999Y008865D01*
X012634Y008970D02*
X012296Y008970D01*
X012212Y008865D02*
X011779Y008865D01*
X011621Y008707D01*
X012146Y009424D02*
X012146Y009636D01*
X012296Y010090D02*
X012634Y010090D01*
X010475Y011228D02*
X009975Y011228D01*
X009487Y011822D02*
X009487Y012082D01*
X009427Y013003D02*
X009525Y013101D01*
X008187Y012992D02*
X008187Y012732D01*
X008187Y012082D02*
X008187Y011822D01*
X007773Y011326D02*
X007773Y010932D01*
X007773Y011326D02*
X007380Y011326D01*
X007576Y013330D02*
X007104Y013330D01*
X006868Y013567D01*
X006868Y014275D02*
X007073Y014462D01*
X007103Y014487D01*
X007135Y014509D01*
X007170Y014527D01*
X007206Y014542D01*
X007243Y014554D01*
X007281Y014562D01*
X007320Y014566D01*
X007360Y014566D01*
X007399Y014562D01*
X007437Y014554D01*
X007474Y014542D01*
X007510Y014527D01*
X007545Y014509D01*
X007577Y014487D01*
X007607Y014462D01*
X007813Y014275D01*
X007813Y013567D02*
X007576Y013330D01*
X004888Y012933D02*
X004888Y012433D01*
X004638Y012183D01*
X004138Y012183D01*
X003888Y012433D01*
X003638Y012183D01*
X003138Y012183D01*
X002888Y012433D01*
X002888Y012933D01*
X003138Y013183D01*
X003638Y013183D01*
X003888Y012933D01*
X004138Y013183D01*
X004638Y013183D01*
X004888Y012933D01*
X002970Y011326D02*
X002577Y011326D01*
X002577Y010932D01*
X002063Y011341D02*
X002063Y011679D01*
X001608Y011191D02*
X001397Y011191D01*
X000943Y011341D02*
X000943Y011679D01*
X015894Y009742D02*
X016075Y009742D01*
X016167Y009620D01*
X016256Y009742D02*
X016075Y009742D01*
X016065Y009736D02*
X015989Y009620D01*
X017125Y009525D02*
X017125Y009025D01*
X017375Y008775D01*
X017125Y008525D01*
X017125Y008025D01*
X017375Y007775D01*
X017125Y007525D01*
X017125Y007025D01*
X017375Y006775D01*
X017125Y006525D01*
X017125Y006025D01*
X017375Y005775D01*
X017125Y005525D01*
X017125Y005025D01*
X017375Y004775D01*
X017125Y004525D01*
X017125Y004025D01*
X017375Y003775D01*
X017875Y003775D01*
X018125Y004025D01*
X018125Y004525D01*
X017875Y004775D01*
X018125Y005025D01*
X018125Y005525D01*
X017875Y005775D01*
X018125Y006025D01*
X018125Y006525D01*
X017875Y006775D01*
X018125Y007025D01*
X018125Y007525D01*
X017875Y007775D01*
X018125Y008025D01*
X018125Y008525D01*
X017875Y008775D01*
X018125Y009025D01*
X018125Y009525D01*
X017875Y009775D01*
X018125Y010025D01*
X018125Y010525D01*
X017875Y010775D01*
X017375Y010775D01*
X017125Y010525D01*
X017125Y010025D01*
X017375Y009775D01*
X017125Y009525D01*
X020125Y009525D02*
X020125Y009025D01*
X020375Y008775D01*
X020125Y008525D01*
X020125Y008025D01*
X020375Y007775D01*
X020125Y007525D01*
X020125Y007025D01*
X020375Y006775D01*
X020125Y006525D01*
X020125Y006025D01*
X020375Y005775D01*
X020125Y005525D01*
X020125Y005025D01*
X020375Y004775D01*
X020125Y004525D01*
X020125Y004025D01*
X020375Y003775D01*
X020875Y003775D01*
X021125Y004025D01*
X021125Y004525D01*
X020875Y004775D01*
X021125Y005025D01*
X021125Y005525D01*
X020875Y005775D01*
X021125Y006025D01*
X021125Y006525D01*
X020875Y006775D01*
X021125Y007025D01*
X021125Y007525D01*
X020875Y007775D01*
X021125Y008025D01*
X021125Y008525D01*
X020875Y008775D01*
X021125Y009025D01*
X021125Y009525D01*
X020875Y009775D01*
X021125Y010025D01*
X021125Y010525D01*
X020875Y010775D01*
X020375Y010775D01*
X020125Y010525D01*
X020125Y010025D01*
X020375Y009775D01*
X020125Y009525D01*
X022629Y006835D02*
X023088Y007294D01*
X023645Y007294D01*
X025037Y005902D01*
X025037Y005345D01*
X023562Y003870D01*
X023005Y003870D01*
X021613Y005262D01*
X021613Y005819D01*
X022072Y006278D01*
X022629Y006835D01*
X022629Y006278D01*
X022072Y006278D01*
X022267Y005749D02*
X022100Y005582D01*
X022267Y005415D01*
X022100Y005582D02*
X022601Y005582D01*
X022935Y005775D02*
X022935Y005389D01*
X022937Y005363D01*
X022942Y005338D01*
X022950Y005314D01*
X022961Y005291D01*
X022976Y005269D01*
X022993Y005250D01*
X023012Y005233D01*
X023034Y005218D01*
X023057Y005207D01*
X023081Y005199D01*
X023106Y005194D01*
X023132Y005192D01*
X023518Y005192D01*
X023544Y005194D01*
X023569Y005199D01*
X023593Y005207D01*
X023617Y005218D01*
X023638Y005233D01*
X023657Y005250D01*
X023674Y005269D01*
X023689Y005291D01*
X023700Y005314D01*
X023708Y005338D01*
X023713Y005363D01*
X023715Y005389D01*
X023715Y005775D01*
X023713Y005801D01*
X023708Y005826D01*
X023700Y005850D01*
X023689Y005874D01*
X023674Y005895D01*
X023657Y005914D01*
X023638Y005931D01*
X023617Y005946D01*
X023593Y005957D01*
X023569Y005965D01*
X023544Y005970D01*
X023518Y005972D01*
X023132Y005972D01*
X023106Y005970D01*
X023081Y005965D01*
X023057Y005957D01*
X023034Y005946D01*
X023012Y005931D01*
X022993Y005914D01*
X022976Y005895D01*
X022961Y005874D01*
X022950Y005850D01*
X022942Y005826D01*
X022937Y005801D01*
X022935Y005775D01*
X022734Y005582D02*
X022736Y005630D01*
X022742Y005678D01*
X022752Y005725D01*
X022765Y005771D01*
X022783Y005816D01*
X022803Y005860D01*
X022828Y005902D01*
X022856Y005941D01*
X022886Y005978D01*
X022920Y006012D01*
X022957Y006044D01*
X022995Y006073D01*
X023036Y006098D01*
X023079Y006120D01*
X023124Y006138D01*
X023170Y006152D01*
X023217Y006163D01*
X023265Y006170D01*
X023313Y006173D01*
X023361Y006172D01*
X023409Y006167D01*
X023457Y006158D01*
X023503Y006146D01*
X023548Y006129D01*
X023592Y006109D01*
X023634Y006086D01*
X023674Y006059D01*
X023712Y006029D01*
X023747Y005996D01*
X023779Y005960D01*
X023809Y005922D01*
X023835Y005881D01*
X023857Y005838D01*
X023877Y005794D01*
X023892Y005749D01*
X023904Y005702D01*
X023912Y005654D01*
X023916Y005606D01*
X023916Y005558D01*
X023912Y005510D01*
X023904Y005462D01*
X023892Y005415D01*
X023877Y005370D01*
X023857Y005326D01*
X023835Y005283D01*
X023809Y005242D01*
X023779Y005204D01*
X023747Y005168D01*
X023712Y005135D01*
X023674Y005105D01*
X023634Y005078D01*
X023592Y005055D01*
X023548Y005035D01*
X023503Y005018D01*
X023457Y005006D01*
X023409Y004997D01*
X023361Y004992D01*
X023313Y004991D01*
X023265Y004994D01*
X023217Y005001D01*
X023170Y005012D01*
X023124Y005026D01*
X023079Y005044D01*
X023036Y005066D01*
X022995Y005091D01*
X022957Y005120D01*
X022920Y005152D01*
X022886Y005186D01*
X022856Y005223D01*
X022828Y005262D01*
X022803Y005304D01*
X022783Y005348D01*
X022765Y005393D01*
X022752Y005439D01*
X022742Y005486D01*
X022736Y005534D01*
X022734Y005582D01*
X016739Y003990D02*
X016557Y003990D01*
X016465Y004112D01*
X016376Y003990D02*
X016557Y003990D01*
X016567Y003996D02*
X016643Y004112D01*
X016139Y003785D02*
X016063Y003669D01*
X016053Y003663D02*
X015961Y003785D01*
X015871Y003663D02*
X016053Y003663D01*
X016234Y003663D01*
D15*
X017269Y003028D02*
X017269Y002878D01*
X017269Y002928D02*
X017344Y002928D01*
X017369Y002953D01*
X017369Y003003D01*
X017344Y003028D01*
X017269Y003028D01*
X017319Y002928D02*
X017369Y002878D01*
X017416Y002878D02*
X017516Y002878D01*
X017564Y002878D02*
X017564Y002903D01*
X017664Y003003D01*
X017664Y003028D01*
X017564Y003028D01*
X017466Y003028D02*
X017466Y002878D01*
X017416Y002978D02*
X017466Y003028D01*
X016104Y002344D02*
X016104Y002319D01*
X016079Y002294D01*
X016029Y002294D01*
X016004Y002319D01*
X016004Y002344D01*
X016029Y002369D01*
X016079Y002369D01*
X016104Y002344D01*
X016079Y002294D02*
X016104Y002269D01*
X016104Y002244D01*
X016079Y002219D01*
X016029Y002219D01*
X016004Y002244D01*
X016004Y002269D01*
X016029Y002294D01*
X015957Y002219D02*
X015857Y002219D01*
X015809Y002219D02*
X015759Y002269D01*
X015784Y002269D02*
X015709Y002269D01*
X015709Y002219D02*
X015709Y002369D01*
X015784Y002369D01*
X015809Y002344D01*
X015809Y002294D01*
X015784Y002269D01*
X015857Y002319D02*
X015907Y002369D01*
X015907Y002219D01*
X019080Y004580D02*
X019080Y004730D01*
X019155Y004730D01*
X019180Y004705D01*
X019180Y004655D01*
X019155Y004630D01*
X019080Y004630D01*
X019130Y004630D02*
X019180Y004580D01*
X019227Y004580D02*
X019327Y004680D01*
X019327Y004705D01*
X019302Y004730D01*
X019252Y004730D01*
X019227Y004705D01*
X019227Y004580D02*
X019327Y004580D01*
X019375Y004605D02*
X019475Y004705D01*
X019475Y004605D01*
X019450Y004580D01*
X019400Y004580D01*
X019375Y004605D01*
X019375Y004705D01*
X019400Y004730D01*
X019450Y004730D01*
X019475Y004705D01*
X019475Y005580D02*
X019375Y005580D01*
X019475Y005680D01*
X019475Y005705D01*
X019450Y005730D01*
X019400Y005730D01*
X019375Y005705D01*
X019327Y005705D02*
X019302Y005730D01*
X019252Y005730D01*
X019227Y005705D01*
X019180Y005705D02*
X019180Y005655D01*
X019155Y005630D01*
X019080Y005630D01*
X019080Y005580D02*
X019080Y005730D01*
X019155Y005730D01*
X019180Y005705D01*
X019130Y005630D02*
X019180Y005580D01*
X019227Y005580D02*
X019327Y005680D01*
X019327Y005705D01*
X019327Y005580D02*
X019227Y005580D01*
X019227Y006580D02*
X019327Y006580D01*
X019277Y006580D02*
X019277Y006730D01*
X019227Y006680D01*
X019180Y006655D02*
X019155Y006630D01*
X019080Y006630D01*
X019080Y006580D02*
X019080Y006730D01*
X019155Y006730D01*
X019180Y006705D01*
X019180Y006655D01*
X019130Y006630D02*
X019180Y006580D01*
X019375Y006605D02*
X019400Y006580D01*
X019450Y006580D01*
X019475Y006605D01*
X019475Y006705D01*
X019450Y006730D01*
X019400Y006730D01*
X019375Y006705D01*
X019375Y006680D01*
X019400Y006655D01*
X019475Y006655D01*
X019327Y007580D02*
X019227Y007580D01*
X019180Y007580D02*
X019130Y007630D01*
X019155Y007630D02*
X019080Y007630D01*
X019080Y007580D02*
X019080Y007730D01*
X019155Y007730D01*
X019180Y007705D01*
X019180Y007655D01*
X019155Y007630D01*
X019227Y007680D02*
X019277Y007730D01*
X019277Y007580D01*
X021483Y006075D02*
X021483Y006040D01*
X021500Y006022D01*
X021536Y006022D01*
X021571Y006057D01*
X021607Y006057D01*
X021624Y006040D01*
X021624Y006004D01*
X021589Y005969D01*
X021553Y005969D01*
X021483Y006075D02*
X021518Y006110D01*
X021553Y006110D01*
X021605Y006126D02*
X021605Y006197D01*
X021711Y006091D01*
X021746Y006126D02*
X021675Y006055D01*
X019475Y009580D02*
X019375Y009580D01*
X019327Y009580D02*
X019227Y009580D01*
X019327Y009680D01*
X019327Y009705D01*
X019302Y009730D01*
X019252Y009730D01*
X019227Y009705D01*
X019180Y009705D02*
X019180Y009655D01*
X019155Y009630D01*
X019080Y009630D01*
X019080Y009580D02*
X019080Y009730D01*
X019155Y009730D01*
X019180Y009705D01*
X019130Y009630D02*
X019180Y009580D01*
X019375Y009680D02*
X019425Y009730D01*
X019425Y009580D01*
X016333Y010195D02*
X016308Y010170D01*
X016258Y010170D01*
X016233Y010195D01*
X016185Y010170D02*
X016085Y010170D01*
X016185Y010270D01*
X016185Y010295D01*
X016160Y010320D01*
X016110Y010320D01*
X016085Y010295D01*
X016038Y010295D02*
X016038Y010245D01*
X016013Y010220D01*
X015938Y010220D01*
X015938Y010170D02*
X015938Y010320D01*
X016013Y010320D01*
X016038Y010295D01*
X015988Y010220D02*
X016038Y010170D01*
X016233Y010295D02*
X016258Y010320D01*
X016308Y010320D01*
X016333Y010295D01*
X016333Y010270D01*
X016308Y010245D01*
X016333Y010220D01*
X016333Y010195D01*
X016308Y010245D02*
X016283Y010245D01*
X015795Y009847D02*
X015795Y009797D01*
X015770Y009772D01*
X015770Y009725D02*
X015670Y009725D01*
X015645Y009700D01*
X015645Y009625D01*
X015795Y009625D01*
X015795Y009700D01*
X015770Y009725D01*
X015720Y009772D02*
X015695Y009822D01*
X015695Y009847D01*
X015720Y009872D01*
X015770Y009872D01*
X015795Y009847D01*
X015720Y009772D02*
X015645Y009772D01*
X015645Y009872D01*
X015645Y009577D02*
X015645Y009477D01*
X015795Y009477D01*
X015795Y009577D01*
X015720Y009527D02*
X015720Y009477D01*
X015795Y009430D02*
X015795Y009330D01*
X015645Y009330D01*
X015136Y009754D02*
X015036Y009754D01*
X015136Y009854D01*
X015136Y009879D01*
X015111Y009904D01*
X015061Y009904D01*
X015036Y009879D01*
X014988Y009879D02*
X014963Y009904D01*
X014913Y009904D01*
X014888Y009879D01*
X014888Y009779D01*
X014913Y009754D01*
X014963Y009754D01*
X014988Y009779D01*
X014981Y010402D02*
X015006Y010427D01*
X014981Y010402D02*
X014931Y010402D01*
X014906Y010427D01*
X014906Y010528D01*
X014931Y010553D01*
X014981Y010553D01*
X015006Y010528D01*
X015053Y010503D02*
X015103Y010553D01*
X015103Y010402D01*
X015053Y010402D02*
X015153Y010402D01*
X015200Y010427D02*
X015225Y010402D01*
X015275Y010402D01*
X015300Y010427D01*
X015300Y010478D01*
X015275Y010503D01*
X015250Y010503D01*
X015200Y010478D01*
X015200Y010553D01*
X015300Y010553D01*
X014710Y011154D02*
X014710Y011305D01*
X014635Y011229D01*
X014735Y011229D01*
X014587Y011179D02*
X014562Y011154D01*
X014512Y011154D01*
X014487Y011179D01*
X014487Y011279D01*
X014512Y011305D01*
X014562Y011305D01*
X014587Y011279D01*
X013483Y011273D02*
X013483Y011248D01*
X013458Y011223D01*
X013408Y011223D01*
X013383Y011248D01*
X013336Y011298D02*
X013311Y011273D01*
X013236Y011273D01*
X013236Y011223D02*
X013236Y011373D01*
X013311Y011373D01*
X013336Y011348D01*
X013336Y011298D01*
X013383Y011348D02*
X013408Y011373D01*
X013458Y011373D01*
X013483Y011348D01*
X013483Y011323D01*
X013458Y011298D01*
X013483Y011273D01*
X013458Y011298D02*
X013433Y011298D01*
X013189Y011373D02*
X013138Y011373D01*
X013163Y011373D02*
X013163Y011248D01*
X013138Y011223D01*
X013113Y011223D01*
X013088Y011248D01*
X011282Y010772D02*
X011182Y010772D01*
X011182Y010697D01*
X011232Y010722D01*
X011257Y010722D01*
X011282Y010697D01*
X011282Y010647D01*
X011257Y010622D01*
X011207Y010622D01*
X011182Y010647D01*
X011135Y010622D02*
X011085Y010672D01*
X011110Y010672D02*
X011035Y010672D01*
X011035Y010622D02*
X011035Y010772D01*
X011110Y010772D01*
X011135Y010747D01*
X011135Y010697D01*
X011110Y010672D01*
X011101Y010970D02*
X011151Y010970D01*
X011176Y010995D01*
X011176Y011095D01*
X011151Y011120D01*
X011101Y011120D01*
X011076Y011095D01*
X011076Y011070D01*
X011101Y011045D01*
X011176Y011045D01*
X011101Y010970D02*
X011076Y010995D01*
X011028Y010970D02*
X010978Y011020D01*
X011003Y011020D02*
X010928Y011020D01*
X010928Y010970D02*
X010928Y011120D01*
X011003Y011120D01*
X011028Y011095D01*
X011028Y011045D01*
X011003Y011020D01*
X010711Y010272D02*
X010736Y010247D01*
X010636Y010147D01*
X010661Y010122D01*
X010711Y010122D01*
X010736Y010147D01*
X010736Y010247D01*
X010711Y010272D02*
X010661Y010272D01*
X010636Y010247D01*
X010636Y010147D01*
X010589Y010122D02*
X010489Y010122D01*
X010442Y010122D02*
X010391Y010172D01*
X010417Y010172D02*
X010341Y010172D01*
X010341Y010122D02*
X010341Y010272D01*
X010417Y010272D01*
X010442Y010247D01*
X010442Y010197D01*
X010417Y010172D01*
X010489Y010222D02*
X010539Y010272D01*
X010539Y010122D01*
X009680Y009138D02*
X009705Y009113D01*
X009705Y009063D01*
X009680Y009038D01*
X009680Y008991D02*
X009555Y008991D01*
X009580Y009038D02*
X009555Y009063D01*
X009555Y009113D01*
X009580Y009138D01*
X009605Y009138D01*
X009630Y009113D01*
X009655Y009138D01*
X009680Y009138D01*
X009630Y009113D02*
X009630Y009088D01*
X009680Y008991D02*
X009705Y008966D01*
X009705Y008916D01*
X009680Y008891D01*
X009555Y008891D01*
X010516Y008731D02*
X010516Y008631D01*
X010541Y008584D02*
X010516Y008559D01*
X010516Y008508D01*
X010541Y008483D01*
X010641Y008483D01*
X010666Y008508D01*
X010666Y008559D01*
X010641Y008584D01*
X010641Y008631D02*
X010666Y008631D01*
X010641Y008631D02*
X010541Y008731D01*
X010516Y008731D01*
X009169Y010153D02*
X009119Y010153D01*
X009094Y010179D01*
X009094Y010204D01*
X009119Y010229D01*
X009169Y010229D01*
X009194Y010204D01*
X009194Y010179D01*
X009169Y010153D01*
X009169Y010229D02*
X009194Y010254D01*
X009194Y010279D01*
X009169Y010304D01*
X009119Y010304D01*
X009094Y010279D01*
X009094Y010254D01*
X009119Y010229D01*
X009047Y010279D02*
X009022Y010304D01*
X008972Y010304D01*
X008946Y010279D01*
X008946Y010179D01*
X008972Y010153D01*
X009022Y010153D01*
X009047Y010179D01*
X009039Y010614D02*
X008989Y010614D01*
X008964Y010639D01*
X008917Y010614D02*
X008867Y010664D01*
X008892Y010664D02*
X008817Y010664D01*
X008817Y010614D02*
X008817Y010764D01*
X008892Y010764D01*
X008917Y010739D01*
X008917Y010689D01*
X008892Y010664D01*
X008964Y010739D02*
X008989Y010764D01*
X009039Y010764D01*
X009064Y010739D01*
X009064Y010714D01*
X009039Y010689D01*
X009064Y010664D01*
X009064Y010639D01*
X009039Y010614D01*
X009039Y010689D02*
X009014Y010689D01*
X009167Y011372D02*
X009142Y011397D01*
X009142Y011497D01*
X009167Y011522D01*
X009217Y011522D01*
X009242Y011497D01*
X009289Y011497D02*
X009314Y011522D01*
X009364Y011522D01*
X009389Y011497D01*
X009389Y011472D01*
X009364Y011447D01*
X009389Y011422D01*
X009389Y011397D01*
X009364Y011372D01*
X009314Y011372D01*
X009289Y011397D01*
X009242Y011397D02*
X009217Y011372D01*
X009167Y011372D01*
X009339Y011447D02*
X009364Y011447D01*
X007417Y012001D02*
X007317Y011901D01*
X007317Y011876D01*
X007270Y011876D02*
X007220Y011926D01*
X007245Y011926D02*
X007170Y011926D01*
X007170Y011876D02*
X007170Y012026D01*
X007245Y012026D01*
X007270Y012001D01*
X007270Y011951D01*
X007245Y011926D01*
X007317Y012026D02*
X007417Y012026D01*
X007417Y012001D01*
X007218Y012494D02*
X007168Y012494D01*
X007143Y012519D01*
X007143Y012569D01*
X007218Y012569D01*
X007243Y012544D01*
X007243Y012519D01*
X007218Y012494D01*
X007143Y012569D02*
X007193Y012619D01*
X007243Y012644D01*
X007096Y012619D02*
X007096Y012569D01*
X007071Y012544D01*
X006995Y012544D01*
X006995Y012494D02*
X006995Y012644D01*
X007071Y012644D01*
X007096Y012619D01*
X007045Y012544D02*
X007096Y012494D01*
X006245Y013282D02*
X006245Y013432D01*
X006170Y013357D01*
X006270Y013357D01*
X006123Y013357D02*
X006098Y013332D01*
X006023Y013332D01*
X006023Y013282D02*
X006023Y013432D01*
X006098Y013432D01*
X006123Y013407D01*
X006123Y013357D01*
X006073Y013332D02*
X006123Y013282D01*
X008248Y014090D02*
X008348Y014090D01*
X008395Y014090D02*
X008496Y014090D01*
X008445Y014090D02*
X008445Y014240D01*
X008395Y014190D01*
X008248Y014240D02*
X008248Y014090D01*
X009513Y014190D02*
X009538Y014165D01*
X009588Y014165D01*
X009613Y014190D01*
X009660Y014190D02*
X009685Y014165D01*
X009735Y014165D01*
X009760Y014190D01*
X009760Y014215D01*
X009735Y014240D01*
X009660Y014240D01*
X009660Y014190D01*
X009660Y014240D02*
X009710Y014290D01*
X009760Y014315D01*
X009613Y014290D02*
X009588Y014315D01*
X009538Y014315D01*
X009513Y014290D01*
X009513Y014190D01*
X011414Y014168D02*
X011489Y014168D01*
X011514Y014193D01*
X011514Y014243D01*
X011489Y014268D01*
X011414Y014268D01*
X011414Y014118D01*
X011464Y014168D02*
X011514Y014118D01*
X011561Y014143D02*
X011561Y014168D01*
X011586Y014193D01*
X011636Y014193D01*
X011661Y014168D01*
X011661Y014143D01*
X011636Y014118D01*
X011586Y014118D01*
X011561Y014143D01*
X011586Y014193D02*
X011561Y014218D01*
X011561Y014243D01*
X011586Y014268D01*
X011636Y014268D01*
X011661Y014243D01*
X011661Y014218D01*
X011636Y014193D01*
X012749Y014163D02*
X012774Y014138D01*
X012824Y014138D01*
X012849Y014163D01*
X012896Y014163D02*
X012921Y014138D01*
X012971Y014138D01*
X012996Y014163D01*
X012996Y014213D01*
X012971Y014238D01*
X012946Y014238D01*
X012896Y014213D01*
X012896Y014288D01*
X012996Y014288D01*
X012849Y014263D02*
X012824Y014288D01*
X012774Y014288D01*
X012749Y014263D01*
X012749Y014163D01*
X013691Y008444D02*
X013666Y008419D01*
X013666Y008319D01*
X013691Y008294D01*
X013741Y008294D01*
X013766Y008319D01*
X013813Y008319D02*
X013838Y008294D01*
X013888Y008294D01*
X013913Y008319D01*
X013913Y008419D01*
X013888Y008444D01*
X013838Y008444D01*
X013813Y008419D01*
X013813Y008394D01*
X013838Y008369D01*
X013913Y008369D01*
X013766Y008419D02*
X013741Y008444D01*
X013691Y008444D01*
X014265Y008480D02*
X014265Y008380D01*
X014290Y008355D01*
X014340Y008355D01*
X014365Y008380D01*
X014413Y008355D02*
X014513Y008355D01*
X014463Y008355D02*
X014463Y008505D01*
X014413Y008455D01*
X014365Y008480D02*
X014340Y008505D01*
X014290Y008505D01*
X014265Y008480D01*
X014560Y008430D02*
X014660Y008430D01*
X014635Y008355D02*
X014635Y008505D01*
X014560Y008430D01*
X013773Y007359D02*
X013798Y007334D01*
X013698Y007234D01*
X013723Y007209D01*
X013773Y007209D01*
X013798Y007234D01*
X013798Y007334D01*
X013773Y007359D02*
X013723Y007359D01*
X013698Y007334D01*
X013698Y007234D01*
X013651Y007209D02*
X013551Y007209D01*
X013601Y007209D02*
X013601Y007359D01*
X013551Y007309D01*
X013503Y007334D02*
X013478Y007359D01*
X013428Y007359D01*
X013403Y007334D01*
X013403Y007234D01*
X013428Y007209D01*
X013478Y007209D01*
X013503Y007234D01*
X010866Y006606D02*
X010866Y006506D01*
X010766Y006606D01*
X010741Y006606D01*
X010716Y006581D01*
X010716Y006531D01*
X010741Y006506D01*
X010716Y006408D02*
X010866Y006408D01*
X010866Y006358D02*
X010866Y006458D01*
X010766Y006358D02*
X010716Y006408D01*
X010741Y006311D02*
X010791Y006311D01*
X010816Y006286D01*
X010816Y006211D01*
X010866Y006211D02*
X010716Y006211D01*
X010716Y006286D01*
X010741Y006311D01*
X010816Y006261D02*
X010866Y006311D01*
X009358Y006946D02*
X009208Y006946D01*
X009208Y007021D01*
X009233Y007046D01*
X009283Y007046D01*
X009308Y007021D01*
X009308Y006946D01*
X009308Y006996D02*
X009358Y007046D01*
X009358Y007094D02*
X009358Y007194D01*
X009358Y007241D02*
X009358Y007341D01*
X009358Y007291D02*
X009208Y007291D01*
X009258Y007241D01*
X009208Y007144D02*
X009358Y007144D01*
X009258Y007094D02*
X009208Y007144D01*
X009195Y005934D02*
X009245Y005934D01*
X009270Y005909D01*
X009270Y005884D01*
X009245Y005859D01*
X009270Y005834D01*
X009270Y005809D01*
X009245Y005784D01*
X009195Y005784D01*
X009170Y005809D01*
X009123Y005784D02*
X009023Y005784D01*
X008976Y005784D02*
X008926Y005834D01*
X008951Y005834D02*
X008876Y005834D01*
X008876Y005784D02*
X008876Y005934D01*
X008951Y005934D01*
X008976Y005909D01*
X008976Y005859D01*
X008951Y005834D01*
X009023Y005884D02*
X009073Y005934D01*
X009073Y005784D01*
X009170Y005909D02*
X009195Y005934D01*
X009220Y005859D02*
X009245Y005859D01*
X007871Y004649D02*
X007821Y004598D01*
X007821Y004624D02*
X007821Y004548D01*
X007871Y004548D02*
X007721Y004548D01*
X007721Y004624D01*
X007746Y004649D01*
X007796Y004649D01*
X007821Y004624D01*
X007871Y004501D02*
X007871Y004401D01*
X007721Y004401D01*
X007721Y004501D01*
X007796Y004451D02*
X007796Y004401D01*
X007721Y004354D02*
X007721Y004254D01*
X007721Y004207D02*
X007721Y004106D01*
X007871Y004106D01*
X007871Y004207D01*
X007796Y004157D02*
X007796Y004106D01*
X007721Y004059D02*
X007871Y004059D01*
X007871Y003959D02*
X007721Y003959D01*
X007771Y004009D01*
X007721Y004059D01*
X007746Y003912D02*
X007721Y003887D01*
X007721Y003837D01*
X007746Y003812D01*
X007846Y003812D01*
X007871Y003837D01*
X007871Y003887D01*
X007846Y003912D01*
X007746Y003912D01*
X007746Y003765D02*
X007796Y003765D01*
X007821Y003740D01*
X007821Y003664D01*
X007871Y003664D02*
X007721Y003664D01*
X007721Y003740D01*
X007746Y003765D01*
X007821Y003715D02*
X007871Y003765D01*
X007871Y003617D02*
X007871Y003517D01*
X007721Y003517D01*
X007721Y003617D01*
X007796Y003567D02*
X007796Y003517D01*
X007871Y003470D02*
X007871Y003370D01*
X007721Y003370D01*
X007721Y003323D02*
X007721Y003223D01*
X007871Y003223D01*
X007871Y003323D01*
X007796Y003273D02*
X007796Y003223D01*
X007846Y003175D02*
X007871Y003150D01*
X007871Y003100D01*
X007846Y003075D01*
X007746Y003075D01*
X007721Y003100D01*
X007721Y003150D01*
X007746Y003175D01*
X007746Y003028D02*
X007721Y003003D01*
X007721Y002953D01*
X007746Y002928D01*
X007846Y002928D01*
X007871Y002953D01*
X007871Y003003D01*
X007846Y003028D01*
X007871Y002881D02*
X007771Y002881D01*
X007721Y002831D01*
X007771Y002781D01*
X007871Y002781D01*
X007796Y002781D02*
X007796Y002881D01*
X008895Y002607D02*
X008895Y002557D01*
X008920Y002531D01*
X008970Y002582D02*
X008970Y002607D01*
X008995Y002632D01*
X009020Y002632D01*
X009045Y002607D01*
X009045Y002557D01*
X009020Y002531D01*
X009045Y002484D02*
X009045Y002384D01*
X009045Y002434D02*
X008895Y002434D01*
X008945Y002384D01*
X008920Y002337D02*
X008895Y002312D01*
X008895Y002262D01*
X008920Y002237D01*
X009020Y002237D01*
X009045Y002262D01*
X009045Y002312D01*
X009020Y002337D01*
X008970Y002607D02*
X008945Y002632D01*
X008920Y002632D01*
X008895Y002607D01*
X007871Y004304D02*
X007721Y004304D01*
X011208Y003842D02*
X011358Y003842D01*
X011358Y003792D02*
X011358Y003892D01*
X011258Y003792D02*
X011208Y003842D01*
X011208Y003695D02*
X011358Y003695D01*
X011358Y003645D02*
X011358Y003745D01*
X011258Y003645D02*
X011208Y003695D01*
X011233Y003597D02*
X011208Y003572D01*
X011208Y003522D01*
X011233Y003497D01*
X011333Y003497D01*
X011358Y003522D01*
X011358Y003572D01*
X011333Y003597D01*
X011908Y002963D02*
X011883Y002938D01*
X011883Y002837D01*
X011908Y002812D01*
X011958Y002812D01*
X011983Y002837D01*
X012030Y002812D02*
X012130Y002812D01*
X012178Y002812D02*
X012278Y002913D01*
X012278Y002938D01*
X012253Y002963D01*
X012203Y002963D01*
X012178Y002938D01*
X012080Y002963D02*
X012080Y002812D01*
X012178Y002812D02*
X012278Y002812D01*
X012080Y002963D02*
X012030Y002913D01*
X011983Y002938D02*
X011958Y002963D01*
X011908Y002963D01*
X002287Y002859D02*
X002287Y002809D01*
X002262Y002784D01*
X002212Y002784D02*
X002187Y002834D01*
X002187Y002859D01*
X002212Y002884D01*
X002262Y002884D01*
X002287Y002859D01*
X002212Y002784D02*
X002137Y002784D01*
X002137Y002884D01*
X002137Y002686D02*
X002287Y002686D01*
X002287Y002636D02*
X002287Y002736D01*
X002187Y002636D02*
X002137Y002686D01*
X002162Y002589D02*
X002212Y002589D01*
X002237Y002564D01*
X002237Y002489D01*
X002237Y002539D02*
X002287Y002589D01*
X002287Y002489D02*
X002137Y002489D01*
X002137Y002564D01*
X002162Y002589D01*
X000791Y002791D02*
X000640Y002791D01*
X000640Y002866D01*
X000665Y002891D01*
X000715Y002891D01*
X000741Y002866D01*
X000741Y002791D01*
X000741Y002841D02*
X000791Y002891D01*
X000791Y002938D02*
X000791Y003038D01*
X000791Y002988D02*
X000640Y002988D01*
X000690Y002938D01*
X000715Y003085D02*
X000715Y003160D01*
X000741Y003185D01*
X000766Y003185D01*
X000791Y003160D01*
X000791Y003110D01*
X000766Y003085D01*
X000715Y003085D01*
X000665Y003135D01*
X000640Y003185D01*
X001379Y004195D02*
X001379Y004270D01*
X001404Y004295D01*
X001454Y004295D01*
X001479Y004270D01*
X001479Y004195D01*
X001479Y004245D02*
X001529Y004295D01*
X001529Y004343D02*
X001529Y004443D01*
X001529Y004393D02*
X001379Y004393D01*
X001429Y004343D01*
X001454Y004490D02*
X001454Y004590D01*
X001379Y004565D02*
X001454Y004490D01*
X001529Y004565D02*
X001379Y004565D01*
X001372Y004794D02*
X001522Y004794D01*
X001522Y004894D01*
X001522Y004942D02*
X001522Y005042D01*
X001522Y005089D02*
X001522Y005164D01*
X001497Y005189D01*
X001397Y005189D01*
X001372Y005164D01*
X001372Y005089D01*
X001522Y005089D01*
X001447Y004992D02*
X001447Y004942D01*
X001372Y004942D02*
X001522Y004942D01*
X001372Y004942D02*
X001372Y005042D01*
X001397Y005236D02*
X001372Y005261D01*
X001372Y005311D01*
X001397Y005336D01*
X001422Y005336D01*
X001522Y005236D01*
X001522Y005336D01*
X001979Y005275D02*
X002129Y005275D01*
X002129Y005225D02*
X002129Y005325D01*
X002029Y005225D02*
X001979Y005275D01*
X002004Y005178D02*
X001979Y005153D01*
X001979Y005078D01*
X002129Y005078D01*
X002129Y005153D01*
X002104Y005178D01*
X002004Y005178D01*
X001979Y005030D02*
X001979Y004930D01*
X002129Y004930D01*
X002129Y005030D01*
X002054Y004980D02*
X002054Y004930D01*
X002129Y004883D02*
X002129Y004783D01*
X001979Y004783D01*
X001529Y004195D02*
X001379Y004195D01*
X001358Y010176D02*
X001308Y010226D01*
X001333Y010226D02*
X001258Y010226D01*
X001258Y010176D02*
X001258Y010326D01*
X001333Y010326D01*
X001358Y010301D01*
X001358Y010251D01*
X001333Y010226D01*
X001405Y010176D02*
X001505Y010276D01*
X001505Y010301D01*
X001480Y010326D01*
X001430Y010326D01*
X001405Y010301D01*
X001405Y010176D02*
X001505Y010176D01*
X001588Y010505D02*
X001638Y010505D01*
X001663Y010530D01*
X001663Y010655D01*
X001710Y010605D02*
X001760Y010655D01*
X001760Y010505D01*
X001710Y010505D02*
X001810Y010505D01*
X001588Y010505D02*
X001563Y010530D01*
X001563Y010655D01*
X001044Y010635D02*
X000944Y010635D01*
X000994Y010635D02*
X000994Y010785D01*
X000944Y010735D01*
X000897Y010760D02*
X000872Y010785D01*
X000822Y010785D01*
X000797Y010760D01*
X000797Y010660D01*
X000822Y010635D01*
X000872Y010635D01*
X000897Y010660D01*
D16*
X000125Y009275D02*
X000125Y008775D01*
X000625Y008775D01*
X000625Y007775D01*
X000125Y007775D01*
X000125Y008775D01*
X000125Y009275D02*
X002325Y009275D01*
X002325Y007275D01*
X000125Y007275D01*
X000125Y007775D01*
X003125Y008325D02*
X007125Y008325D01*
X007125Y010525D01*
X006625Y010525D01*
X006625Y010025D01*
X003625Y010025D01*
X003625Y010525D01*
X006625Y010525D01*
X003625Y010525D02*
X003125Y010525D01*
X003125Y008325D01*
X003033Y013428D02*
X003108Y013503D01*
X003108Y013879D01*
X003033Y013879D02*
X003183Y013879D01*
X003343Y013879D02*
X003568Y013879D01*
X003643Y013803D01*
X003643Y013653D01*
X003568Y013578D01*
X003343Y013578D01*
X003343Y013428D02*
X003343Y013879D01*
X003804Y013803D02*
X003879Y013879D01*
X004029Y013879D01*
X004104Y013803D01*
X004104Y013728D01*
X003804Y013428D01*
X004104Y013428D01*
X003033Y013428D02*
X002958Y013428D01*
X002883Y013503D01*
X009570Y008984D02*
X009570Y008964D01*
X012456Y008792D02*
X012456Y007992D01*
X016430Y004991D02*
X016430Y004691D01*
X016655Y004691D01*
X016580Y004841D01*
X016580Y004916D01*
X016655Y004991D01*
X016805Y004991D01*
X016880Y004916D01*
X016880Y004766D01*
X016805Y004691D01*
X016655Y004531D02*
X016730Y004456D01*
X016730Y004230D01*
X016880Y004230D02*
X016430Y004230D01*
X016430Y004456D01*
X016505Y004531D01*
X016655Y004531D01*
X016430Y004070D02*
X016430Y003920D01*
X016430Y003995D02*
X016805Y003995D01*
X016880Y003920D01*
X016880Y003845D01*
X016805Y003770D01*
X019430Y003920D02*
X019430Y004070D01*
X019430Y003995D02*
X019805Y003995D01*
X019880Y003920D01*
X019880Y003845D01*
X019805Y003770D01*
X019880Y004230D02*
X019430Y004230D01*
X019430Y004456D01*
X019505Y004531D01*
X019655Y004531D01*
X019730Y004456D01*
X019730Y004230D01*
X019805Y004691D02*
X019880Y004766D01*
X019880Y004916D01*
X019805Y004991D01*
X019730Y004991D01*
X019655Y004916D01*
X019655Y004691D01*
X019805Y004691D01*
X019655Y004691D02*
X019505Y004841D01*
X019430Y004991D01*
X007825Y002325D02*
X007825Y000125D01*
X005825Y000125D01*
X005825Y002325D01*
X006325Y002325D01*
X006325Y001825D01*
X007325Y001825D01*
X007325Y002325D01*
X007825Y002325D01*
X007325Y002325D02*
X006325Y002325D01*
D17*
X008578Y002324D02*
X008602Y002324D01*
X010891Y003584D02*
X010915Y003584D01*
X011505Y002580D02*
X011529Y002580D01*
X012690Y007452D02*
X012690Y007476D01*
X014610Y008038D02*
X014610Y008062D01*
X014183Y009687D02*
X014183Y009711D01*
X014201Y010435D02*
X014201Y010459D01*
X013832Y011037D02*
X013832Y011061D01*
X013094Y013821D02*
X013094Y013845D01*
X009858Y013872D02*
X009858Y013848D01*
X009682Y011139D02*
X009682Y011115D01*
X009391Y009860D02*
X009391Y009836D01*
X010199Y008423D02*
X010223Y008423D01*
X001142Y010318D02*
X001142Y010342D01*
D18*
X001603Y009871D03*
X006315Y011921D03*
X006285Y012499D03*
X006512Y013037D03*
X009662Y010609D03*
X010686Y009817D03*
X012430Y010617D03*
X012418Y011125D03*
X011803Y013823D03*
X016025Y010625D03*
X019425Y009275D03*
X019425Y007275D03*
X019425Y006275D03*
X019425Y005275D03*
X019425Y004275D03*
X017356Y003333D03*
X015796Y002674D03*
X009213Y006164D03*
D19*
X008903Y007033D03*
X010496Y006456D03*
X002242Y003634D03*
X001684Y003590D03*
X001096Y003586D03*
D20*
X009725Y011728D02*
X009975Y011478D01*
X010475Y011478D01*
X010725Y011728D01*
X010725Y013228D01*
X010975Y013478D01*
X011475Y013478D01*
X011725Y013228D01*
X011725Y011728D01*
X011975Y011478D01*
X012475Y011478D01*
X012725Y011728D01*
X012725Y013228D01*
X012975Y013478D01*
X013475Y013478D01*
X013725Y013228D01*
X013975Y013478D01*
X014475Y013478D01*
X014725Y013228D01*
X014725Y011728D01*
X014475Y011478D01*
X013975Y011478D01*
X013725Y011728D01*
X013725Y013228D01*
X012725Y013228D02*
X012475Y013478D01*
X011975Y013478D01*
X011725Y013228D01*
X010725Y013228D02*
X010475Y013478D01*
X009975Y013478D01*
X009725Y013228D01*
X009725Y011728D01*
X010725Y011728D02*
X010975Y011478D01*
X011475Y011478D01*
X011725Y011728D01*
X012725Y011728D02*
X012975Y011478D01*
X013475Y011478D01*
X013725Y011728D01*
X021699Y005758D02*
X021742Y005802D01*
X021829Y005802D01*
X021872Y005758D01*
X021872Y005628D01*
X021959Y005628D02*
X021699Y005628D01*
X021699Y005758D01*
X021699Y005507D02*
X021915Y005507D01*
X021959Y005464D01*
X021959Y005377D01*
X021915Y005334D01*
X021699Y005334D01*
D21*
X012225Y011978D03*
M02*
